SeanSans-WideSemibold.ufo
<glyph name="exclam" format="1">
  <advance width="264"/>
  <unicode hex="0021"/>
  <outline>
    <contour>
      <point x="175" y="229" type="line"/>
      <point x="189" y="722" type="line"/>
      <point x="74" y="722" type="line"/>
      <point x="87" y="229" type="line"/>
    </contour>
    <contour>
      <point x="199" y="46" type="curve"/>
      <point x="199" y="83"/>
      <point x="170" y="101"/>
      <point x="131" y="101" type="curve"/>
      <point x="93" y="101"/>
      <point x="66" y="81"/>
      <point x="66" y="46" type="curve"/>
      <point x="191" y="46"/>
      <point x="74" y="46"/>
      <point x="199" y="46" type="curve"/>
      <point x="199" y="8"/>
      <point x="170" y="-8"/>
      <point x="131" y="-8" type="curve"/>
      <point x="92" y="-8"/>
      <point x="66" y="10"/>
      <point x="66" y="46" type="curve"/>
      <point x="191" y="46"/>
      <point x="74" y="46"/>
    </contour>
  </outline>
</glyph>
<glyph name="quotedbl" format="1">
  <advance width="460"/>
  <unicode hex="0022"/>
  <outline>
    <contour>
      <point x="169" y="612" type="line"/>
      <point x="176" y="830" type="line"/>
      <point x="52" y="830" type="line"/>
      <point x="60" y="612" type="line"/>
    </contour>
    <contour>
      <point x="400" y="612" type="line"/>
      <point x="408" y="830" type="line"/>
      <point x="284" y="830" type="line"/>
      <point x="291" y="612" type="line"/>
    </contour>
  </outline>
</glyph>
<glyph name="numbersign" format="1">
  <advance width="823"/>
  <unicode hex="0023"/>
  <outline>
    <contour>
      <point x="35" y="226" type="curve"/>
      <point x="669" y="226" type="curve"/>
      <point x="702" y="309" type="curve"/>
      <point x="69" y="309" type="curve"/>
    </contour>
    <contour>
      <point x="121" y="449" type="curve"/>
      <point x="759" y="449" type="curve"/>
      <point x="790" y="532" type="curve"/>
      <point x="153" y="532" type="curve"/>
    </contour>
    <contour>
      <point x="508" y="39" type="curve"/>
      <point x="781" y="722" type="curve"/>
      <point x="670" y="722" type="curve"/>
      <point x="397" y="39" type="curve"/>
    </contour>
    <contour>
      <point x="168" y="46" type="curve"/>
      <point x="437" y="722" type="curve"/>
      <point x="327" y="722" type="curve"/>
      <point x="62" y="46" type="curve"/>
    </contour>
  </outline>
</glyph>
<glyph name="dollar" format="1">
  <advance width="672"/>
  <unicode hex="0024"/>
  <outline>
    <contour>
      <point x="364" y="-40" type="curve"/>
      <point x="364" y="-9"/>
      <point x="364" y="54"/>
      <point x="364" y="85" type="curve"/>
      <point x="253" y="85"/>
      <point x="364" y="85"/>
      <point x="253" y="85" type="curve"/>
      <point x="253" y="54"/>
      <point x="253" y="-9"/>
      <point x="253" y="-40" type="curve"/>
      <point x="364" y="-40"/>
      <point x="253" y="-40"/>
    </contour>
    <contour>
      <point x="379" y="644" type="curve"/>
      <point x="379" y="675"/>
      <point x="379" y="742"/>
      <point x="379" y="773" type="curve"/>
      <point x="268" y="773"/>
      <point x="379" y="773"/>
      <point x="268" y="773" type="curve"/>
      <point x="268" y="742"/>
      <point x="268" y="675"/>
      <point x="268" y="644" type="curve"/>
      <point x="379" y="644"/>
      <point x="268" y="644"/>
    </contour>
    <contour>
      <point x="40" y="94" type="curve"/>
      <point x="115" y="66"/>
      <point x="204" y="44"/>
      <point x="303" y="44" type="curve"/>
      <point x="480" y="44"/>
      <point x="634" y="76"/>
      <point x="634" y="214" type="curve"/>
      <point x="634" y="338"/>
      <point x="497" y="368"/>
      <point x="359" y="411" type="curve"/>
      <point x="261" y="442"/>
      <point x="164" y="457"/>
      <point x="164" y="527" type="curve"/>
      <point x="164" y="590"/>
      <point x="240" y="604"/>
      <point x="327" y="604" type="curve"/>
      <point x="408" y="604"/>
      <point x="465" y="593"/>
      <point x="547" y="563" type="curve"/>
      <point x="593" y="634"/>
      <point x="547" y="563"/>
      <point x="593" y="634" type="curve"/>
      <point x="504" y="669"/>
      <point x="432" y="686"/>
      <point x="333" y="686" type="curve"/>
      <point x="179" y="686"/>
      <point x="52" y="649"/>
      <point x="52" y="527" type="curve"/>
      <point x="52" y="410"/>
      <point x="164" y="377"/>
      <point x="294" y="337" type="curve"/>
      <point x="401" y="304"/>
      <point x="523" y="290"/>
      <point x="523" y="210" type="curve"/>
      <point x="523" y="140"/>
      <point x="423" y="126"/>
      <point x="314" y="126" type="curve"/>
      <point x="233" y="126"/>
      <point x="161" y="146"/>
      <point x="90" y="170" type="curve"/>
      <point x="40" y="93"/>
      <point x="90" y="170"/>
    </contour>
  </outline>
</glyph>
<glyph name="percent" format="1">
  <advance width="1299"/>
  <unicode hex="0025"/>
  <outline>
    <contour>
      <point x="444" y="-53" type="line"/>
      <point x="980" y="722" type="line"/>
      <point x="878" y="722" type="line"/>
      <point x="341" y="-53" type="line"/>
    </contour>
    <contour>
      <point x="136" y="507" type="curve"/>
      <point x="136" y="591"/>
      <point x="187" y="644"/>
      <point x="271" y="644" type="curve"/>
      <point x="357" y="645"/>
      <point x="409" y="592"/>
      <point x="409" y="506" type="curve"/>
      <point x="409" y="421"/>
      <point x="361" y="366"/>
      <point x="278" y="366" type="curve"/>
      <point x="190" y="366"/>
      <point x="136" y="419"/>
      <point x="136" y="507" type="curve"/>
      <point x="97" y="507"/>
      <point x="70" y="507"/>
      <point x="31" y="507" type="curve"/>
      <point x="31" y="365"/>
      <point x="127" y="284"/>
      <point x="272" y="284" type="curve"/>
      <point x="420" y="284"/>
      <point x="518" y="366"/>
      <point x="518" y="510" type="curve"/>
      <point x="518" y="649"/>
      <point x="421" y="725"/>
      <point x="276" y="726" type="curve"/>
      <point x="130" y="726"/>
      <point x="31" y="648"/>
      <point x="31" y="507" type="curve"/>
      <point x="70" y="507"/>
      <point x="97" y="507"/>
    </contour>
    <contour>
      <point x="886" y="162" type="curve"/>
      <point x="886" y="246"/>
      <point x="938" y="299"/>
      <point x="1022" y="299" type="curve"/>
      <point x="1107" y="300"/>
      <point x="1159" y="247"/>
      <point x="1159" y="161" type="curve"/>
      <point x="1159" y="76"/>
      <point x="1111" y="21"/>
      <point x="1028" y="21" type="curve"/>
      <point x="940" y="21"/>
      <point x="886" y="74"/>
      <point x="886" y="162" type="curve"/>
      <point x="847" y="162"/>
      <point x="821" y="162"/>
      <point x="782" y="162" type="curve"/>
      <point x="782" y="20"/>
      <point x="878" y="-60"/>
      <point x="1023" y="-60" type="curve"/>
      <point x="1171" y="-60"/>
      <point x="1268" y="21"/>
      <point x="1268" y="165" type="curve"/>
      <point x="1268" y="304"/>
      <point x="1171" y="380"/>
      <point x="1027" y="381" type="curve"/>
      <point x="880" y="381"/>
      <point x="782" y="303"/>
      <point x="782" y="162" type="curve"/>
      <point x="821" y="162"/>
      <point x="847" y="162"/>
    </contour>
  </outline>
</glyph>
<glyph name="ampersand" format="1">
  <advance width="847"/>
  <unicode hex="0026"/>
  <outline>
    <contour>
      <point x="822" y="57" type="line"/>
      <point x="692" y="155"/>
      <point x="548" y="267"/>
      <point x="416" y="369" type="curve"/>
      <point x="343" y="428"/>
      <point x="248" y="462"/>
      <point x="248" y="558" type="curve"/>
      <point x="248" y="613"/>
      <point x="293" y="644"/>
      <point x="353" y="644" type="curve"/>
      <point x="421" y="644"/>
      <point x="478" y="621"/>
      <point x="478" y="560" type="curve"/>
      <point x="478" y="469"/>
      <point x="390" y="446"/>
      <point x="302" y="409" type="curve"/>
      <point x="177" y="357"/>
      <point x="52" y="323"/>
      <point x="52" y="193" type="curve"/>
      <point x="52" y="51"/>
      <point x="187" y="-5"/>
      <point x="347" y="-5" type="curve"/>
      <point x="564" y="-5"/>
      <point x="713" y="112"/>
      <point x="800" y="314" type="curve"/>
      <point x="704" y="335"/>
      <point x="800" y="314"/>
      <point x="704" y="335" type="curve"/>
      <point x="635" y="175"/>
      <point x="522" y="78"/>
      <point x="351" y="78" type="curve"/>
      <point x="250" y="78"/>
      <point x="163" y="104"/>
      <point x="163" y="193" type="curve"/>
      <point x="163" y="288"/>
      <point x="257" y="305"/>
      <point x="348" y="344" type="curve"/>
      <point x="469" y="395"/>
      <point x="587" y="433"/>
      <point x="588" y="560" type="curve"/>
      <point x="588" y="676"/>
      <point x="485" y="727"/>
      <point x="358" y="727" type="curve"/>
      <point x="235" y="727"/>
      <point x="139" y="671"/>
      <point x="139" y="558" type="curve"/>
      <point x="139" y="441"/>
      <point x="247" y="390"/>
      <point x="341" y="319" type="curve"/>
      <point x="471" y="216"/>
      <point x="637" y="90"/>
      <point x="765" y="-10" type="curve"/>
    </contour>
  </outline>
</glyph>
<glyph name="parenleft" format="1">
  <advance width="437"/>
  <unicode hex="0028"/>
  <outline>
    <contour>
      <point x="435" y="-214" type="curve"/>
      <point x="249" y="-67"/>
      <point x="152" y="88"/>
      <point x="152" y="326" type="curve"/>
      <point x="152" y="564"/>
      <point x="249" y="718"/>
      <point x="434" y="869" type="curve"/>
      <point x="368" y="922"/>
      <point x="434" y="869"/>
      <point x="368" y="922" type="curve"/>
      <point x="159" y="758"/>
      <point x="42" y="592"/>
      <point x="42" y="326" type="curve"/>
      <point x="42" y="59"/>
      <point x="160" y="-106"/>
      <point x="369" y="-272" type="curve"/>
      <point x="435" y="-214"/>
      <point x="369" y="-272"/>
    </contour>
  </outline>
</glyph>
<glyph name="parenright" format="1">
  <advance width="451"/>
  <unicode hex="0029"/>
  <outline>
    <contour>
      <point x="66" y="-286" type="curve"/>
      <point x="279" y="-113"/>
      <point x="409" y="52"/>
      <point x="409" y="328" type="curve"/>
      <point x="409" y="598"/>
      <point x="286" y="762"/>
      <point x="70" y="924" type="curve"/>
      <point x="5" y="866"/>
      <point x="70" y="924"/>
      <point x="5" y="866" type="curve"/>
      <point x="195" y="717"/>
      <point x="299" y="565"/>
      <point x="299" y="325" type="curve"/>
      <point x="299" y="79"/>
      <point x="186" y="-73"/>
      <point x="0" y="-233" type="curve"/>
      <point x="66" y="-286"/>
      <point x="0" y="-233"/>
    </contour>
  </outline>
</glyph>
<glyph name="asterisk" format="1">
  <advance width="596"/>
  <unicode hex="002A"/>
  <outline>
    <contour>
      <point x="335" y="604" type="line"/>
      <point x="340" y="822" type="line"/>
      <point x="250" y="822" type="line"/>
      <point x="256" y="604" type="line"/>
    </contour>
    <contour>
      <point x="337" y="550" type="line"/>
      <point x="545" y="617" type="line"/>
      <point x="514" y="702" type="line"/>
      <point x="310" y="625" type="line"/>
    </contour>
    <contour>
      <point x="287" y="530" type="line"/>
      <point x="419" y="357" type="line"/>
      <point x="488" y="415" type="line"/>
      <point x="347" y="581" type="line"/>
    </contour>
    <contour>
      <point x="253" y="578" type="line"/>
      <point x="113" y="411" type="line"/>
      <point x="183" y="354" type="line"/>
      <point x="315" y="527" type="line"/>
    </contour>
    <contour>
      <point x="284" y="620" type="line"/>
      <point x="81" y="697" type="line"/>
      <point x="50" y="612" type="line"/>
      <point x="258" y="545" type="line"/>
    </contour>
  </outline>
</glyph>
<glyph name="plus" format="1">
  <advance width="678"/>
  <unicode hex="002B"/>
  <outline>
    <contour>
      <point x="38" y="266" type="curve"/>
      <point x="640" y="266" type="line"/>
      <point x="640" y="357"/>
      <point x="640" y="266"/>
      <point x="640" y="357" type="curve"/>
      <point x="38" y="357" type="line"/>
      <point x="38" y="266"/>
      <point x="38" y="357"/>
    </contour>
    <contour>
      <point x="392" y="21" type="curve"/>
      <point x="392" y="587" type="line"/>
      <point x="281" y="587"/>
      <point x="398" y="587"/>
      <point x="288" y="587" type="curve"/>
      <point x="288" y="21" type="line"/>
      <point x="398" y="21"/>
      <point x="281" y="21"/>
    </contour>
  </outline>
</glyph>
<glyph name="comma" format="1">
  <advance width="215"/>
  <unicode hex="002C"/>
  <outline>
    <contour>
      <point x="19" y="-122" type="line"/>
      <point x="107" y="-112"/>
      <point x="172" y="-52"/>
      <point x="172" y="38" type="curve"/>
      <point x="172" y="98"/>
      <point x="143" y="145"/>
      <point x="93" y="145" type="curve"/>
      <point x="55" y="145"/>
      <point x="27" y="126"/>
      <point x="27" y="90" type="curve"/>
      <point x="27" y="53"/>
      <point x="54" y="34"/>
      <point x="94" y="33" type="curve"/>
      <point x="93" y="-6"/>
      <point x="77" y="-47"/>
      <point x="13" y="-62" type="curve"/>
    </contour>
  </outline>
</glyph>
<glyph name="hyphen" format="1">
  <advance width="495"/>
  <unicode hex="002D"/>
  <outline>
    <contour>
      <point x="64" y="234" type="curve"/>
      <point x="186" y="234"/>
      <point x="309" y="234"/>
      <point x="431" y="234" type="curve"/>
      <point x="431" y="326"/>
      <point x="431" y="234"/>
      <point x="431" y="326" type="curve"/>
      <point x="309" y="326"/>
      <point x="186" y="326"/>
      <point x="64" y="326" type="curve"/>
      <point x="64" y="234"/>
      <point x="64" y="326"/>
    </contour>
  </outline>
</glyph>
<glyph name="period" format="1">
  <advance width="242"/>
  <unicode hex="002E"/>
  <outline>
    <contour>
      <point x="187" y="46" type="curve"/>
      <point x="187" y="83"/>
      <point x="159" y="101"/>
      <point x="120" y="101" type="curve"/>
      <point x="81" y="101"/>
      <point x="55" y="81"/>
      <point x="55" y="46" type="curve"/>
      <point x="180" y="46"/>
      <point x="63" y="46"/>
      <point x="187" y="46" type="curve"/>
      <point x="187" y="8"/>
      <point x="159" y="-8"/>
      <point x="119" y="-8" type="curve"/>
      <point x="81" y="-8"/>
      <point x="55" y="10"/>
      <point x="55" y="46" type="curve"/>
      <point x="180" y="46"/>
      <point x="63" y="46"/>
    </contour>
  </outline>
</glyph>
<glyph name="slash" format="1">
  <advance width="692"/>
  <unicode hex="002F"/>
  <outline>
    <contour>
      <point x="133" y="-30" type="curve"/>
      <point x="312" y="247"/>
      <point x="491" y="524"/>
      <point x="670" y="801" type="curve"/>
      <point x="559" y="801"/>
      <point x="670" y="801"/>
      <point x="559" y="801" type="curve"/>
      <point x="380" y="524"/>
      <point x="201" y="247"/>
      <point x="22" y="-30" type="curve"/>
      <point x="133" y="-30"/>
      <point x="22" y="-30"/>
    </contour>
  </outline>
</glyph>
<glyph name="zero" format="1">
  <advance width="873"/>
  <unicode hex="0030"/>
  <outline>
    <contour>
      <point x="165" y="360" type="curve"/>
      <point x="165" y="536"/>
      <point x="265" y="640"/>
      <point x="434" y="640" type="curve"/>
      <point x="604" y="640"/>
      <point x="708" y="538"/>
      <point x="708" y="363" type="curve"/>
      <point x="708" y="188"/>
      <point x="609" y="83"/>
      <point x="443" y="83" type="curve"/>
      <point x="271" y="83"/>
      <point x="165" y="184"/>
      <point x="165" y="360" type="curve"/>
      <point x="53" y="360"/>
      <point x="164" y="360"/>
      <point x="52" y="360" type="curve"/>
      <point x="52" y="126"/>
      <point x="202" y="-5"/>
      <point x="438" y="-5" type="curve"/>
      <point x="674" y="-5"/>
      <point x="821" y="128"/>
      <point x="821" y="363" type="curve"/>
      <point x="821" y="595"/>
      <point x="676" y="727"/>
      <point x="444" y="727" type="curve"/>
      <point x="204" y="727"/>
      <point x="52" y="596"/>
      <point x="52" y="360" type="curve"/>
      <point x="164" y="360"/>
      <point x="53" y="360"/>
    </contour>
  </outline>
</glyph>
<glyph name="one" format="1">
  <advance width="437"/>
  <unicode hex="0031"/>
  <outline>
    <contour>
      <point x="64" y="483" type="curve"/>
      <point x="336" y="666"/>
      <point x="64" y="483"/>
      <point x="336" y="666" type="curve"/>
      <point x="254" y="722"/>
      <point x="336" y="666"/>
      <point x="254" y="722" type="curve"/>
      <point x="13" y="563"/>
      <point x="254" y="722"/>
      <point x="13" y="563" type="curve"/>
      <point x="64" y="483"/>
      <point x="13" y="563"/>
    </contour>
    <contour>
      <point x="364" y="0" type="curve"/>
      <point x="364" y="241"/>
      <point x="364" y="481"/>
      <point x="364" y="722" type="curve"/>
      <point x="254" y="722"/>
      <point x="364" y="722"/>
      <point x="254" y="722" type="curve"/>
      <point x="254" y="481"/>
      <point x="254" y="241"/>
      <point x="254" y="0" type="curve"/>
      <point x="364" y="0"/>
      <point x="254" y="0"/>
    </contour>
  </outline>
</glyph>
<glyph name="two" format="1">
  <advance width="703"/>
  <unicode hex="0032"/>
  <outline>
    <contour>
      <point x="38" y="0" type="curve"/>
      <point x="275" y="0"/>
      <point x="471" y="0"/>
      <point x="659" y="0" type="curve"/>
      <point x="659" y="83"/>
      <point x="659" y="0"/>
      <point x="659" y="83" type="curve"/>
      <point x="453" y="83"/>
      <point x="243" y="83"/>
      <point x="38" y="83" type="curve"/>
      <point x="38" y="0"/>
      <point x="38" y="83"/>
    </contour>
    <contour>
      <point x="126" y="525" type="curve"/>
      <point x="193" y="601"/>
      <point x="252" y="640"/>
      <point x="343" y="640" type="curve"/>
      <point x="443" y="640"/>
      <point x="516" y="605"/>
      <point x="516" y="510" type="curve"/>
      <point x="516" y="399"/>
      <point x="422" y="340"/>
      <point x="318" y="272" type="curve"/>
      <point x="225" y="209"/>
      <point x="132" y="146"/>
      <point x="38" y="83" type="curve"/>
      <point x="42" y="0"/>
      <point x="38" y="83"/>
      <point x="42" y="0" type="curve"/>
      <point x="193" y="68"/>
      <point x="289" y="139"/>
      <point x="389" y="207" type="curve"/>
      <point x="518" y="290"/>
      <point x="619" y="360"/>
      <point x="619" y="514" type="curve"/>
      <point x="619" y="664"/>
      <point x="508" y="727"/>
      <point x="349" y="727" type="curve"/>
      <point x="220" y="727"/>
      <point x="122" y="679"/>
      <point x="53" y="576" type="curve"/>
      <point x="126" y="525"/>
      <point x="53" y="576"/>
    </contour>
  </outline>
</glyph>
<glyph name="three" format="1">
  <advance width="653"/>
  <unicode hex="0033"/>
  <outline>
    <contour>
      <point x="40" y="55" type="curve"/>
      <point x="104" y="19"/>
      <point x="185" y="-5"/>
      <point x="282" y="-5" type="curve"/>
      <point x="464" y="-5"/>
      <point x="603" y="42"/>
      <point x="603" y="214" type="curve"/>
      <point x="603" y="364"/>
      <point x="421" y="409"/>
      <point x="180" y="409" type="curve"/>
      <point x="180" y="340"/>
      <point x="180" y="409"/>
      <point x="180" y="339" type="curve"/>
      <point x="336" y="339"/>
      <point x="497" y="314"/>
      <point x="497" y="211" type="curve"/>
      <point x="497" y="99"/>
      <point x="391" y="83"/>
      <point x="285" y="83" type="curve"/>
      <point x="225" y="83"/>
      <point x="159" y="97"/>
      <point x="88" y="127" type="curve"/>
      <point x="40" y="55"/>
      <point x="88" y="127"/>
    </contour>
    <contour>
      <point x="99" y="578" type="curve"/>
      <point x="141" y="612"/>
      <point x="210" y="639"/>
      <point x="278" y="639" type="curve"/>
      <point x="378" y="639"/>
      <point x="456" y="622"/>
      <point x="456" y="534" type="curve"/>
      <point x="456" y="443"/>
      <point x="319" y="418"/>
      <point x="180" y="418" type="curve"/>
      <point x="180" y="348"/>
      <point x="180" y="417"/>
      <point x="180" y="348" type="curve"/>
      <point x="387" y="348"/>
      <point x="561" y="392"/>
      <point x="561" y="538" type="curve"/>
      <point x="561" y="679"/>
      <point x="442" y="727"/>
      <point x="286" y="727" type="curve"/>
      <point x="185" y="727"/>
      <point x="92" y="688"/>
      <point x="43" y="642" type="curve"/>
      <point x="99" y="578"/>
      <point x="43" y="642"/>
    </contour>
  </outline>
</glyph>
<glyph name="four" format="1">
  <advance width="737"/>
  <unicode hex="0034"/>
  <outline>
    <contour>
      <point x="57" y="247" type="line"/>
      <point x="484" y="668" type="line"/>
      <point x="399" y="705" type="line"/>
      <point x="15" y="329" type="line"/>
    </contour>
    <contour>
      <point x="702" y="329" type="line"/>
      <point x="15" y="329" type="line"/>
      <point x="16" y="238" type="line"/>
      <point x="702" y="238" type="line"/>
    </contour>
    <contour>
      <point x="509" y="0" type="line"/>
      <point x="509" y="705" type="line"/>
      <point x="399" y="705" type="line"/>
      <point x="399" y="0" type="line"/>
    </contour>
  </outline>
</glyph>
<glyph name="five" format="1">
  <advance width="650"/>
  <unicode hex="0035"/>
  <outline>
    <contour>
      <point x="90" y="722" type="curve"/>
      <point x="90" y="625"/>
      <point x="90" y="512"/>
      <point x="90" y="381" type="curve"/>
      <point x="196" y="357"/>
      <point x="90" y="381"/>
      <point x="196" y="357" type="curve"/>
      <point x="196" y="447"/>
      <point x="196" y="549"/>
      <point x="196" y="639" type="curve"/>
      <point x="90" y="722"/>
      <point x="196" y="639"/>
    </contour>
    <contour>
      <point x="196" y="357" type="curve"/>
      <point x="222" y="373"/>
      <point x="277" y="383"/>
      <point x="311" y="383" type="curve"/>
      <point x="421" y="383"/>
      <point x="496" y="336"/>
      <point x="496" y="236" type="curve"/>
      <point x="496" y="135"/>
      <point x="402" y="83"/>
      <point x="289" y="83" type="curve"/>
      <point x="220" y="83"/>
      <point x="164" y="92"/>
      <point x="93" y="119" type="curve"/>
      <point x="44" y="43"/>
      <point x="93" y="119"/>
      <point x="44" y="43" type="curve"/>
      <point x="124" y="11"/>
      <point x="197" y="-5"/>
      <point x="286" y="-5" type="curve"/>
      <point x="460" y="-5"/>
      <point x="606" y="76"/>
      <point x="606" y="236" type="curve"/>
      <point x="606" y="389"/>
      <point x="483" y="471"/>
      <point x="316" y="471" type="curve"/>
      <point x="242" y="471"/>
      <point x="149" y="447"/>
      <point x="93" y="385" type="curve"/>
      <point x="196" y="357"/>
      <point x="92" y="385"/>
    </contour>
    <contour>
      <point x="571" y="722" type="curve"/>
      <point x="400" y="722"/>
      <point x="246" y="722"/>
      <point x="90" y="722" type="curve"/>
      <point x="196" y="639"/>
      <point x="90" y="722"/>
      <point x="196" y="639" type="curve"/>
      <point x="317" y="639"/>
      <point x="435" y="639"/>
      <point x="571" y="639" type="curve"/>
      <point x="571" y="722"/>
      <point x="571" y="639"/>
    </contour>
  </outline>
</glyph>
<glyph name="six" format="1">
  <advance width="717"/>
  <unicode hex="0036"/>
  <outline>
    <contour>
      <point x="138" y="225" type="curve"/>
      <point x="190" y="317"/>
      <point x="271" y="351"/>
      <point x="378" y="351" type="curve"/>
      <point x="483" y="351"/>
      <point x="560" y="315"/>
      <point x="560" y="218" type="curve"/>
      <point x="560" y="123"/>
      <point x="481" y="88"/>
      <point x="379" y="88" type="curve"/>
      <point x="249" y="88"/>
      <point x="154" y="138"/>
      <point x="154" y="254" type="curve"/>
      <point x="154" y="509"/>
      <point x="385" y="587"/>
      <point x="653" y="648" type="curve"/>
      <point x="629" y="731"/>
      <point x="653" y="648"/>
      <point x="629" y="731" type="curve"/>
      <point x="329" y="670"/>
      <point x="48" y="559"/>
      <point x="48" y="250" type="curve"/>
      <point x="48" y="73"/>
      <point x="184" y="-10"/>
      <point x="374" y="-10" type="curve"/>
      <point x="546" y="-10"/>
      <point x="671" y="61"/>
      <point x="671" y="218" type="curve"/>
      <point x="671" y="373"/>
      <point x="550" y="438"/>
      <point x="386" y="438" type="curve"/>
      <point x="241" y="438"/>
      <point x="132" y="367"/>
      <point x="64" y="265" type="curve"/>
      <point x="138" y="225"/>
      <point x="64" y="265"/>
    </contour>
  </outline>
</glyph>
<glyph name="eight" format="1">
  <advance width="699"/>
  <unicode hex="0038"/>
  <outline>
    <contour>
      <point x="76" y="544" type="curve"/>
      <point x="76" y="415"/>
      <point x="190" y="395"/>
      <point x="318" y="349" type="curve"/>
      <point x="431" y="308"/>
      <point x="536" y="295"/>
      <point x="536" y="187" type="curve"/>
      <point x="536" y="100"/>
      <point x="454" y="79"/>
      <point x="349" y="79" type="curve"/>
      <point x="243" y="79"/>
      <point x="163" y="100"/>
      <point x="163" y="187" type="curve"/>
      <point x="163" y="297"/>
      <point x="271" y="308"/>
      <point x="386" y="350" type="curve"/>
      <point x="510" y="398"/>
      <point x="622" y="415"/>
      <point x="622" y="543" type="curve"/>
      <point x="622" y="685"/>
      <point x="509" y="727"/>
      <point x="349" y="727" type="curve"/>
      <point x="193" y="727"/>
      <point x="76" y="682"/>
      <point x="76" y="544" type="curve"/>
      <point x="187" y="544"/>
      <point x="76" y="544"/>
      <point x="187" y="544" type="curve"/>
      <point x="187" y="619"/>
      <point x="255" y="642"/>
      <point x="344" y="642" type="curve"/>
      <point x="440" y="642"/>
      <point x="512" y="623"/>
      <point x="512" y="543" type="curve"/>
      <point x="512" y="448"/>
      <point x="415" y="442"/>
      <point x="316" y="407" type="curve"/>
      <point x="175" y="355"/>
      <point x="52" y="330"/>
      <point x="52" y="187" type="curve"/>
      <point x="52" y="39"/>
      <point x="176" y="-5"/>
      <point x="344" y="-5" type="curve"/>
      <point x="515" y="-5"/>
      <point x="647" y="35"/>
      <point x="647" y="187" type="curve"/>
      <point x="647" y="328"/>
      <point x="524" y="355"/>
      <point x="386" y="406" type="curve"/>
      <point x="285" y="445"/>
      <point x="187" y="450"/>
      <point x="187" y="544" type="curve"/>
      <point x="76" y="544"/>
      <point x="187" y="544"/>
    </contour>
  </outline>
</glyph>
<glyph name="nine" format="1">
  <advance width="717"/>
  <unicode hex="0039"/>
  <outline>
    <contour>
      <point x="579" y="495" type="curve"/>
      <point x="527" y="404"/>
      <point x="454" y="371"/>
      <point x="349" y="371" type="curve"/>
      <point x="238" y="371"/>
      <point x="156" y="408"/>
      <point x="156" y="508" type="curve"/>
      <point x="156" y="600"/>
      <point x="235" y="634"/>
      <point x="337" y="634" type="curve"/>
      <point x="467" y="634"/>
      <point x="562" y="586"/>
      <point x="562" y="468" type="curve"/>
      <point x="562" y="214"/>
      <point x="339" y="131"/>
      <point x="64" y="78" type="curve"/>
      <point x="89" y="-9"/>
      <point x="64" y="78"/>
      <point x="89" y="-9" type="curve"/>
      <point x="407" y="40"/>
      <point x="668" y="163"/>
      <point x="668" y="472" type="curve"/>
      <point x="668" y="649"/>
      <point x="532" y="732"/>
      <point x="342" y="732" type="curve"/>
      <point x="170" y="732"/>
      <point x="45" y="661"/>
      <point x="45" y="504" type="curve"/>
      <point x="45" y="349"/>
      <point x="170" y="284"/>
      <point x="338" y="284" type="curve"/>
      <point x="483" y="284"/>
      <point x="577" y="342"/>
      <point x="633" y="467" type="curve"/>
      <point x="579" y="495"/>
      <point x="633" y="467"/>
    </contour>
  </outline>
</glyph>
<glyph name="colon" format="1">
  <advance width="258"/>
  <unicode hex="003A"/>
  <outline>
    <contour>
      <point x="194" y="394" type="curve"/>
      <point x="194" y="431"/>
      <point x="165" y="449"/>
      <point x="126" y="449" type="curve"/>
      <point x="88" y="449"/>
      <point x="61" y="430"/>
      <point x="61" y="394" type="curve"/>
      <point x="186" y="394"/>
      <point x="69" y="394"/>
      <point x="194" y="394" type="curve"/>
      <point x="194" y="356"/>
      <point x="165" y="340"/>
      <point x="126" y="340" type="curve"/>
      <point x="87" y="340"/>
      <point x="61" y="358"/>
      <point x="61" y="394" type="curve"/>
      <point x="186" y="394"/>
      <point x="69" y="394"/>
    </contour>
    <contour>
      <point x="193" y="46" type="curve"/>
      <point x="193" y="83"/>
      <point x="165" y="101"/>
      <point x="126" y="101" type="curve"/>
      <point x="87" y="101"/>
      <point x="61" y="81"/>
      <point x="61" y="46" type="curve"/>
      <point x="186" y="46"/>
      <point x="69" y="46"/>
      <point x="193" y="46" type="curve"/>
      <point x="193" y="8"/>
      <point x="165" y="-8"/>
      <point x="125" y="-8" type="curve"/>
      <point x="87" y="-8"/>
      <point x="61" y="10"/>
      <point x="61" y="46" type="curve"/>
      <point x="186" y="46"/>
      <point x="69" y="46"/>
    </contour>
  </outline>
</glyph>
<glyph name="semicolon" format="1">
  <advance width="251"/>
  <unicode hex="003B"/>
  <outline>
    <contour>
      <point x="40" y="-140" type="line"/>
      <point x="129" y="-131"/>
      <point x="194" y="-71"/>
      <point x="194" y="19" type="curve"/>
      <point x="194" y="79"/>
      <point x="164" y="126"/>
      <point x="114" y="126" type="curve"/>
      <point x="76" y="126"/>
      <point x="48" y="108"/>
      <point x="48" y="71" type="curve"/>
      <point x="48" y="35"/>
      <point x="75" y="16"/>
      <point x="116" y="14" type="curve"/>
      <point x="115" y="-24"/>
      <point x="98" y="-65"/>
      <point x="34" y="-81" type="curve"/>
    </contour>
    <contour>
      <point x="178" y="394" type="curve"/>
      <point x="178" y="431"/>
      <point x="150" y="449"/>
      <point x="111" y="449" type="curve"/>
      <point x="72" y="449"/>
      <point x="46" y="429"/>
      <point x="46" y="394" type="curve"/>
      <point x="171" y="394"/>
      <point x="54" y="394"/>
      <point x="178" y="394" type="curve"/>
      <point x="178" y="356"/>
      <point x="150" y="340"/>
      <point x="110" y="340" type="curve"/>
      <point x="72" y="340"/>
      <point x="46" y="358"/>
      <point x="46" y="394" type="curve"/>
      <point x="171" y="394"/>
      <point x="54" y="394"/>
    </contour>
  </outline>
</glyph>
<glyph name="less" format="1">
  <advance width="859"/>
  <unicode hex="003C"/>
  <outline>
    <contour>
      <point x="797" y="615" type="curve"/>
      <point x="542" y="525"/>
      <point x="286" y="435"/>
      <point x="30" y="345" type="curve"/>
      <point x="30" y="255"/>
      <point x="30" y="345"/>
      <point x="30" y="255" type="curve"/>
      <point x="286" y="345"/>
      <point x="542" y="435"/>
      <point x="797" y="525" type="curve"/>
      <point x="797" y="615"/>
      <point x="797" y="525"/>
    </contour>
    <contour>
      <point x="810" y="81" type="curve"/>
      <point x="550" y="169"/>
      <point x="291" y="257"/>
      <point x="30" y="345" type="curve"/>
      <point x="30" y="255"/>
      <point x="30" y="345"/>
      <point x="30" y="255" type="curve"/>
      <point x="291" y="167"/>
      <point x="550" y="79"/>
      <point x="810" y="-9" type="curve"/>
      <point x="810" y="81"/>
      <point x="810" y="-9"/>
    </contour>
  </outline>
</glyph>
<glyph name="equal" format="1">
  <advance width="897"/>
  <unicode hex="003D"/>
  <outline>
    <contour>
      <point x="57" y="174" type="curve"/>
      <point x="321" y="174"/>
      <point x="586" y="174"/>
      <point x="849" y="174" type="curve"/>
      <point x="849" y="261"/>
      <point x="849" y="174"/>
      <point x="849" y="261" type="curve"/>
      <point x="586" y="261"/>
      <point x="321" y="261"/>
      <point x="57" y="261" type="curve"/>
      <point x="57" y="174"/>
      <point x="57" y="261"/>
    </contour>
    <contour>
      <point x="57" y="396" type="curve"/>
      <point x="321" y="396"/>
      <point x="586" y="396"/>
      <point x="849" y="396" type="curve"/>
      <point x="849" y="483"/>
      <point x="849" y="396"/>
      <point x="849" y="483" type="curve"/>
      <point x="586" y="483"/>
      <point x="321" y="483"/>
      <point x="57" y="483" type="curve"/>
      <point x="57" y="396"/>
      <point x="57" y="483"/>
    </contour>
  </outline>
</glyph>
<glyph name="greater" format="1">
  <advance width="860"/>
  <unicode hex="003E"/>
  <outline>
    <contour>
      <point x="61" y="-9" type="curve"/>
      <point x="316" y="81"/>
      <point x="573" y="171"/>
      <point x="828" y="261" type="curve"/>
      <point x="828" y="351"/>
      <point x="828" y="261"/>
      <point x="828" y="351" type="curve"/>
      <point x="573" y="261"/>
      <point x="316" y="171"/>
      <point x="61" y="81" type="curve"/>
      <point x="61" y="-9"/>
      <point x="61" y="81"/>
    </contour>
    <contour>
      <point x="48" y="525" type="curve"/>
      <point x="308" y="437"/>
      <point x="568" y="349"/>
      <point x="828" y="261" type="curve"/>
      <point x="828" y="351"/>
      <point x="828" y="261"/>
      <point x="828" y="351" type="curve"/>
      <point x="568" y="439"/>
      <point x="308" y="527"/>
      <point x="48" y="615" type="curve"/>
      <point x="48" y="525"/>
      <point x="48" y="615"/>
    </contour>
  </outline>
</glyph>
<glyph name="question" format="1">
  <advance width="603"/>
  <unicode hex="003F"/>
  <outline>
    <contour>
      <point x="213" y="366" type="curve"/>
      <point x="213" y="329"/>
      <point x="213" y="258"/>
      <point x="213" y="221" type="curve"/>
      <point x="323" y="221"/>
      <point x="213" y="221"/>
      <point x="323" y="221" type="curve"/>
      <point x="323" y="258"/>
      <point x="323" y="329"/>
      <point x="323" y="366" type="curve"/>
      <point x="213" y="366"/>
      <point x="323" y="366"/>
    </contour>
    <contour>
      <point x="101" y="585" type="line"/>
      <point x="142" y="622"/>
      <point x="206" y="654"/>
      <point x="278" y="654" type="curve"/>
      <point x="378" y="654"/>
      <point x="458" y="613"/>
      <point x="458" y="519" type="curve"/>
      <point x="458" y="414"/>
      <point x="356" y="366"/>
      <point x="224" y="366" type="curve"/>
      <point x="224" y="335"/>
      <point x="224" y="314"/>
      <point x="224" y="283" type="curve"/>
      <point x="416" y="283"/>
      <point x="563" y="360"/>
      <point x="563" y="519" type="curve"/>
      <point x="563" y="667"/>
      <point x="442" y="740"/>
      <point x="283" y="740" type="curve"/>
      <point x="186" y="740"/>
      <point x="110" y="708"/>
      <point x="44" y="649" type="curve"/>
    </contour>
    <contour>
      <point x="334" y="18" type="curve"/>
      <point x="334" y="55"/>
      <point x="307" y="72"/>
      <point x="269" y="72" type="curve"/>
      <point x="231" y="72"/>
      <point x="205" y="53"/>
      <point x="205" y="18" type="curve"/>
      <point x="334" y="18"/>
      <point x="205" y="18"/>
      <point x="334" y="18" type="curve"/>
      <point x="334" y="-19"/>
      <point x="307" y="-34"/>
      <point x="268" y="-34" type="curve"/>
      <point x="230" y="-34"/>
      <point x="205" y="-17"/>
      <point x="205" y="18" type="curve"/>
      <point x="334" y="18"/>
      <point x="205" y="18"/>
    </contour>
  </outline>
</glyph>
<glyph name="at" format="1">
  <advance width="1026"/>
  <unicode hex="0040"/>
  <outline>
    <contour>
      <point x="716" y="-24" type="curve"/>
      <point x="648" y="-49"/>
      <point x="599" y="-56"/>
      <point x="530" y="-56" type="curve"/>
      <point x="311" y="-56"/>
      <point x="151" y="18"/>
      <point x="151" y="215" type="curve"/>
      <point x="151" y="408"/>
      <point x="310" y="478"/>
      <point x="524" y="478" type="curve"/>
      <point x="725" y="478"/>
      <point x="871" y="401"/>
      <point x="871" y="218" type="curve"/>
      <point x="871" y="157"/>
      <point x="857" y="110"/>
      <point x="806" y="110" type="curve"/>
      <point x="751" y="110"/>
      <point x="730" y="157"/>
      <point x="730" y="220" type="curve"/>
      <point x="730" y="344"/>
      <point x="641" y="407"/>
      <point x="511" y="407" type="curve"/>
      <point x="368" y="407"/>
      <point x="271" y="349"/>
      <point x="271" y="217" type="curve"/>
      <point x="271" y="86"/>
      <point x="361" y="19"/>
      <point x="498" y="19" type="curve"/>
      <point x="617" y="19"/>
      <point x="688" y="85"/>
      <point x="714" y="203" type="curve"/>
      <point x="644" y="220"/>
      <point x="714" y="203"/>
      <point x="644" y="220" type="curve"/>
      <point x="621" y="147"/>
      <point x="585" y="102"/>
      <point x="513" y="102" type="curve"/>
      <point x="430" y="102"/>
      <point x="376" y="142"/>
      <point x="376" y="222" type="curve"/>
      <point x="376" y="293"/>
      <point x="427" y="325"/>
      <point x="501" y="325" type="curve"/>
      <point x="578" y="325"/>
      <point x="629" y="289"/>
      <point x="629" y="216" type="curve"/>
      <point x="629" y="104"/>
      <point x="688" y="32"/>
      <point x="797" y="32" type="curve"/>
      <point x="912" y="32"/>
      <point x="975" y="104"/>
      <point x="975" y="221" type="curve"/>
      <point x="975" y="461"/>
      <point x="789" y="564"/>
      <point x="529" y="564" type="curve"/>
      <point x="249" y="564"/>
      <point x="46" y="466"/>
      <point x="46" y="211" type="curve"/>
      <point x="46" y="-40"/>
      <point x="247" y="-139"/>
      <point x="524" y="-139" type="curve"/>
      <point x="615" y="-139"/>
      <point x="685" y="-123"/>
      <point x="754" y="-94" type="curve"/>
      <point x="716" y="-24"/>
      <point x="754" y="-94"/>
    </contour>
  </outline>
</glyph>
<glyph name="A" format="1">
  <advance width="849"/>
  <unicode hex="0041"/>
  <outline>
    <contour>
      <point x="636" y="301" type="curve"/>
      <point x="499" y="301"/>
      <point x="361" y="301"/>
      <point x="224" y="301" type="curve"/>
      <point x="179" y="214"/>
      <point x="224" y="301"/>
      <point x="179" y="214" type="curve"/>
      <point x="343" y="214"/>
      <point x="507" y="214"/>
      <point x="671" y="214" type="curve"/>
      <point x="636" y="301"/>
      <point x="671" y="214"/>
    </contour>
    <contour>
      <point x="835" y="0" type="curve"/>
      <point x="721" y="242"/>
      <point x="603" y="480"/>
      <point x="489" y="722" type="curve"/>
      <point x="388" y="722"/>
      <point x="489" y="722"/>
      <point x="388" y="722" type="curve"/>
      <point x="500" y="482"/>
      <point x="607" y="240"/>
      <point x="719" y="0" type="curve"/>
      <point x="835" y="0"/>
      <point x="719" y="0"/>
    </contour>
    <contour>
      <point x="119" y="0" type="curve"/>
      <point x="244" y="240"/>
      <point x="362" y="482"/>
      <point x="487" y="722" type="curve"/>
      <point x="386" y="722"/>
      <point x="487" y="722"/>
      <point x="386" y="722" type="curve"/>
      <point x="259" y="480"/>
      <point x="125" y="242"/>
      <point x="-2" y="0" type="curve"/>
      <point x="119" y="0"/>
      <point x="-2" y="0"/>
    </contour>
    <contour>
      <point x="437" y="796" type="move" name="top"/>
    </contour>
    <contour>
      <point x="797" y="4" type="move" name="bottom"/>
    </contour>
  </outline>
</glyph>
<glyph name="B" format="1">
  <advance width="747"/>
  <unicode hex="0042"/>
  <outline>
    <contour>
      <point x="132" y="639" type="curve"/>
      <point x="222" y="639"/>
      <point x="311" y="639"/>
      <point x="401" y="639" type="curve"/>
      <point x="476" y="639"/>
      <point x="534" y="609"/>
      <point x="534" y="538" type="curve"/>
      <point x="534" y="465"/>
      <point x="452" y="447"/>
      <point x="370" y="447" type="curve"/>
      <point x="290" y="447"/>
      <point x="212" y="447"/>
      <point x="132" y="447" type="curve"/>
      <point x="132" y="369"/>
      <point x="132" y="442"/>
      <point x="132" y="364" type="curve"/>
      <point x="193" y="364"/>
      <point x="254" y="364"/>
      <point x="317" y="364" type="curve"/>
      <point x="451" y="364"/>
      <point x="644" y="392"/>
      <point x="644" y="538" type="curve"/>
      <point x="644" y="667"/>
      <point x="542" y="722"/>
      <point x="402" y="722" type="curve"/>
      <point x="311" y="722"/>
      <point x="222" y="722"/>
      <point x="132" y="722" type="curve"/>
      <point x="132" y="644"/>
      <point x="132" y="717"/>
    </contour>
    <contour>
      <point x="203" y="0" type="curve"/>
      <point x="203" y="241"/>
      <point x="203" y="481"/>
      <point x="203" y="722" type="curve"/>
      <point x="87" y="722"/>
      <point x="203" y="722"/>
      <point x="87" y="722" type="curve"/>
      <point x="87" y="481"/>
      <point x="87" y="241"/>
      <point x="87" y="0" type="curve"/>
      <point x="203" y="0"/>
      <point x="87" y="0"/>
    </contour>
    <contour>
      <point x="132" y="364" type="curve"/>
      <point x="212" y="364"/>
      <point x="290" y="364"/>
      <point x="370" y="364" type="curve"/>
      <point x="491" y="364"/>
      <point x="592" y="330"/>
      <point x="592" y="218" type="curve"/>
      <point x="592" y="118"/>
      <point x="511" y="83"/>
      <point x="399" y="83" type="curve"/>
      <point x="309" y="83"/>
      <point x="221" y="83"/>
      <point x="132" y="83" type="curve"/>
      <point x="132" y="5"/>
      <point x="132" y="78"/>
      <point x="132" y="0" type="curve"/>
      <point x="221" y="0"/>
      <point x="309" y="0"/>
      <point x="400" y="0" type="curve"/>
      <point x="576" y="0"/>
      <point x="704" y="60"/>
      <point x="704" y="218" type="curve"/>
      <point x="704" y="404"/>
      <point x="489" y="447"/>
      <point x="317" y="447" type="curve"/>
      <point x="254" y="447"/>
      <point x="193" y="447"/>
      <point x="132" y="447" type="curve"/>
      <point x="132" y="369"/>
      <point x="132" y="442"/>
    </contour>
  </outline>
</glyph>
<glyph name="D" format="1">
  <advance width="883"/>
  <unicode hex="0044"/>
  <outline>
    <contour>
      <point x="87" y="722" type="curve"/>
      <point x="87" y="481"/>
      <point x="87" y="241"/>
      <point x="87" y="0" type="curve"/>
      <point x="198" y="0"/>
      <point x="87" y="0"/>
      <point x="198" y="0" type="curve"/>
      <point x="198" y="241"/>
      <point x="198" y="481"/>
      <point x="198" y="722" type="curve"/>
      <point x="87" y="722"/>
      <point x="198" y="722"/>
    </contour>
    <contour>
      <point x="145" y="0" type="curve"/>
      <point x="227" y="0"/>
      <point x="309" y="0"/>
      <point x="392" y="0" type="curve"/>
      <point x="662" y="0"/>
      <point x="834" y="101"/>
      <point x="834" y="353" type="curve"/>
      <point x="834" y="614"/>
      <point x="660" y="722"/>
      <point x="382" y="722" type="curve"/>
      <point x="302" y="722"/>
      <point x="224" y="722"/>
      <point x="145" y="722" type="curve"/>
      <point x="145" y="640"/>
      <point x="145" y="722"/>
      <point x="145" y="639" type="curve"/>
      <point x="222" y="639"/>
      <point x="299" y="639"/>
      <point x="376" y="639" type="curve"/>
      <point x="591" y="639"/>
      <point x="724" y="552"/>
      <point x="724" y="350" type="curve"/>
      <point x="724" y="163"/>
      <point x="600" y="83"/>
      <point x="401" y="83" type="curve"/>
      <point x="315" y="83"/>
      <point x="231" y="83"/>
      <point x="145" y="83" type="curve"/>
      <point x="145" y="0"/>
      <point x="145" y="82"/>
    </contour>
    <contour>
      <point x="369" y="796" type="move" name="top"/>
    </contour>
  </outline>
</glyph>
<glyph name="E" format="1">
  <advance width="707"/>
  <unicode hex="0045"/>
  <outline>
    <contour>
      <point x="149" y="332" type="curve"/>
      <point x="286" y="332"/>
      <point x="424" y="332"/>
      <point x="562" y="332" type="curve"/>
      <point x="562" y="414"/>
      <point x="562" y="332"/>
      <point x="562" y="414" type="curve"/>
      <point x="424" y="414"/>
      <point x="286" y="414"/>
      <point x="149" y="414" type="curve"/>
      <point x="149" y="332"/>
      <point x="149" y="414"/>
    </contour>
    <contour>
      <point x="130" y="639" type="curve"/>
      <point x="300" y="639"/>
      <point x="471" y="639"/>
      <point x="641" y="639" type="curve"/>
      <point x="641" y="722"/>
      <point x="641" y="639"/>
      <point x="641" y="722" type="curve"/>
      <point x="471" y="722"/>
      <point x="300" y="722"/>
      <point x="130" y="722" type="curve"/>
      <point x="130" y="639"/>
      <point x="130" y="722"/>
    </contour>
    <contour>
      <point x="198" y="0" type="curve"/>
      <point x="198" y="722" type="line"/>
      <point x="87" y="722"/>
      <point x="198" y="722"/>
      <point x="87" y="722" type="curve"/>
      <point x="87" y="481"/>
      <point x="87" y="241"/>
      <point x="87" y="0" type="curve"/>
      <point x="198" y="0"/>
      <point x="87" y="0"/>
    </contour>
    <contour>
      <point x="130" y="0" type="curve"/>
      <point x="314" y="0"/>
      <point x="499" y="0"/>
      <point x="684" y="0" type="curve"/>
      <point x="684" y="83"/>
      <point x="684" y="0"/>
      <point x="684" y="83" type="curve"/>
      <point x="499" y="83"/>
      <point x="314" y="83"/>
      <point x="130" y="83" type="curve"/>
      <point x="130" y="0"/>
      <point x="130" y="83"/>
    </contour>
    <contour>
      <point x="334" y="796" type="move" name="top"/>
    </contour>
    <contour>
      <point x="630" y="11" type="move" name="bottom"/>
    </contour>
  </outline>
</glyph>
<glyph name="F" format="1">
  <advance width="667"/>
  <unicode hex="0046"/>
  <outline>
    <contour>
      <point x="148" y="332" type="curve"/>
      <point x="283" y="332"/>
      <point x="419" y="332"/>
      <point x="554" y="332" type="curve"/>
      <point x="554" y="414"/>
      <point x="554" y="332"/>
      <point x="554" y="414" type="curve"/>
      <point x="419" y="414"/>
      <point x="283" y="414"/>
      <point x="148" y="414" type="curve"/>
      <point x="148" y="332"/>
      <point x="148" y="414"/>
    </contour>
    <contour>
      <point x="199" y="0" type="curve"/>
      <point x="199" y="722" type="line"/>
      <point x="88" y="722"/>
      <point x="199" y="722"/>
      <point x="88" y="722" type="curve"/>
      <point x="88" y="481"/>
      <point x="88" y="241"/>
      <point x="88" y="0" type="curve"/>
      <point x="199" y="0"/>
      <point x="88" y="0"/>
    </contour>
    <contour>
      <point x="129" y="639" type="curve"/>
      <point x="301" y="639"/>
      <point x="473" y="639"/>
      <point x="646" y="639" type="curve"/>
      <point x="646" y="722"/>
      <point x="646" y="639"/>
      <point x="646" y="722" type="curve"/>
      <point x="473" y="722"/>
      <point x="301" y="722"/>
      <point x="129" y="722" type="curve"/>
      <point x="129" y="639"/>
      <point x="129" y="722"/>
    </contour>
  </outline>
</glyph>
<glyph name="H" format="1">
  <advance width="920"/>
  <unicode hex="0048"/>
  <outline>
    <contour>
      <point x="198" y="0" type="curve"/>
      <point x="198" y="722" type="line"/>
      <point x="87" y="722"/>
      <point x="198" y="722"/>
      <point x="87" y="722" type="curve"/>
      <point x="87" y="481"/>
      <point x="87" y="241"/>
      <point x="87" y="0" type="curve"/>
      <point x="198" y="0"/>
      <point x="87" y="0"/>
    </contour>
    <contour>
      <point x="775" y="404" type="curve"/>
      <point x="564" y="404"/>
      <point x="353" y="404"/>
      <point x="142" y="404" type="curve"/>
      <point x="142" y="321"/>
      <point x="142" y="404"/>
      <point x="142" y="321" type="curve"/>
      <point x="353" y="321"/>
      <point x="564" y="321"/>
      <point x="775" y="321" type="curve"/>
      <point x="775" y="404"/>
      <point x="775" y="321"/>
    </contour>
    <contour>
      <point x="833" y="0" type="curve"/>
      <point x="833" y="219"/>
      <point x="833" y="503"/>
      <point x="833" y="722" type="curve"/>
      <point x="722" y="722"/>
      <point x="833" y="722"/>
      <point x="722" y="722" type="curve"/>
      <point x="722" y="0" type="line"/>
      <point x="833" y="0"/>
      <point x="722" y="0"/>
    </contour>
  </outline>
</glyph>
<glyph name="I" format="1">
  <advance width="285"/>
  <unicode hex="0049"/>
  <outline>
    <contour>
      <point x="198" y="0" type="curve"/>
      <point x="198" y="241"/>
      <point x="198" y="481"/>
      <point x="198" y="722" type="curve"/>
      <point x="87" y="722"/>
      <point x="198" y="722"/>
      <point x="87" y="722" type="curve"/>
      <point x="87" y="481"/>
      <point x="87" y="241"/>
      <point x="87" y="0" type="curve"/>
      <point x="198" y="0"/>
      <point x="87" y="0"/>
    </contour>
    <contour>
      <point x="143" y="796" type="move" name="top"/>
    </contour>
    <contour>
      <point x="197" y="0" type="move" name="bottom"/>
    </contour>
  </outline>
</glyph>
<glyph name="J" format="1">
  <advance width="525"/>
  <unicode hex="004A"/>
  <outline>
    <contour>
      <point x="4" y="44" type="curve"/>
      <point x="45" y="22"/>
      <point x="102" y="-3"/>
      <point x="171" y="-3" type="curve"/>
      <point x="338" y="-3"/>
      <point x="444" y="74"/>
      <point x="444" y="237" type="curve"/>
      <point x="444" y="398"/>
      <point x="444" y="560"/>
      <point x="444" y="722" type="curve"/>
      <point x="334" y="722"/>
      <point x="444" y="722"/>
      <point x="333" y="722" type="curve"/>
      <point x="333" y="560"/>
      <point x="333" y="398"/>
      <point x="333" y="237" type="curve"/>
      <point x="333" y="136"/>
      <point x="273" y="79"/>
      <point x="171" y="79" type="curve"/>
      <point x="125" y="79"/>
      <point x="94" y="92"/>
      <point x="55" y="110" type="curve"/>
      <point x="5" y="45"/>
      <point x="55" y="109"/>
    </contour>
  </outline>
</glyph>
<glyph name="K" format="1">
  <advance width="759"/>
  <unicode hex="004B"/>
  <outline>
    <contour>
      <point x="570" y="722" type="curve"/>
      <point x="159" y="380" type="line"/>
      <point x="301" y="380"/>
      <point x="158" y="380"/>
      <point x="300" y="380" type="curve"/>
      <point x="719" y="722" type="line"/>
      <point x="560" y="722"/>
      <point x="729" y="722"/>
    </contour>
    <contour>
      <point x="198" y="0" type="curve"/>
      <point x="198" y="722" type="line"/>
      <point x="87" y="722"/>
      <point x="198" y="722"/>
      <point x="87" y="722" type="curve"/>
      <point x="87" y="481"/>
      <point x="87" y="241"/>
      <point x="87" y="0" type="curve"/>
      <point x="198" y="0"/>
      <point x="87" y="0"/>
    </contour>
    <contour>
      <point x="752" y="0" type="curve"/>
      <point x="300" y="380" type="line"/>
      <point x="158" y="380"/>
      <point x="301" y="380"/>
      <point x="159" y="380" type="curve"/>
      <point x="597" y="0" type="line"/>
      <point x="763" y="0"/>
      <point x="586" y="0"/>
    </contour>
    <contour>
      <point x="434" y="1" type="move" name="bottom"/>
    </contour>
  </outline>
</glyph>
<glyph name="L" format="1">
  <advance width="683"/>
  <unicode hex="004C"/>
  <outline>
    <contour>
      <point x="198" y="0" type="curve"/>
      <point x="198" y="241"/>
      <point x="198" y="481"/>
      <point x="198" y="722" type="curve"/>
      <point x="87" y="722"/>
      <point x="198" y="722"/>
      <point x="87" y="722" type="curve"/>
      <point x="87" y="481"/>
      <point x="87" y="241"/>
      <point x="87" y="0" type="curve"/>
      <point x="198" y="0"/>
      <point x="87" y="0"/>
    </contour>
    <contour>
      <point x="141" y="0" type="curve"/>
      <point x="318" y="0"/>
      <point x="495" y="0"/>
      <point x="672" y="0" type="curve"/>
      <point x="672" y="83"/>
      <point x="672" y="0"/>
      <point x="672" y="83" type="curve"/>
      <point x="495" y="83"/>
      <point x="318" y="83"/>
      <point x="141" y="83" type="curve"/>
      <point x="141" y="0"/>
      <point x="141" y="83"/>
    </contour>
    <contour>
      <point x="142" y="796" type="move" name="top"/>
    </contour>
    <contour>
      <point x="369" y="3" type="move" name="bottom"/>
    </contour>
  </outline>
</glyph>
<glyph name="M" format="1">
  <advance width="1098"/>
  <unicode hex="004D"/>
  <outline>
    <contour>
      <point x="1039" y="0" type="curve"/>
      <point x="1013" y="241"/>
      <point x="983" y="481"/>
      <point x="958" y="722" type="curve"/>
      <point x="857" y="722"/>
      <point x="958" y="722"/>
      <point x="857" y="722" type="curve"/>
      <point x="882" y="482"/>
      <point x="903" y="240"/>
      <point x="928" y="0" type="curve"/>
      <point x="1039" y="0"/>
      <point x="928" y="0"/>
    </contour>
    <contour>
      <point x="170" y="0" type="curve"/>
      <point x="195" y="241"/>
      <point x="218" y="481"/>
      <point x="242" y="722" type="curve"/>
      <point x="135" y="722"/>
      <point x="242" y="722"/>
      <point x="135" y="722" type="curve"/>
      <point x="110" y="481"/>
      <point x="86" y="241"/>
      <point x="61" y="0" type="curve"/>
      <point x="170" y="0"/>
      <point x="61" y="0"/>
    </contour>
    <contour>
      <point x="600" y="0" type="curve"/>
      <point x="483" y="241"/>
      <point x="365" y="481"/>
      <point x="246" y="722" type="curve"/>
      <point x="138" y="722"/>
      <point x="245" y="722"/>
      <point x="137" y="722" type="curve"/>
      <point x="255" y="481"/>
      <point x="373" y="241"/>
      <point x="490" y="0" type="curve"/>
      <point x="600" y="0"/>
      <point x="491" y="0"/>
    </contour>
    <contour>
      <point x="611" y="0" type="curve"/>
      <point x="726" y="241"/>
      <point x="842" y="481"/>
      <point x="958" y="722" type="curve"/>
      <point x="850" y="722"/>
      <point x="957" y="722"/>
      <point x="849" y="722" type="curve"/>
      <point x="732" y="481"/>
      <point x="616" y="241"/>
      <point x="500" y="0" type="curve"/>
      <point x="610" y="0"/>
      <point x="500" y="0"/>
    </contour>
  </outline>
</glyph>
<glyph name="O" format="1">
  <advance width="925"/>
  <unicode hex="004F"/>
  <outline>
    <contour>
      <point x="160" y="360" type="curve" name="FullCurve"/>
      <point x="160" y="536"/>
      <point x="275" y="640"/>
      <point x="458" y="640" type="curve" name="FullCurve"/>
      <point x="643" y="640"/>
      <point x="765" y="540"/>
      <point x="765" y="363" type="curve" name="FullCurve"/>
      <point x="765" y="187"/>
      <point x="649" y="83"/>
      <point x="466" y="83" type="curve" name="FullCurve"/>
      <point x="280" y="83"/>
      <point x="160" y="183"/>
      <point x="160" y="360" type="curve" name="FullCurve"/>
      <point x="49" y="360"/>
      <point x="160" y="360"/>
      <point x="49" y="360" type="curve" name="FullCurve"/>
      <point x="49" y="125"/>
      <point x="215" y="-5"/>
      <point x="461" y="-5" type="curve" name="FullCurve"/>
      <point x="709" y="-5"/>
      <point x="876" y="126"/>
      <point x="876" y="363" type="curve" name="FullCurve"/>
      <point x="876" y="597"/>
      <point x="711" y="727"/>
      <point x="466" y="727" type="curve" name="FullCurve"/>
      <point x="217" y="727"/>
      <point x="49" y="597"/>
      <point x="49" y="360" type="curve" name="FullCurve"/>
      <point x="160" y="360"/>
      <point x="49" y="360"/>
    </contour>
    <contour>
      <point x="465" y="796" type="move" name="top"/>
    </contour>
  </outline>
</glyph>
<glyph name="P" format="1">
  <advance width="690"/>
  <unicode hex="0050"/>
  <outline>
    <contour>
      <point x="128" y="302" type="curve"/>
      <point x="198" y="275"/>
      <point x="278" y="256"/>
      <point x="354" y="256" type="curve"/>
      <point x="530" y="259"/>
      <point x="655" y="324"/>
      <point x="655" y="486" type="curve"/>
      <point x="655" y="653"/>
      <point x="502" y="722"/>
      <point x="314" y="722" type="curve"/>
      <point x="258" y="722"/>
      <point x="203" y="722"/>
      <point x="147" y="722" type="curve"/>
      <point x="147" y="639"/>
      <point x="147" y="722"/>
      <point x="147" y="639" type="curve"/>
      <point x="198" y="639"/>
      <point x="249" y="639"/>
      <point x="299" y="639" type="curve"/>
      <point x="433" y="639"/>
      <point x="544" y="601"/>
      <point x="544" y="488" type="curve"/>
      <point x="544" y="382"/>
      <point x="455" y="339"/>
      <point x="345" y="339" type="curve"/>
      <point x="276" y="339"/>
      <point x="227" y="351"/>
      <point x="163" y="375" type="curve"/>
      <point x="128" y="302"/>
      <point x="163" y="375"/>
    </contour>
    <contour>
      <point x="198" y="0" type="curve"/>
      <point x="198" y="241"/>
      <point x="198" y="481"/>
      <point x="198" y="722" type="curve"/>
      <point x="87" y="722"/>
      <point x="198" y="722"/>
      <point x="87" y="722" type="curve"/>
      <point x="87" y="481"/>
      <point x="87" y="241"/>
      <point x="87" y="0" type="curve"/>
      <point x="198" y="0"/>
      <point x="87" y="0"/>
    </contour>
  </outline>
</glyph>
<glyph name="Q" format="1">
  <advance width="1006"/>
  <unicode hex="0051"/>
  <outline>
    <contour>
      <point x="427" y="19" type="curve"/>
      <point x="576" y="-178"/>
      <point x="734" y="-220"/>
      <point x="968" y="-220" type="curve"/>
      <point x="968" y="-134"/>
      <point x="968" y="-220"/>
      <point x="968" y="-134" type="curve"/>
      <point x="776" y="-134"/>
      <point x="646" y="-102"/>
      <point x="522" y="61" type="curve"/>
      <point x="427" y="19"/>
      <point x="522" y="61"/>
    </contour>
    <contour>
      <point x="160" y="360" type="curve"/>
      <point x="160" y="536"/>
      <point x="284" y="638"/>
      <point x="463" y="638" type="curve"/>
      <point x="645" y="638"/>
      <point x="768" y="538"/>
      <point x="768" y="361" type="curve"/>
      <point x="768" y="185"/>
      <point x="647" y="82"/>
      <point x="468" y="82" type="curve"/>
      <point x="285" y="82"/>
      <point x="160" y="182"/>
      <point x="160" y="360" type="curve"/>
      <point x="49" y="360"/>
      <point x="160" y="360"/>
      <point x="49" y="360" type="curve"/>
      <point x="49" y="125"/>
      <point x="221" y="-5"/>
      <point x="463" y="-5" type="curve"/>
      <point x="708" y="-5"/>
      <point x="878" y="128"/>
      <point x="878" y="365" type="curve"/>
      <point x="878" y="600"/>
      <point x="710" y="730"/>
      <point x="468" y="730" type="curve"/>
      <point x="222" y="730"/>
      <point x="49" y="598"/>
      <point x="49" y="360" type="curve"/>
      <point x="160" y="360"/>
      <point x="49" y="360"/>
    </contour>
  </outline>
</glyph>
<glyph name="R" format="1">
  <advance width="776"/>
  <unicode hex="0052"/>
  <outline>
    <contour>
      <point x="334" y="354" type="curve"/>
      <point x="405" y="274"/>
      <point x="570" y="80"/>
      <point x="641" y="0" type="curve"/>
      <point x="755" y="0"/>
      <point x="660" y="0"/>
      <point x="774" y="0" type="curve"/>
      <point x="710" y="73"/>
      <point x="534" y="281"/>
      <point x="469" y="354" type="curve"/>
      <point x="335" y="354"/>
      <point x="468" y="354"/>
    </contour>
    <contour>
      <point x="198" y="0" type="curve"/>
      <point x="198" y="241"/>
      <point x="198" y="481"/>
      <point x="198" y="722" type="curve"/>
      <point x="87" y="722"/>
      <point x="198" y="722"/>
      <point x="87" y="722" type="curve"/>
      <point x="87" y="481"/>
      <point x="87" y="241"/>
      <point x="87" y="0" type="curve"/>
      <point x="198" y="0"/>
      <point x="87" y="0"/>
    </contour>
    <contour>
      <point x="145" y="311" type="curve"/>
      <point x="215" y="311"/>
      <point x="285" y="311"/>
      <point x="355" y="311" type="curve"/>
      <point x="538" y="311"/>
      <point x="675" y="362"/>
      <point x="675" y="525" type="curve"/>
      <point x="675" y="677"/>
      <point x="546" y="722"/>
      <point x="376" y="722" type="curve"/>
      <point x="299" y="722"/>
      <point x="222" y="722"/>
      <point x="145" y="722" type="curve"/>
      <point x="145" y="639"/>
      <point x="145" y="722"/>
      <point x="145" y="639" type="curve"/>
      <point x="215" y="639"/>
      <point x="285" y="639"/>
      <point x="356" y="639" type="curve"/>
      <point x="473" y="639"/>
      <point x="564" y="618"/>
      <point x="564" y="516" type="curve"/>
      <point x="564" y="419"/>
      <point x="478" y="393"/>
      <point x="368" y="393" type="curve"/>
      <point x="293" y="393"/>
      <point x="219" y="393"/>
      <point x="145" y="393" type="curve"/>
      <point x="145" y="311"/>
      <point x="145" y="393"/>
    </contour>
    <contour>
      <point x="326" y="796" type="move" name="top"/>
    </contour>
    <contour>
      <point x="413" y="0" type="move" name="bottom"/>
    </contour>
  </outline>
</glyph>
<glyph name="T" format="1">
  <advance width="803"/>
  <unicode hex="0054"/>
  <outline>
    <contour>
      <point x="457" y="0" type="curve"/>
      <point x="457" y="237"/>
      <point x="457" y="473"/>
      <point x="457" y="710" type="curve"/>
      <point x="347" y="710"/>
      <point x="457" y="710"/>
      <point x="347" y="710" type="curve"/>
      <point x="347" y="473"/>
      <point x="347" y="237"/>
      <point x="347" y="0" type="curve"/>
      <point x="457" y="0"/>
      <point x="347" y="0"/>
    </contour>
    <contour>
      <point x="11" y="634" type="curve"/>
      <point x="271" y="634"/>
      <point x="532" y="634"/>
      <point x="792" y="634" type="curve"/>
      <point x="792" y="725"/>
      <point x="792" y="631"/>
      <point x="792" y="722" type="curve"/>
      <point x="532" y="722"/>
      <point x="271" y="722"/>
      <point x="11" y="722" type="curve"/>
      <point x="11" y="631"/>
      <point x="11" y="725"/>
    </contour>
    <contour>
      <point x="398" y="796" type="move" name="top"/>
    </contour>
    <contour>
      <point x="433" y="1" type="move" name="bottom"/>
    </contour>
  </outline>
</glyph>
<glyph name="V" format="1">
  <advance width="843"/>
  <unicode hex="0056"/>
  <outline>
    <contour>
      <point x="720" y="722" type="curve"/>
      <point x="603" y="481"/>
      <point x="487" y="241"/>
      <point x="371" y="0" type="curve"/>
      <point x="485" y="0"/>
      <point x="370" y="0"/>
      <point x="484" y="0" type="curve"/>
      <point x="600" y="241"/>
      <point x="717" y="481"/>
      <point x="834" y="722" type="curve"/>
      <point x="720" y="722"/>
      <point x="834" y="722"/>
    </contour>
    <contour>
      <point x="7" y="722" type="curve"/>
      <point x="126" y="481"/>
      <point x="244" y="241"/>
      <point x="363" y="0" type="curve"/>
      <point x="476" y="0"/>
      <point x="362" y="0"/>
      <point x="476" y="0" type="curve"/>
      <point x="358" y="241"/>
      <point x="240" y="481"/>
      <point x="122" y="722" type="curve"/>
      <point x="8" y="722"/>
      <point x="122" y="722"/>
    </contour>
  </outline>
</glyph>
<glyph name="W" format="1">
  <advance width="1116"/>
  <unicode hex="0057"/>
  <outline>
    <contour>
      <point x="365" y="0" type="curve"/>
      <point x="449" y="241"/>
      <point x="530" y="481"/>
      <point x="614" y="722" type="curve"/>
      <point x="505" y="722"/>
      <point x="617" y="722"/>
      <point x="508" y="722" type="curve"/>
      <point x="429" y="480"/>
      <point x="349" y="241"/>
      <point x="269" y="0" type="curve"/>
      <point x="372" y="0"/>
      <point x="261" y="0"/>
    </contour>
    <contour>
      <point x="522" y="722" type="curve"/>
      <point x="598" y="481"/>
      <point x="669" y="241"/>
      <point x="744" y="0" type="curve"/>
      <point x="848" y="0"/>
      <point x="736" y="0"/>
      <point x="840" y="0" type="curve"/>
      <point x="770" y="241"/>
      <point x="700" y="480"/>
      <point x="626" y="722" type="curve"/>
      <point x="517" y="722"/>
      <point x="631" y="722"/>
    </contour>
    <contour>
      <point x="25" y="722" type="curve"/>
      <point x="101" y="481"/>
      <point x="177" y="241"/>
      <point x="253" y="0" type="curve"/>
      <point x="357" y="0"/>
      <point x="250" y="0"/>
      <point x="354" y="0" type="curve"/>
      <point x="280" y="241"/>
      <point x="210" y="481"/>
      <point x="136" y="722" type="curve"/>
      <point x="25" y="722"/>
      <point x="136" y="722"/>
    </contour>
    <contour>
      <point x="984" y="722" type="curve"/>
      <point x="907" y="481"/>
      <point x="834" y="241"/>
      <point x="759" y="0" type="curve"/>
      <point x="863" y="0"/>
      <point x="752" y="0"/>
      <point x="856" y="0" type="curve"/>
      <point x="936" y="241"/>
      <point x="1015" y="481"/>
      <point x="1094" y="722" type="curve"/>
      <point x="984" y="722"/>
      <point x="1094" y="722"/>
    </contour>
  </outline>
</glyph>
<glyph name="X" format="1">
  <advance width="801"/>
  <unicode hex="0058"/>
  <outline>
    <contour>
      <point x="640" y="722" type="curve"/>
      <point x="439" y="490"/>
      <point x="206" y="232"/>
      <point x="5" y="0" type="curve"/>
      <point x="116" y="0"/>
      <point x="33" y="0"/>
      <point x="145" y="0" type="curve"/>
      <point x="346" y="232"/>
      <point x="570" y="490"/>
      <point x="771" y="721" type="curve"/>
      <point x="667" y="721"/>
      <point x="744" y="722"/>
    </contour>
    <contour>
      <point x="47" y="722" type="curve"/>
      <point x="246" y="490"/>
      <point x="463" y="232"/>
      <point x="662" y="0" type="curve"/>
      <point x="775" y="0"/>
      <point x="681" y="0"/>
      <point x="794" y="0" type="curve"/>
      <point x="592" y="235"/>
      <point x="372" y="487"/>
      <point x="170" y="722" type="curve"/>
      <point x="69" y="722"/>
      <point x="148" y="722"/>
    </contour>
  </outline>
</glyph>
<glyph name="Y" format="1">
  <advance width="753"/>
  <unicode hex="0059"/>
  <outline>
    <contour>
      <point x="14" y="722" type="curve"/>
      <point x="107" y="602"/>
      <point x="228" y="457"/>
      <point x="321" y="337" type="curve"/>
      <point x="433" y="337"/>
      <point x="319" y="338"/>
      <point x="432" y="338" type="curve"/>
      <point x="334" y="466"/>
      <point x="237" y="594"/>
      <point x="139" y="722" type="curve"/>
      <point x="45" y="722"/>
      <point x="109" y="722"/>
    </contour>
    <contour>
      <point x="632" y="722" type="curve"/>
      <point x="528" y="594"/>
      <point x="425" y="466"/>
      <point x="322" y="338" type="curve"/>
      <point x="435" y="338"/>
      <point x="321" y="337"/>
      <point x="434" y="337" type="curve"/>
      <point x="532" y="458"/>
      <point x="650" y="602"/>
      <point x="748" y="722" type="curve"/>
      <point x="653" y="722"/>
      <point x="727" y="722"/>
    </contour>
    <contour>
      <point x="438" y="0" type="curve"/>
      <point x="438" y="115"/>
      <point x="438" y="230"/>
      <point x="438" y="345" type="curve"/>
      <point x="317" y="345"/>
      <point x="438" y="345"/>
      <point x="317" y="345" type="curve"/>
      <point x="317" y="230"/>
      <point x="317" y="115"/>
      <point x="317" y="0" type="curve"/>
      <point x="438" y="0"/>
      <point x="317" y="0"/>
    </contour>
    <contour>
      <point x="381" y="796" type="move" name="top"/>
    </contour>
  </outline>
</glyph>
<glyph name="bracketleft" format="1">
  <advance width="344"/>
  <unicode hex="005B"/>
  <outline>
    <contour>
      <point x="309" y="770" type="curve"/>
      <point x="244" y="770"/>
      <point x="180" y="770"/>
      <point x="116" y="770" type="curve"/>
      <point x="103" y="770"/>
      <point x="83" y="770"/>
      <point x="70" y="770" type="curve"/>
      <point x="70" y="759"/>
      <point x="70" y="741"/>
      <point x="70" y="730" type="curve"/>
      <point x="70" y="460"/>
      <point x="70" y="191"/>
      <point x="70" y="-78" type="curve"/>
      <point x="70" y="-90"/>
      <point x="70" y="-105"/>
      <point x="70" y="-116" type="curve"/>
      <point x="81" y="-116"/>
      <point x="101" y="-116"/>
      <point x="115" y="-116" type="curve"/>
      <point x="179" y="-116"/>
      <point x="244" y="-116"/>
      <point x="309" y="-116" type="curve"/>
      <point x="309" y="-25"/>
      <point x="309" y="-116"/>
      <point x="309" y="-25" type="curve"/>
      <point x="244" y="-25"/>
      <point x="179" y="-25"/>
      <point x="115" y="-25" type="curve"/>
      <point x="180" y="-25"/>
      <point x="115" y="-25"/>
      <point x="180" y="-25" type="curve"/>
      <point x="180" y="-78"/>
      <point x="180" y="-25"/>
      <point x="180" y="-78" type="curve"/>
      <point x="180" y="191"/>
      <point x="180" y="460"/>
      <point x="180" y="730" type="curve"/>
      <point x="180" y="679"/>
      <point x="180" y="730"/>
      <point x="180" y="679" type="curve"/>
      <point x="116" y="679"/>
      <point x="180" y="679"/>
      <point x="116" y="679" type="curve"/>
      <point x="180" y="679"/>
      <point x="244" y="679"/>
      <point x="309" y="679" type="curve"/>
      <point x="309" y="770"/>
      <point x="309" y="679"/>
    </contour>
  </outline>
</glyph>
<glyph name="bracketright" format="1">
  <advance width="344"/>
  <unicode hex="005D"/>
  <outline>
    <contour>
      <point x="35" y="679" type="curve"/>
      <point x="100" y="679"/>
      <point x="163" y="679"/>
      <point x="228" y="679" type="curve"/>
      <point x="216" y="686"/>
      <point x="203" y="692"/>
      <point x="192" y="700" type="curve"/>
      <point x="181" y="708"/>
      <point x="174" y="721"/>
      <point x="164" y="730" type="curve"/>
      <point x="164" y="460"/>
      <point x="163" y="191"/>
      <point x="164" y="-78" type="curve"/>
      <point x="175" y="-69"/>
      <point x="184" y="-57"/>
      <point x="195" y="-48" type="curve"/>
      <point x="206" y="-40"/>
      <point x="218" y="-33"/>
      <point x="229" y="-25" type="curve"/>
      <point x="164" y="-25"/>
      <point x="100" y="-25"/>
      <point x="35" y="-25" type="curve"/>
      <point x="35" y="-116"/>
      <point x="35" y="-25"/>
      <point x="35" y="-116" type="curve"/>
      <point x="100" y="-116"/>
      <point x="164" y="-116"/>
      <point x="229" y="-116" type="curve"/>
      <point x="275" y="-116"/>
      <point x="229" y="-116"/>
      <point x="275" y="-116" type="curve"/>
      <point x="275" y="-78"/>
      <point x="275" y="-116"/>
      <point x="275" y="-78" type="curve"/>
      <point x="275" y="191"/>
      <point x="275" y="460"/>
      <point x="275" y="730" type="curve"/>
      <point x="275" y="770"/>
      <point x="275" y="730"/>
      <point x="275" y="770" type="curve"/>
      <point x="228" y="770"/>
      <point x="275" y="770"/>
      <point x="228" y="770" type="curve"/>
      <point x="163" y="770"/>
      <point x="100" y="770"/>
      <point x="35" y="770" type="curve"/>
      <point x="35" y="679"/>
      <point x="35" y="770"/>
    </contour>
  </outline>
</glyph>
<glyph name="asciicircum" format="1">
  <advance width="632"/>
  <unicode hex="005E"/>
  <outline>
    <contour>
      <point x="151" y="457" type="curve"/>
      <point x="224" y="562"/>
      <point x="297" y="666"/>
      <point x="370" y="771" type="curve"/>
      <point x="260" y="771"/>
      <point x="369" y="771"/>
      <point x="259" y="771" type="curve"/>
      <point x="186" y="666"/>
      <point x="113" y="562"/>
      <point x="40" y="457" type="curve"/>
      <point x="150" y="457"/>
      <point x="41" y="457"/>
    </contour>
    <contour>
      <point x="592" y="457" type="curve"/>
      <point x="520" y="560"/>
      <point x="444" y="668"/>
      <point x="371" y="771" type="curve"/>
      <point x="260" y="771"/>
      <point x="370" y="771"/>
      <point x="260" y="771" type="curve"/>
      <point x="332" y="668"/>
      <point x="408" y="560"/>
      <point x="481" y="457" type="curve"/>
      <point x="591" y="457"/>
      <point x="482" y="457"/>
    </contour>
  </outline>
</glyph>
<glyph name="grave" format="1">
  <advance width="428"/>
  <unicode hex="0060"/>
  <outline>
    <contour>
      <point x="352" y="556" type="line"/>
      <point x="198" y="722" type="line"/>
      <point x="52" y="722" type="line"/>
      <point x="238" y="556" type="line"/>
    </contour>
    <contour>
      <point x="287" y="557" type="move" name="_top"/>
    </contour>
  </outline>
</glyph>
<glyph name="b" format="1">
  <advance width="752"/>
  <unicode hex="0062"/>
  <outline>
    <contour>
      <point x="151" y="344" type="curve"/>
      <point x="209" y="406"/>
      <point x="285" y="452"/>
      <point x="391" y="452" type="curve"/>
      <point x="513" y="452"/>
      <point x="596" y="384"/>
      <point x="596" y="263" type="curve"/>
      <point x="598" y="146"/>
      <point x="512" y="80"/>
      <point x="391" y="81" type="curve"/>
      <point x="294" y="81"/>
      <point x="220" y="116"/>
      <point x="161" y="173" type="curve"/>
      <point x="129" y="151"/>
      <point x="126" y="150"/>
      <point x="95" y="127" type="curve"/>
      <point x="185" y="44"/>
      <point x="275" y="-5"/>
      <point x="411" y="-5" type="curve"/>
      <point x="588" y="-5"/>
      <point x="709" y="89"/>
      <point x="708" y="264" type="curve"/>
      <point x="708" y="442"/>
      <point x="587" y="539"/>
      <point x="409" y="539" type="curve"/>
      <point x="275" y="539"/>
      <point x="183" y="485"/>
      <point x="102" y="404" type="curve"/>
      <point x="128" y="377"/>
      <point x="126" y="371"/>
    </contour>
    <contour>
      <point x="184" y="0" type="curve"/>
      <point x="184" y="291"/>
      <point x="184" y="509"/>
      <point x="184" y="800" type="curve"/>
      <point x="130" y="800"/>
      <point x="127" y="800"/>
      <point x="73" y="800" type="curve"/>
      <point x="73" y="509"/>
      <point x="73" y="291"/>
      <point x="73" y="0" type="curve"/>
      <point x="127" y="0"/>
      <point x="130" y="0"/>
    </contour>
  </outline>
</glyph>
<glyph name="d" format="1">
  <advance width="749"/>
  <unicode hex="0064"/>
  <outline>
    <contour>
      <point x="639" y="417" type="curve"/>
      <point x="562" y="495"/>
      <point x="458" y="538"/>
      <point x="349" y="538" type="curve"/>
      <point x="172" y="538"/>
      <point x="44" y="446"/>
      <point x="44" y="263" type="curve"/>
      <point x="44" y="80"/>
      <point x="172" y="-5"/>
      <point x="351" y="-5" type="curve"/>
      <point x="479" y="-5"/>
      <point x="570" y="49"/>
      <point x="640" y="144" type="curve"/>
      <point x="589" y="189"/>
      <point x="635" y="144"/>
      <point x="583" y="189" type="curve"/>
      <point x="521" y="112"/>
      <point x="454" y="78"/>
      <point x="364" y="78" type="curve"/>
      <point x="244" y="78"/>
      <point x="154" y="140"/>
      <point x="154" y="267" type="curve"/>
      <point x="154" y="394"/>
      <point x="246" y="455"/>
      <point x="366" y="455" type="curve"/>
      <point x="451" y="455"/>
      <point x="536" y="418"/>
      <point x="590" y="359" type="curve"/>
      <point x="643" y="410"/>
      <point x="586" y="366"/>
    </contour>
    <contour>
      <point x="675" y="0" type="curve"/>
      <point x="675" y="267"/>
      <point x="675" y="533"/>
      <point x="675" y="800" type="curve"/>
      <point x="559" y="800"/>
      <point x="675" y="800"/>
      <point x="559" y="800" type="curve"/>
      <point x="559" y="533"/>
      <point x="559" y="267"/>
      <point x="559" y="0" type="curve"/>
      <point x="675" y="0"/>
      <point x="559" y="0"/>
    </contour>
  </outline>
</glyph>
<glyph name="f" format="1">
  <advance width="560"/>
  <unicode hex="0066"/>
  <outline>
    <contour>
      <point x="22" y="450" type="curve"/>
      <point x="531" y="450" type="line"/>
      <point x="531" y="533"/>
      <point x="531" y="450"/>
      <point x="531" y="533" type="curve"/>
      <point x="22" y="533" type="line"/>
      <point x="22" y="450"/>
      <point x="22" y="533"/>
    </contour>
    <contour>
      <point x="299" y="0" type="curve"/>
      <point x="299" y="616" type="line"/>
      <point x="299" y="684"/>
      <point x="346" y="723"/>
      <point x="417" y="723" type="curve"/>
      <point x="453" y="723"/>
      <point x="490" y="714"/>
      <point x="523" y="701" type="curve"/>
      <point x="568" y="767"/>
      <point x="523" y="701"/>
      <point x="568" y="767" type="curve"/>
      <point x="520" y="786"/>
      <point x="469" y="802"/>
      <point x="417" y="802" type="curve"/>
      <point x="284" y="802"/>
      <point x="187" y="740"/>
      <point x="188" y="616" type="curve"/>
      <point x="188" y="0" type="line"/>
      <point x="299" y="0"/>
      <point x="188" y="0"/>
    </contour>
  </outline>
</glyph>
<glyph name="g" format="1">
  <advance width="670"/>
  <unicode hex="0067"/>
  <outline>
    <contour>
      <point x="451" y="459" type="curve"/>
      <point x="656" y="534" type="line"/>
      <point x="655" y="535"/>
      <point x="613" y="617"/>
      <point x="613" y="618" type="curve"/>
      <point x="396" y="517" type="line"/>
      <point x="450" y="458"/>
      <point x="397" y="518"/>
    </contour>
    <contour>
      <point x="164" y="344" type="curve"/>
      <point x="164" y="423"/>
      <point x="240" y="456"/>
      <point x="330" y="456" type="curve"/>
      <point x="419" y="456"/>
      <point x="490" y="423"/>
      <point x="490" y="344" type="curve"/>
      <point x="490" y="269"/>
      <point x="418" y="239"/>
      <point x="330" y="239" type="curve"/>
      <point x="242" y="239"/>
      <point x="164" y="265"/>
      <point x="164" y="344" type="curve"/>
      <point x="53" y="340"/>
      <point x="164" y="344"/>
      <point x="53" y="340" type="curve"/>
      <point x="53" y="209"/>
      <point x="175" y="156"/>
      <point x="321" y="156" type="curve"/>
      <point x="474" y="156"/>
      <point x="601" y="211"/>
      <point x="601" y="347" type="curve"/>
      <point x="601" y="481"/>
      <point x="479" y="539"/>
      <point x="330" y="539" type="curve"/>
      <point x="177" y="539"/>
      <point x="53" y="477"/>
      <point x="53" y="340" type="curve"/>
      <point x="164" y="344"/>
      <point x="53" y="340"/>
    </contour>
    <contour>
      <point x="177" y="241" type="curve"/>
      <point x="111" y="215"/>
      <point x="58" y="181"/>
      <point x="58" y="112" type="curve"/>
      <point x="58" y="-4"/>
      <point x="182" y="-18"/>
      <point x="313" y="-27" type="curve"/>
      <point x="433" y="-34"/>
      <point x="559" y="-29"/>
      <point x="559" y="-126" type="curve"/>
      <point x="559" y="-211"/>
      <point x="446" y="-222"/>
      <point x="331" y="-222" type="curve"/>
      <point x="222" y="-222"/>
      <point x="120" y="-203"/>
      <point x="120" y="-112" type="curve"/>
      <point x="120" y="-44"/>
      <point x="168" y="-12"/>
      <point x="226" y="6" type="curve"/>
      <point x="171" y="55"/>
      <point x="226" y="6"/>
      <point x="171" y="55" type="curve"/>
      <point x="82" y="29"/>
      <point x="9" y="-17"/>
      <point x="9" y="-116" type="curve"/>
      <point x="9" y="-267"/>
      <point x="158" y="-304"/>
      <point x="326" y="-304" type="curve"/>
      <point x="501" y="-304"/>
      <point x="663" y="-277"/>
      <point x="660" y="-118" type="curve"/>
      <point x="660" y="37"/>
      <point x="499" y="42"/>
      <point x="333" y="52" type="curve"/>
      <point x="252" y="56"/>
      <point x="169" y="59"/>
      <point x="169" y="120" type="curve"/>
      <point x="169" y="157"/>
      <point x="194" y="176"/>
      <point x="228" y="191" type="curve"/>
      <point x="177" y="241"/>
      <point x="228" y="191"/>
    </contour>
    <contour>
      <point x="322" y="632" type="move" name="top"/>
    </contour>
  </outline>
</glyph>
<glyph name="h" format="1">
  <advance width="720"/>
  <unicode hex="0068"/>
  <outline>
    <contour>
      <point x="159" y="300" type="curve"/>
      <point x="199" y="397"/>
      <point x="290" y="455"/>
      <point x="386" y="455" type="curve"/>
      <point x="481" y="455"/>
      <point x="542" y="402"/>
      <point x="542" y="310" type="curve"/>
      <point x="542" y="204"/>
      <point x="542" y="106"/>
      <point x="542" y="0" type="curve"/>
      <point x="653" y="0"/>
      <point x="542" y="0"/>
      <point x="653" y="0" type="curve"/>
      <point x="653" y="109"/>
      <point x="653" y="218"/>
      <point x="653" y="327" type="curve"/>
      <point x="653" y="473"/>
      <point x="557" y="538"/>
      <point x="404" y="538" type="curve"/>
      <point x="276" y="538"/>
      <point x="161" y="467"/>
      <point x="106" y="339" type="curve"/>
      <point x="161" y="297"/>
      <point x="104" y="341"/>
    </contour>
    <contour>
      <point x="184" y="0" type="curve"/>
      <point x="184" y="267"/>
      <point x="184" y="533"/>
      <point x="184" y="800" type="curve"/>
      <point x="73" y="800"/>
      <point x="184" y="800"/>
      <point x="73" y="800" type="curve"/>
      <point x="73" y="533"/>
      <point x="73" y="267"/>
      <point x="73" y="0" type="curve"/>
      <point x="184" y="0"/>
      <point x="73" y="0"/>
    </contour>
  </outline>
</glyph>
<glyph name="i" format="1">
  <advance width="267"/>
  <unicode hex="0069"/>
  <outline>
    <contour>
      <point x="191" y="0" type="curve"/>
      <point x="191" y="178"/>
      <point x="191" y="355"/>
      <point x="191" y="533" type="curve"/>
      <point x="75" y="533"/>
      <point x="191" y="533"/>
      <point x="75" y="533" type="curve"/>
      <point x="75" y="355"/>
      <point x="75" y="178"/>
      <point x="75" y="0" type="curve"/>
      <point x="191" y="0"/>
      <point x="75" y="0"/>
    </contour>
    <contour>
      <point x="199" y="686" type="curve"/>
      <point x="199" y="723"/>
      <point x="170" y="741"/>
      <point x="131" y="741" type="curve"/>
      <point x="92" y="741"/>
      <point x="65" y="721"/>
      <point x="65" y="686" type="curve"/>
      <point x="191" y="686"/>
      <point x="74" y="686"/>
      <point x="199" y="686" type="curve"/>
      <point x="199" y="647"/>
      <point x="170" y="630"/>
      <point x="131" y="630" type="curve"/>
      <point x="91" y="630"/>
      <point x="65" y="649"/>
      <point x="65" y="686" type="curve"/>
      <point x="191" y="686"/>
      <point x="74" y="686"/>
    </contour>
    <contour>
      <point x="131" y="631" type="move" name="top"/>
    </contour>
    <contour>
      <point x="183" y="8" type="move" name="bottom"/>
    </contour>
  </outline>
</glyph>
<glyph name="j" format="1">
  <advance width="310"/>
  <unicode hex="006A"/>
  <outline>
    <contour>
      <point x="-49" y="-302" type="curve"/>
      <point x="-38" y="-302"/>
      <point x="-24" y="-305"/>
      <point x="-8" y="-305" type="curve"/>
      <point x="125" y="-305"/>
      <point x="234" y="-250"/>
      <point x="234" y="-127" type="curve"/>
      <point x="234" y="93"/>
      <point x="234" y="313"/>
      <point x="234" y="534" type="curve"/>
      <point x="124" y="534"/>
      <point x="234" y="534"/>
      <point x="124" y="534" type="curve"/>
      <point x="124" y="313"/>
      <point x="124" y="93"/>
      <point x="124" y="-127" type="curve"/>
      <point x="124" y="-193"/>
      <point x="67" y="-225"/>
      <point x="-4" y="-225" type="curve"/>
      <point x="-14" y="-225"/>
      <point x="-27" y="-224"/>
      <point x="-33" y="-223" type="curve"/>
      <point x="-49" y="-302"/>
      <point x="-33" y="-223"/>
    </contour>
    <contour>
      <point x="248" y="685" type="curve"/>
      <point x="248" y="722"/>
      <point x="219" y="740"/>
      <point x="180" y="740" type="curve"/>
      <point x="141" y="740"/>
      <point x="114" y="720"/>
      <point x="114" y="685" type="curve"/>
      <point x="239" y="685"/>
      <point x="123" y="685"/>
      <point x="248" y="685" type="curve"/>
      <point x="248" y="647"/>
      <point x="219" y="630"/>
      <point x="179" y="630" type="curve"/>
      <point x="140" y="630"/>
      <point x="114" y="648"/>
      <point x="114" y="685" type="curve"/>
      <point x="239" y="685"/>
      <point x="123" y="685"/>
    </contour>
  </outline>
</glyph>
<glyph name="k" format="1">
  <advance width="664"/>
  <unicode hex="006B"/>
  <outline>
    <contour>
      <point x="184" y="0" type="curve"/>
      <point x="184" y="800" type="line"/>
      <point x="73" y="800"/>
      <point x="184" y="800"/>
      <point x="73" y="800" type="curve"/>
      <point x="73" y="533"/>
      <point x="73" y="267"/>
      <point x="73" y="0" type="curve"/>
      <point x="184" y="0"/>
      <point x="73" y="0"/>
    </contour>
    <contour>
      <point x="474" y="533" type="curve"/>
      <point x="152" y="275" type="line"/>
      <point x="290" y="275"/>
      <point x="153" y="275"/>
      <point x="291" y="275" type="curve"/>
      <point x="620" y="533" type="line"/>
      <point x="466" y="533"/>
      <point x="628" y="533"/>
    </contour>
    <contour>
      <point x="653" y="0" type="curve"/>
      <point x="291" y="275" type="line"/>
      <point x="153" y="275"/>
      <point x="290" y="275"/>
      <point x="152" y="275" type="curve"/>
      <point x="505" y="0" type="line"/>
      <point x="660" y="0"/>
      <point x="498" y="0"/>
    </contour>
    <contour>
      <point x="382" y="-4" type="move" name="bottom"/>
    </contour>
  </outline>
</glyph>
<glyph name="m" format="1">
  <advance width="1089"/>
  <unicode hex="006D"/>
  <outline>
    <contour>
      <point x="577" y="292" type="curve"/>
      <point x="624" y="388"/>
      <point x="685" y="452"/>
      <point x="776" y="452" type="curve"/>
      <point x="868" y="452"/>
      <point x="909" y="411"/>
      <point x="909" y="318" type="curve"/>
      <point x="909" y="213"/>
      <point x="909" y="106"/>
      <point x="909" y="0" type="curve"/>
      <point x="1020" y="0"/>
      <point x="909" y="0"/>
      <point x="1020" y="0" type="curve"/>
      <point x="1020" y="109"/>
      <point x="1020" y="218"/>
      <point x="1020" y="327" type="curve"/>
      <point x="1020" y="474"/>
      <point x="949" y="538"/>
      <point x="800" y="538" type="curve"/>
      <point x="673" y="538"/>
      <point x="587" y="462"/>
      <point x="522" y="334" type="curve"/>
      <point x="577" y="292"/>
      <point x="522" y="334"/>
    </contour>
    <contour>
      <point x="159" y="295" type="curve"/>
      <point x="206" y="391"/>
      <point x="266" y="452"/>
      <point x="358" y="452" type="curve"/>
      <point x="449" y="452"/>
      <point x="491" y="411"/>
      <point x="491" y="318" type="curve"/>
      <point x="491" y="213"/>
      <point x="491" y="106"/>
      <point x="491" y="0" type="curve"/>
      <point x="602" y="0"/>
      <point x="491" y="0"/>
      <point x="602" y="0" type="curve"/>
      <point x="602" y="109"/>
      <point x="602" y="218"/>
      <point x="602" y="327" type="curve"/>
      <point x="602" y="474"/>
      <point x="532" y="538"/>
      <point x="384" y="538" type="curve"/>
      <point x="254" y="538"/>
      <point x="179" y="469"/>
      <point x="104" y="338" type="curve"/>
      <point x="160" y="296"/>
      <point x="104" y="337"/>
    </contour>
    <contour>
      <point x="184" y="0" type="curve"/>
      <point x="184" y="178"/>
      <point x="184" y="355"/>
      <point x="184" y="533" type="curve"/>
      <point x="73" y="533"/>
      <point x="184" y="533"/>
      <point x="73" y="533" type="curve"/>
      <point x="73" y="355"/>
      <point x="73" y="178"/>
      <point x="73" y="0" type="curve"/>
      <point x="184" y="0"/>
      <point x="73" y="0"/>
    </contour>
  </outline>
</glyph>
<glyph name="p" format="1">
  <advance width="750"/>
  <unicode hex="0070"/>
  <outline>
    <contour>
      <point x="147" y="331" type="curve"/>
      <point x="209" y="410"/>
      <point x="290" y="458"/>
      <point x="399" y="458" type="curve"/>
      <point x="516" y="458"/>
      <point x="596" y="386"/>
      <point x="596" y="267" type="curve"/>
      <point x="599" y="147"/>
      <point x="516" y="77"/>
      <point x="395" y="78" type="curve"/>
      <point x="299" y="78"/>
      <point x="223" y="111"/>
      <point x="149" y="169" type="curve"/>
      <point x="120" y="148"/>
      <point x="125" y="134"/>
      <point x="96" y="113" type="curve"/>
      <point x="182" y="37"/>
      <point x="282" y="-5"/>
      <point x="407" y="-5" type="curve"/>
      <point x="586" y="-5"/>
      <point x="707" y="97"/>
      <point x="706" y="272" type="curve"/>
      <point x="706" y="440"/>
      <point x="589" y="539"/>
      <point x="416" y="539" type="curve"/>
      <point x="280" y="539"/>
      <point x="179" y="485"/>
      <point x="103" y="391" type="curve"/>
      <point x="127" y="361"/>
      <point x="123" y="360"/>
    </contour>
    <contour>
      <point x="183" y="-300" type="curve"/>
      <point x="183" y="-22"/>
      <point x="183" y="255"/>
      <point x="183" y="533" type="curve"/>
      <point x="73" y="533"/>
      <point x="183" y="533"/>
      <point x="73" y="533" type="curve"/>
      <point x="73" y="255"/>
      <point x="73" y="-22"/>
      <point x="73" y="-300" type="curve"/>
      <point x="183" y="-300"/>
      <point x="73" y="-300"/>
    </contour>
  </outline>
</glyph>
<glyph name="q" format="1">
  <advance width="759"/>
  <unicode hex="0071"/>
  <outline>
    <contour>
      <point x="654" y="400" type="curve"/>
      <point x="565" y="486"/>
      <point x="469" y="538"/>
      <point x="342" y="538" type="curve"/>
      <point x="164" y="538"/>
      <point x="44" y="438"/>
      <point x="44" y="263" type="curve"/>
      <point x="44" y="89"/>
      <point x="169" y="-5"/>
      <point x="348" y="-5" type="curve"/>
      <point x="479" y="-5"/>
      <point x="577" y="52"/>
      <point x="670" y="144" type="curve"/>
      <point x="642" y="168"/>
      <point x="636" y="171"/>
      <point x="608" y="194" type="curve"/>
      <point x="543" y="115"/>
      <point x="462" y="78"/>
      <point x="362" y="78" type="curve"/>
      <point x="240" y="78"/>
      <point x="155" y="146"/>
      <point x="155" y="267" type="curve"/>
      <point x="155" y="387"/>
      <point x="238" y="455"/>
      <point x="360" y="455" type="curve"/>
      <point x="461" y="455"/>
      <point x="545" y="409"/>
      <point x="611" y="342" type="curve"/>
      <point x="636" y="368"/>
      <point x="630" y="374"/>
    </contour>
    <contour>
      <point x="686" y="-300" type="curve"/>
      <point x="686" y="-5"/>
      <point x="686" y="238"/>
      <point x="686" y="533" type="curve"/>
      <point x="631" y="533"/>
      <point x="625" y="533"/>
      <point x="570" y="533" type="curve"/>
      <point x="570" y="238"/>
      <point x="570" y="-5"/>
      <point x="570" y="-300" type="curve"/>
      <point x="625" y="-300"/>
      <point x="631" y="-300"/>
    </contour>
  </outline>
</glyph>
<glyph name="r" format="1">
  <advance width="459"/>
  <unicode hex="0072"/>
  <outline>
    <contour>
      <point x="184" y="0" type="curve"/>
      <point x="184" y="194"/>
      <point x="184" y="339"/>
      <point x="184" y="533" type="curve"/>
      <point x="130" y="533"/>
      <point x="127" y="533"/>
      <point x="73" y="533" type="curve"/>
      <point x="73" y="339"/>
      <point x="73" y="194"/>
      <point x="73" y="0" type="curve"/>
      <point x="127" y="0"/>
      <point x="130" y="0"/>
    </contour>
    <contour>
      <point x="155" y="287" type="curve"/>
      <point x="222" y="408"/>
      <point x="317" y="441"/>
      <point x="448" y="441" type="curve"/>
      <point x="448" y="488"/>
      <point x="448" y="491"/>
      <point x="448" y="538" type="curve"/>
      <point x="300" y="538"/>
      <point x="194" y="477"/>
      <point x="120" y="349" type="curve"/>
      <point x="140" y="318"/>
      <point x="135" y="318"/>
    </contour>
    <contour>
      <point x="178" y="632" type="move" name="top"/>
    </contour>
    <contour>
      <point x="147" y="19" type="move" name="bottom"/>
    </contour>
  </outline>
</glyph>
<glyph name="s" format="1">
  <advance width="585"/>
  <unicode hex="0073"/>
  <outline>
    <contour>
      <point x="35" y="48" type="curve"/>
      <point x="126" y="16"/>
      <point x="198" y="-5"/>
      <point x="291" y="-5" type="curve"/>
      <point x="438" y="-5"/>
      <point x="552" y="30"/>
      <point x="552" y="155" type="curve"/>
      <point x="552" y="276"/>
      <point x="434" y="285"/>
      <point x="301" y="315" type="curve" smooth="yes"/>
      <point x="224" y="332"/>
      <point x="149" y="344"/>
      <point x="149" y="397" type="curve"/>
      <point x="149" y="440"/>
      <point x="204" y="455"/>
      <point x="273" y="455" type="curve"/>
      <point x="334" y="455"/>
      <point x="407" y="438"/>
      <point x="457" y="417" type="curve"/>
      <point x="500" y="492"/>
      <point x="457" y="418"/>
      <point x="500" y="492" type="curve"/>
      <point x="447" y="517"/>
      <point x="354" y="538"/>
      <point x="277" y="538" type="curve"/>
      <point x="147" y="538"/>
      <point x="48" y="506"/>
      <point x="48" y="396" type="curve"/>
      <point x="48" y="288"/>
      <point x="144" y="261"/>
      <point x="266" y="234" type="curve" smooth="yes"/>
      <point x="353" y="213"/>
      <point x="446" y="211"/>
      <point x="446" y="153" type="curve"/>
      <point x="446" y="100"/>
      <point x="382" y="78"/>
      <point x="305" y="78" type="curve"/>
      <point x="226" y="78"/>
      <point x="168" y="95"/>
      <point x="81" y="125" type="curve"/>
      <point x="35" y="48"/>
      <point x="81" y="125"/>
    </contour>
    <contour>
      <point x="280" y="632" type="move" name="top"/>
    </contour>
    <contour>
      <point x="315" y="4" type="move" name="bottom"/>
    </contour>
  </outline>
</glyph>
<glyph name="t" format="1">
  <advance width="512"/>
  <unicode hex="0074"/>
  <outline>
    <contour>
      <point x="24" y="451" type="curve"/>
      <point x="486" y="451" type="line"/>
      <point x="486" y="534"/>
      <point x="486" y="451"/>
      <point x="486" y="534" type="curve"/>
      <point x="24" y="534" type="line"/>
      <point x="24" y="451"/>
      <point x="24" y="534"/>
    </contour>
    <contour>
      <point x="469" y="101" type="curve"/>
      <point x="433" y="86"/>
      <point x="406" y="80"/>
      <point x="367" y="80" type="curve"/>
      <point x="307" y="80"/>
      <point x="273" y="106"/>
      <point x="273" y="166" type="curve"/>
      <point x="273" y="686" type="line"/>
      <point x="256" y="675"/>
      <point x="179" y="635"/>
      <point x="162" y="625" type="curve"/>
      <point x="162" y="162" type="line"/>
      <point x="162" y="45"/>
      <point x="238" y="-6"/>
      <point x="356" y="-6" type="curve"/>
      <point x="416" y="-6"/>
      <point x="457" y="9"/>
      <point x="499" y="27" type="curve"/>
      <point x="469" y="101"/>
      <point x="499" y="27"/>
    </contour>
    <contour>
      <point x="373" y="4" type="move" name="bottom"/>
    </contour>
  </outline>
</glyph>
<glyph name="v" format="1">
  <advance width="688"/>
  <unicode hex="0076"/>
  <outline>
    <contour>
      <point x="19" y="533" type="curve"/>
      <point x="106" y="355"/>
      <point x="194" y="178"/>
      <point x="281" y="0" type="curve"/>
      <point x="391" y="0"/>
      <point x="281" y="0"/>
      <point x="391" y="0" type="curve"/>
      <point x="305" y="178"/>
      <point x="219" y="355"/>
      <point x="133" y="533" type="curve"/>
      <point x="19" y="533"/>
      <point x="133" y="533"/>
    </contour>
    <contour>
      <point x="562" y="533" type="curve"/>
      <point x="288" y="0" type="line"/>
      <point x="399" y="0"/>
      <point x="288" y="0"/>
      <point x="399" y="0" type="curve"/>
      <point x="491" y="178"/>
      <point x="582" y="355"/>
      <point x="674" y="533" type="curve"/>
      <point x="562" y="533"/>
      <point x="674" y="533"/>
    </contour>
  </outline>
</glyph>
<glyph name="w" format="1">
  <advance width="1108"/>
  <unicode hex="0077"/>
  <outline>
    <contour>
      <point x="360" y="0" type="curve"/>
      <point x="445" y="178"/>
      <point x="530" y="355"/>
      <point x="616" y="533" type="curve"/>
      <point x="503" y="533"/>
      <point x="616" y="533"/>
      <point x="503" y="533" type="curve"/>
      <point x="419" y="355"/>
      <point x="335" y="178"/>
      <point x="251" y="0" type="curve"/>
      <point x="360" y="0"/>
      <point x="251" y="0"/>
    </contour>
    <contour>
      <point x="978" y="533" type="curve"/>
      <point x="899" y="355"/>
      <point x="821" y="178"/>
      <point x="742" y="0" type="curve"/>
      <point x="851" y="0"/>
      <point x="742" y="0"/>
      <point x="851" y="0" type="curve"/>
      <point x="931" y="178"/>
      <point x="1011" y="355"/>
      <point x="1090" y="533" type="curve"/>
      <point x="978" y="533"/>
      <point x="1090" y="533"/>
    </contour>
    <contour>
      <point x="511" y="533" type="curve"/>
      <point x="587" y="355"/>
      <point x="664" y="178"/>
      <point x="740" y="0" type="curve"/>
      <point x="850" y="0"/>
      <point x="740" y="0"/>
      <point x="850" y="0" type="curve"/>
      <point x="774" y="178"/>
      <point x="698" y="355"/>
      <point x="622" y="533" type="curve"/>
      <point x="511" y="533"/>
      <point x="622" y="533"/>
    </contour>
    <contour>
      <point x="21" y="533" type="curve"/>
      <point x="97" y="355"/>
      <point x="174" y="178"/>
      <point x="250" y="0" type="curve"/>
      <point x="359" y="0"/>
      <point x="250" y="0"/>
      <point x="359" y="0" type="curve"/>
      <point x="283" y="178"/>
      <point x="208" y="355"/>
      <point x="132" y="533" type="curve"/>
      <point x="21" y="533"/>
      <point x="132" y="533"/>
    </contour>
  </outline>
</glyph>
<glyph name="x" format="1">
  <advance width="718"/>
  <unicode hex="0078"/>
  <outline>
    <contour>
      <point x="704" y="0" type="curve"/>
      <point x="641" y="63"/>
      <point x="208" y="470"/>
      <point x="144" y="533" type="curve"/>
      <point x="-29" y="533"/>
      <point x="198" y="533"/>
      <point x="25" y="533" type="curve"/>
      <point x="88" y="470"/>
      <point x="510" y="63"/>
      <point x="573" y="0" type="curve"/>
      <point x="704" y="0"/>
      <point x="573" y="0"/>
    </contour>
    <contour>
      <point x="578" y="533" type="curve"/>
      <point x="513" y="470"/>
      <point x="74" y="63"/>
      <point x="10" y="0" type="curve"/>
      <point x="144" y="0"/>
      <point x="10" y="0"/>
      <point x="144" y="0" type="curve"/>
      <point x="208" y="63"/>
      <point x="638" y="470"/>
      <point x="702" y="533" type="curve"/>
      <point x="503" y="533"/>
      <point x="777" y="533"/>
    </contour>
  </outline>
</glyph>
<glyph name="y" format="1">
  <advance width="714"/>
  <unicode hex="0079"/>
  <outline>
    <contour>
      <point x="391" y="-3" type="curve"/>
      <point x="353" y="65"/>
      <point x="166" y="465"/>
      <point x="128" y="533" type="curve"/>
      <point x="14" y="533"/>
      <point x="128" y="533"/>
      <point x="14" y="533" type="curve"/>
      <point x="53" y="465"/>
      <point x="254" y="54"/>
      <point x="293" y="-14" type="curve"/>
      <point x="391" y="-14"/>
      <point x="293" y="-3"/>
    </contour>
    <contour>
      <point x="238" y="-300" type="curve"/>
      <point x="303" y="-193"/>
      <point x="643" y="426"/>
      <point x="708" y="533" type="curve"/>
      <point x="595" y="533"/>
      <point x="708" y="533"/>
      <point x="595" y="533" type="curve"/>
      <point x="530" y="426"/>
      <point x="189" y="-193"/>
      <point x="124" y="-300" type="curve"/>
      <point x="238" y="-300"/>
      <point x="124" y="-300"/>
    </contour>
    <contour>
      <point x="356" y="631" type="move" name="top"/>
    </contour>
  </outline>
</glyph>
<glyph name="z" format="1">
  <advance width="633"/>
  <unicode hex="007A"/>
  <outline>
    <contour>
      <point x="54" y="450" type="curve"/>
      <point x="216" y="450"/>
      <point x="372" y="450"/>
      <point x="534" y="450" type="curve"/>
      <point x="526" y="460"/>
      <point x="510" y="456"/>
      <point x="502" y="466" type="curve"/>
      <point x="496" y="474"/>
      <point x="492" y="484"/>
      <point x="486" y="492" type="curve"/>
      <point x="479" y="486"/>
      <point x="471" y="489"/>
      <point x="464" y="483" type="curve"/>
      <point x="32" y="83" type="line"/>
      <point x="32" y="41"/>
      <point x="32" y="83"/>
      <point x="32" y="41" type="curve"/>
      <point x="32" y="0"/>
      <point x="32" y="41"/>
      <point x="32" y="0" type="curve"/>
      <point x="71" y="0"/>
      <point x="32" y="0"/>
      <point x="71" y="0" type="curve"/>
      <point x="605" y="0"/>
      <point x="421" y="0"/>
      <point x="599" y="0" type="curve"/>
      <point x="599" y="83"/>
      <point x="599" y="0"/>
      <point x="599" y="83" type="curve"/>
      <point x="421" y="83"/>
      <point x="249" y="83"/>
      <point x="71" y="83" type="curve"/>
      <point x="79" y="77"/>
      <point x="90" y="76"/>
      <point x="99" y="70" type="curve"/>
      <point x="106" y="61"/>
      <point x="111" y="50"/>
      <point x="118" y="41" type="curve"/>
      <point x="124" y="46"/>
      <point x="128" y="44"/>
      <point x="134" y="50" type="curve"/>
      <point x="564" y="450" type="line"/>
      <point x="564" y="492"/>
      <point x="564" y="450"/>
      <point x="564" y="492" type="curve"/>
      <point x="564" y="533"/>
      <point x="564" y="492"/>
      <point x="564" y="533" type="curve"/>
      <point x="534" y="533"/>
      <point x="564" y="533"/>
      <point x="534" y="533" type="curve"/>
      <point x="372" y="533"/>
      <point x="216" y="533"/>
      <point x="54" y="533" type="curve"/>
      <point x="54" y="450"/>
      <point x="54" y="533"/>
    </contour>
    <contour>
      <point x="310" y="631" type="move" name="top"/>
    </contour>
  </outline>
</glyph>
<glyph name="braceleft" format="1">
  <advance width="355"/>
  <unicode hex="007B"/>
  <outline>
    <contour>
      <point x="318" y="-30" type="curve"/>
      <point x="260" y="-30"/>
      <point x="222" y="-1"/>
      <point x="222" y="53" type="curve"/>
      <point x="222" y="107"/>
      <point x="222" y="160"/>
      <point x="222" y="214" type="curve"/>
      <point x="222" y="323"/>
      <point x="141" y="384"/>
      <point x="27" y="384" type="curve"/>
      <point x="27" y="297"/>
      <point x="27" y="384"/>
      <point x="27" y="297" type="curve"/>
      <point x="82" y="297"/>
      <point x="121" y="274"/>
      <point x="121" y="222" type="curve"/>
      <point x="121" y="167"/>
      <point x="121" y="112"/>
      <point x="121" y="58" type="curve"/>
      <point x="121" y="-54"/>
      <point x="201" y="-113"/>
      <point x="318" y="-113" type="curve"/>
      <point x="318" y="-30"/>
      <point x="318" y="-113"/>
    </contour>
    <contour>
      <point x="318" y="793" type="curve"/>
      <point x="201" y="793"/>
      <point x="121" y="736"/>
      <point x="121" y="625" type="curve"/>
      <point x="121" y="569"/>
      <point x="121" y="512"/>
      <point x="121" y="456" type="curve"/>
      <point x="121" y="405"/>
      <point x="81" y="384"/>
      <point x="27" y="384" type="curve"/>
      <point x="27" y="297"/>
      <point x="27" y="384"/>
      <point x="27" y="297" type="curve"/>
      <point x="142" y="297"/>
      <point x="222" y="357"/>
      <point x="222" y="468" type="curve"/>
      <point x="222" y="520"/>
      <point x="222" y="572"/>
      <point x="222" y="625" type="curve"/>
      <point x="222" y="681"/>
      <point x="259" y="711"/>
      <point x="318" y="711" type="curve"/>
      <point x="318" y="793"/>
      <point x="318" y="711"/>
    </contour>
  </outline>
</glyph>
<glyph name="braceright" format="1">
  <advance width="355"/>
  <unicode hex="007D"/>
  <outline>
    <contour>
      <point x="36" y="-113" type="curve"/>
      <point x="152" y="-113"/>
      <point x="232" y="-54"/>
      <point x="232" y="58" type="curve"/>
      <point x="232" y="112"/>
      <point x="232" y="167"/>
      <point x="232" y="222" type="curve"/>
      <point x="232" y="273"/>
      <point x="272" y="297"/>
      <point x="327" y="297" type="curve"/>
      <point x="327" y="384"/>
      <point x="327" y="297"/>
      <point x="327" y="384" type="curve"/>
      <point x="212" y="384"/>
      <point x="131" y="323"/>
      <point x="131" y="214" type="curve"/>
      <point x="131" y="160"/>
      <point x="131" y="107"/>
      <point x="131" y="53" type="curve"/>
      <point x="131" y="-1"/>
      <point x="93" y="-31"/>
      <point x="36" y="-31" type="curve"/>
      <point x="36" y="-113"/>
      <point x="36" y="-31"/>
    </contour>
    <contour>
      <point x="36" y="710" type="curve"/>
      <point x="94" y="710"/>
      <point x="131" y="681"/>
      <point x="131" y="625" type="curve"/>
      <point x="131" y="572"/>
      <point x="131" y="520"/>
      <point x="131" y="468" type="curve"/>
      <point x="131" y="356"/>
      <point x="211" y="297"/>
      <point x="327" y="297" type="curve"/>
      <point x="327" y="384"/>
      <point x="327" y="297"/>
      <point x="327" y="384" type="curve"/>
      <point x="272" y="384"/>
      <point x="231" y="404"/>
      <point x="231" y="456" type="curve"/>
      <point x="231" y="512"/>
      <point x="231" y="569"/>
      <point x="231" y="625" type="curve"/>
      <point x="231" y="736"/>
      <point x="152" y="793"/>
      <point x="36" y="793" type="curve"/>
      <point x="36" y="710"/>
      <point x="36" y="793"/>
    </contour>
  </outline>
</glyph>
<glyph name="asciitilde" format="1">
  <advance width="802"/>
  <unicode hex="007E"/>
  <outline>
    <contour>
      <point x="657" y="368" type="curve"/>
      <point x="636" y="321"/>
      <point x="612" y="283"/>
      <point x="558" y="283" type="curve"/>
      <point x="506" y="283"/>
      <point x="472" y="293"/>
      <point x="427" y="321" type="curve"/>
      <point x="367" y="359"/>
      <point x="325" y="378"/>
      <point x="254" y="378" type="curve"/>
      <point x="151" y="378"/>
      <point x="94" y="335"/>
      <point x="59" y="242" type="curve"/>
      <point x="93" y="225"/>
      <point x="103" y="221"/>
      <point x="138" y="206" type="curve"/>
      <point x="158" y="260"/>
      <point x="188" y="295"/>
      <point x="248" y="295" type="curve"/>
      <point x="294" y="295"/>
      <point x="322" y="285"/>
      <point x="360" y="261" type="curve"/>
      <point x="426" y="221"/>
      <point x="471" y="202"/>
      <point x="549" y="201" type="curve"/>
      <point x="648" y="201"/>
      <point x="701" y="244"/>
      <point x="742" y="331" type="curve"/>
      <point x="705" y="347"/>
      <point x="695" y="352"/>
    </contour>
  </outline>
</glyph>
<glyph name="exclamdown" format="1">
  <advance width="263"/>
  <unicode hex="00A1"/>
  <outline>
    <contour>
      <point x="89" y="307" type="line"/>
      <point x="75" y="-186" type="line"/>
      <point x="190" y="-186" type="line"/>
      <point x="177" y="307" type="line"/>
    </contour>
    <contour>
      <point x="65" y="490" type="curve"/>
      <point x="65" y="453"/>
      <point x="94" y="435"/>
      <point x="133" y="435" type="curve"/>
      <point x="171" y="435"/>
      <point x="198" y="455"/>
      <point x="198" y="490" type="curve"/>
      <point x="73" y="490"/>
      <point x="190" y="490"/>
      <point x="65" y="490" type="curve"/>
      <point x="65" y="528"/>
      <point x="94" y="545"/>
      <point x="133" y="545" type="curve"/>
      <point x="172" y="545"/>
      <point x="198" y="526"/>
      <point x="198" y="490" type="curve"/>
      <point x="73" y="490"/>
      <point x="190" y="490"/>
    </contour>
  </outline>
</glyph>
<glyph name="cent" format="1">
  <advance width="777"/>
  <unicode hex="00A2"/>
  <outline>
    <contour>
      <point x="469" y="-53" type="curve"/>
      <point x="469" y="-13"/>
      <point x="469" y="27"/>
      <point x="469" y="67" type="curve"/>
      <point x="358" y="67"/>
      <point x="469" y="67"/>
      <point x="358" y="67" type="curve"/>
      <point x="358" y="27"/>
      <point x="358" y="-13"/>
      <point x="358" y="-53" type="curve"/>
      <point x="469" y="-53"/>
      <point x="358" y="-53"/>
    </contour>
    <contour>
      <point x="384" y="778" type="curve"/>
      <point x="384" y="742"/>
      <point x="384" y="706"/>
      <point x="384" y="670" type="curve"/>
      <point x="494" y="670"/>
      <point x="384" y="670"/>
      <point x="494" y="670" type="curve"/>
      <point x="494" y="706"/>
      <point x="494" y="742"/>
      <point x="494" y="778" type="curve"/>
      <point x="384" y="778"/>
      <point x="494" y="778"/>
    </contour>
    <contour>
      <point x="736" y="615" type="curve"/>
      <point x="637" y="665"/>
      <point x="559" y="684"/>
      <point x="448" y="684" type="curve"/>
      <point x="214" y="684"/>
      <point x="42" y="581"/>
      <point x="42" y="364" type="curve"/>
      <point x="42" y="159"/>
      <point x="191" y="48"/>
      <point x="407" y="48" type="curve"/>
      <point x="535" y="48"/>
      <point x="626" y="73"/>
      <point x="736" y="139" type="curve"/>
      <point x="677" y="211"/>
      <point x="736" y="139"/>
      <point x="677" y="211" type="curve"/>
      <point x="583" y="156"/>
      <point x="515" y="134"/>
      <point x="417" y="134" type="curve"/>
      <point x="259" y="134"/>
      <point x="152" y="218"/>
      <point x="152" y="368" type="curve"/>
      <point x="152" y="523"/>
      <point x="273" y="598"/>
      <point x="438" y="598" type="curve"/>
      <point x="530" y="598"/>
      <point x="595" y="583"/>
      <point x="686" y="540" type="curve"/>
      <point x="736" y="615"/>
      <point x="686" y="540"/>
    </contour>
  </outline>
</glyph>
<glyph name="sterling" format="1">
  <advance width="617"/>
  <unicode hex="00A3"/>
  <outline>
    <contour>
      <point x="549" y="83" type="curve"/>
      <point x="379" y="83"/>
      <point x="210" y="83"/>
      <point x="41" y="83" type="curve"/>
      <point x="41" y="0"/>
      <point x="41" y="83"/>
      <point x="41" y="0" type="curve"/>
      <point x="210" y="0"/>
      <point x="379" y="0"/>
      <point x="549" y="0" type="curve"/>
      <point x="549" y="83"/>
      <point x="549" y="0"/>
    </contour>
    <contour>
      <point x="489" y="417" type="curve"/>
      <point x="354" y="417"/>
      <point x="219" y="417"/>
      <point x="84" y="417" type="curve"/>
      <point x="84" y="334"/>
      <point x="84" y="417"/>
      <point x="84" y="334" type="curve"/>
      <point x="219" y="334"/>
      <point x="354" y="334"/>
      <point x="489" y="334" type="curve"/>
      <point x="489" y="417"/>
      <point x="489" y="334"/>
    </contour>
    <contour>
      <point x="579" y="666" type="curve"/>
      <point x="517" y="707"/>
      <point x="467" y="721"/>
      <point x="394" y="721" type="curve"/>
      <point x="210" y="721"/>
      <point x="109" y="562"/>
      <point x="164" y="367" type="curve"/>
      <point x="206" y="215"/>
      <point x="163" y="83"/>
      <point x="41" y="83" type="curve"/>
      <point x="41" y="0"/>
      <point x="41" y="83"/>
      <point x="41" y="0" type="curve"/>
      <point x="239" y="0"/>
      <point x="331" y="175"/>
      <point x="274" y="384" type="curve"/>
      <point x="236" y="523"/>
      <point x="282" y="643"/>
      <point x="389" y="643" type="curve"/>
      <point x="442" y="643"/>
      <point x="479" y="631"/>
      <point x="526" y="604" type="curve"/>
      <point x="579" y="666"/>
      <point x="526" y="604"/>
    </contour>
  </outline>
</glyph>
<glyph name="currency" format="1">
  <advance width="742"/>
  <unicode hex="00A4"/>
  <outline>
    <contour>
      <point x="242" y="315" type="curve"/>
      <point x="242" y="383"/>
      <point x="296" y="418"/>
      <point x="370" y="418" type="curve"/>
      <point x="447" y="418"/>
      <point x="501" y="384"/>
      <point x="501" y="313" type="curve"/>
      <point x="501" y="244"/>
      <point x="451" y="205"/>
      <point x="379" y="205" type="curve"/>
      <point x="299" y="205"/>
      <point x="242" y="241"/>
      <point x="242" y="315" type="curve"/>
      <point x="131" y="315"/>
      <point x="242" y="315"/>
      <point x="131" y="315" type="curve"/>
      <point x="131" y="184"/>
      <point x="235" y="123"/>
      <point x="375" y="123" type="curve"/>
      <point x="512" y="123"/>
      <point x="612" y="189"/>
      <point x="612" y="317" type="curve"/>
      <point x="612" y="441"/>
      <point x="513" y="501"/>
      <point x="380" y="501" type="curve"/>
      <point x="238" y="501"/>
      <point x="131" y="444"/>
      <point x="131" y="315" type="curve"/>
      <point x="242" y="315"/>
      <point x="131" y="315"/>
    </contour>
    <contour>
      <point x="533" y="334" type="line"/>
      <point x="693" y="483" type="line"/>
      <point x="605" y="570" type="line"/>
      <point x="456" y="411" type="line"/>
    </contour>
    <contour>
      <point x="457" y="217" type="line"/>
      <point x="605" y="58" type="line"/>
      <point x="693" y="146" type="line"/>
      <point x="534" y="295" type="line"/>
    </contour>
    <contour>
      <point x="208" y="296" type="line"/>
      <point x="49" y="148" type="line"/>
      <point x="136" y="60" type="line"/>
      <point x="285" y="219" type="line"/>
    </contour>
    <contour>
      <point x="286" y="412" type="line"/>
      <point x="137" y="572" type="line"/>
      <point x="49" y="484" type="line"/>
      <point x="209" y="335" type="line"/>
    </contour>
  </outline>
</glyph>
<glyph name="yen" format="1">
  <advance width="795"/>
  <unicode hex="00A5"/>
  <outline>
    <contour>
      <point x="683" y="422" type="curve"/>
      <point x="595" y="422"/>
      <point x="506" y="422"/>
      <point x="417" y="422" type="curve"/>
      <point x="417" y="331"/>
      <point x="417" y="422"/>
      <point x="417" y="331" type="curve"/>
      <point x="506" y="331"/>
      <point x="595" y="331"/>
      <point x="683" y="331" type="curve"/>
      <point x="683" y="422"/>
      <point x="683" y="331"/>
    </contour>
    <contour>
      <point x="381" y="422" type="curve"/>
      <point x="294" y="422"/>
      <point x="207" y="422"/>
      <point x="120" y="422" type="curve"/>
      <point x="120" y="331"/>
      <point x="120" y="422"/>
      <point x="120" y="331" type="curve"/>
      <point x="207" y="331"/>
      <point x="294" y="331"/>
      <point x="381" y="331" type="curve"/>
      <point x="381" y="422"/>
      <point x="381" y="331"/>
    </contour>
    <contour>
      <point x="683" y="272" type="curve"/>
      <point x="496" y="272"/>
      <point x="308" y="272"/>
      <point x="120" y="272" type="curve"/>
      <point x="120" y="181"/>
      <point x="120" y="272"/>
      <point x="120" y="181" type="curve"/>
      <point x="308" y="181"/>
      <point x="496" y="181"/>
      <point x="683" y="181" type="curve"/>
      <point x="683" y="272"/>
      <point x="683" y="181"/>
    </contour>
    <contour>
      <point x="33" y="722" type="curve"/>
      <point x="125" y="602"/>
      <point x="247" y="457"/>
      <point x="339" y="337" type="curve"/>
      <point x="452" y="337"/>
      <point x="338" y="338"/>
      <point x="451" y="338" type="curve"/>
      <point x="353" y="466"/>
      <point x="256" y="594"/>
      <point x="158" y="722" type="curve"/>
      <point x="63" y="722"/>
      <point x="128" y="722"/>
    </contour>
    <contour>
      <point x="650" y="722" type="curve"/>
      <point x="547" y="594"/>
      <point x="444" y="466"/>
      <point x="341" y="338" type="curve"/>
      <point x="453" y="338"/>
      <point x="340" y="337"/>
      <point x="452" y="337" type="curve"/>
      <point x="551" y="458"/>
      <point x="668" y="602"/>
      <point x="767" y="722" type="curve"/>
      <point x="671" y="722"/>
      <point x="746" y="722"/>
    </contour>
    <contour>
      <point x="457" y="0" type="curve"/>
      <point x="457" y="115"/>
      <point x="457" y="230"/>
      <point x="457" y="345" type="curve"/>
      <point x="335" y="345"/>
      <point x="457" y="345"/>
      <point x="335" y="345" type="curve"/>
      <point x="335" y="230"/>
      <point x="335" y="115"/>
      <point x="335" y="0" type="curve"/>
      <point x="457" y="0"/>
      <point x="335" y="0"/>
    </contour>
  </outline>
</glyph>
<glyph name="section" format="1">
  <advance width="607"/>
  <unicode hex="00A7"/>
  <outline>
    <contour>
      <point x="506" y="705" type="curve"/>
      <point x="436" y="734"/>
      <point x="384" y="749"/>
      <point x="308" y="749" type="curve"/>
      <point x="182" y="749"/>
      <point x="87" y="710"/>
      <point x="87" y="604" type="curve"/>
      <point x="87" y="509"/>
      <point x="164" y="470"/>
      <point x="263" y="444" type="curve"/>
      <point x="352" y="421"/>
      <point x="456" y="424"/>
      <point x="456" y="356" type="curve"/>
      <point x="456" y="293"/>
      <point x="392" y="275"/>
      <point x="317" y="265" type="curve"/>
      <point x="382" y="199"/>
      <point x="317" y="265"/>
      <point x="382" y="199" type="curve"/>
      <point x="488" y="218"/>
      <point x="566" y="261"/>
      <point x="566" y="361" type="curve"/>
      <point x="565" y="482"/>
      <point x="445" y="494"/>
      <point x="318" y="522" type="curve"/>
      <point x="257" y="538"/>
      <point x="197" y="549"/>
      <point x="197" y="604" type="curve"/>
      <point x="197" y="652"/>
      <point x="241" y="667"/>
      <point x="298" y="667" type="curve"/>
      <point x="359" y="667"/>
      <point x="400" y="658"/>
      <point x="464" y="634" type="curve"/>
      <point x="506" y="705"/>
      <point x="464" y="634"/>
    </contour>
    <contour>
      <point x="222" y="523" type="curve"/>
      <point x="123" y="501"/>
      <point x="44" y="463"/>
      <point x="44" y="366" type="curve"/>
      <point x="44" y="253"/>
      <point x="149" y="230"/>
      <point x="268" y="202" type="curve"/>
      <point x="341" y="183"/>
      <point x="420" y="175"/>
      <point x="420" y="119" type="curve"/>
      <point x="420" y="70"/>
      <point x="369" y="55"/>
      <point x="308" y="55" type="curve"/>
      <point x="240" y="55"/>
      <point x="195" y="67"/>
      <point x="125" y="98" type="curve"/>
      <point x="74" y="32"/>
      <point x="125" y="98"/>
      <point x="74" y="32" type="curve"/>
      <point x="152" y="-10"/>
      <point x="215" y="-27"/>
      <point x="303" y="-27" type="curve"/>
      <point x="428" y="-27"/>
      <point x="530" y="10"/>
      <point x="530" y="122" type="curve"/>
      <point x="528" y="222"/>
      <point x="443" y="257"/>
      <point x="339" y="280" type="curve"/>
      <point x="252" y="302"/>
      <point x="155" y="303"/>
      <point x="155" y="374" type="curve"/>
      <point x="155" y="432"/>
      <point x="211" y="446"/>
      <point x="277" y="462" type="curve"/>
      <point x="222" y="523"/>
      <point x="277" y="462"/>
    </contour>
  </outline>
</glyph>
<glyph name="dieresis" format="1">
  <advance width="451"/>
  <unicode hex="00A8"/>
  <outline>
    <contour>
      <point x="183" y="611" type="curve"/>
      <point x="183" y="648"/>
      <point x="154" y="666"/>
      <point x="116" y="666" type="curve"/>
      <point x="77" y="666"/>
      <point x="51" y="646"/>
      <point x="51" y="611" type="curve"/>
      <point x="175" y="611"/>
      <point x="58" y="611"/>
      <point x="183" y="611" type="curve"/>
      <point x="183" y="573"/>
      <point x="154" y="556"/>
      <point x="115" y="556" type="curve"/>
      <point x="76" y="556"/>
      <point x="51" y="575"/>
      <point x="51" y="611" type="curve"/>
      <point x="175" y="611"/>
      <point x="58" y="611"/>
    </contour>
    <contour>
      <point x="391" y="611" type="curve"/>
      <point x="391" y="648"/>
      <point x="362" y="666"/>
      <point x="323" y="666" type="curve"/>
      <point x="284" y="666"/>
      <point x="258" y="646"/>
      <point x="258" y="611" type="curve"/>
      <point x="383" y="611"/>
      <point x="266" y="611"/>
      <point x="391" y="611" type="curve"/>
      <point x="391" y="573"/>
      <point x="362" y="556"/>
      <point x="322" y="556" type="curve"/>
      <point x="284" y="556"/>
      <point x="258" y="575"/>
      <point x="258" y="611" type="curve"/>
      <point x="383" y="611"/>
      <point x="266" y="611"/>
    </contour>
    <contour>
      <point x="220" y="558" type="move" name="_top"/>
    </contour>
  </outline>
</glyph>
<glyph name="copyright" format="1">
  <advance width="950"/>
  <unicode hex="00A9"/>
  <outline>
    <contour>
      <point x="138" y="323" type="curve"/>
      <point x="138" y="495"/>
      <point x="291" y="578"/>
      <point x="478" y="578" type="curve"/>
      <point x="661" y="578"/>
      <point x="810" y="491"/>
      <point x="810" y="321" type="curve"/>
      <point x="810" y="155"/>
      <point x="666" y="70"/>
      <point x="487" y="70" type="curve"/>
      <point x="299" y="70"/>
      <point x="138" y="149"/>
      <point x="138" y="323" type="curve"/>
      <point x="48" y="323"/>
      <point x="139" y="323"/>
      <point x="48" y="323" type="curve"/>
      <point x="48" y="106"/>
      <point x="245" y="3"/>
      <point x="484" y="3" type="curve"/>
      <point x="714" y="3"/>
      <point x="899" y="111"/>
      <point x="899" y="324" type="curve"/>
      <point x="899" y="538"/>
      <point x="710" y="645"/>
      <point x="478" y="645" type="curve"/>
      <point x="243" y="645"/>
      <point x="48" y="540"/>
      <point x="48" y="323" type="curve"/>
      <point x="139" y="323"/>
      <point x="48" y="323"/>
    </contour>
    <contour>
      <point x="650" y="463" type="curve"/>
      <point x="605" y="490"/>
      <point x="549" y="508"/>
      <point x="484" y="508" type="curve"/>
      <point x="348" y="508"/>
      <point x="247" y="447"/>
      <point x="247" y="322" type="curve"/>
      <point x="247" y="201"/>
      <point x="339" y="141"/>
      <point x="466" y="141" type="curve"/>
      <point x="542" y="141"/>
      <point x="595" y="152"/>
      <point x="656" y="187" type="curve"/>
      <point x="616" y="242"/>
      <point x="656" y="187"/>
      <point x="616" y="242" type="curve"/>
      <point x="563" y="215"/>
      <point x="522" y="208"/>
      <point x="471" y="208" type="curve"/>
      <point x="391" y="208"/>
      <point x="337" y="249"/>
      <point x="337" y="325" type="curve"/>
      <point x="337" y="403"/>
      <point x="396" y="440"/>
      <point x="481" y="440" type="curve"/>
      <point x="518" y="440"/>
      <point x="559" y="434"/>
      <point x="610" y="411" type="curve"/>
      <point x="651" y="463"/>
      <point x="609" y="411"/>
    </contour>
  </outline>
</glyph>
<glyph name="ordfeminine" format="1">
  <advance width="477"/>
  <unicode hex="00AA"/>
  <outline>
    <contour>
      <point x="413" y="426" type="curve"/>
      <point x="413" y="513"/>
      <point x="413" y="586"/>
      <point x="413" y="673" type="curve"/>
      <point x="413" y="759"/>
      <point x="334" y="779"/>
      <point x="239" y="779" type="curve"/>
      <point x="167" y="779"/>
      <point x="110" y="758"/>
      <point x="66" y="728" type="curve"/>
      <point x="93" y="682"/>
      <point x="72" y="721"/>
      <point x="99" y="676" type="curve"/>
      <point x="128" y="699"/>
      <point x="173" y="720"/>
      <point x="228" y="720" type="curve"/>
      <point x="285" y="720"/>
      <point x="336" y="710"/>
      <point x="336" y="659" type="curve"/>
      <point x="336" y="578"/>
      <point x="336" y="507"/>
      <point x="336" y="426" type="curve"/>
      <point x="407" y="426"/>
      <point x="341" y="426"/>
    </contour>
    <contour>
      <point x="372" y="649" type="curve"/>
      <point x="308" y="643"/>
      <point x="267" y="642"/>
      <point x="202" y="635" type="curve"/>
      <point x="114" y="627"/>
      <point x="45" y="608"/>
      <point x="45" y="528" type="curve"/>
      <point x="45" y="450"/>
      <point x="108" y="421"/>
      <point x="195" y="421" type="curve"/>
      <point x="283" y="421"/>
      <point x="331" y="462"/>
      <point x="391" y="525" type="curve"/>
      <point x="358" y="552"/>
      <point x="388" y="528"/>
      <point x="354" y="555" type="curve"/>
      <point x="312" y="511"/>
      <point x="269" y="478"/>
      <point x="208" y="478" type="curve"/>
      <point x="159" y="478"/>
      <point x="122" y="490"/>
      <point x="122" y="529" type="curve"/>
      <point x="122" y="568"/>
      <point x="157" y="579"/>
      <point x="199" y="583" type="curve"/>
      <point x="266" y="589"/>
      <point x="308" y="593"/>
      <point x="376" y="600" type="curve"/>
      <point x="372" y="645"/>
      <point x="375" y="604"/>
    </contour>
  </outline>
</glyph>
<glyph name="guillemotleft" format="1">
  <advance width="668"/>
  <unicode hex="00AB"/>
  <outline>
    <contour>
      <point x="311" y="452" type="curve"/>
      <point x="265" y="430"/>
      <point x="86" y="352"/>
      <point x="40" y="330" type="curve"/>
      <point x="40" y="239"/>
      <point x="40" y="328"/>
      <point x="40" y="237" type="curve"/>
      <point x="86" y="260"/>
      <point x="265" y="339"/>
      <point x="311" y="361" type="curve"/>
      <point x="311" y="452"/>
      <point x="311" y="362"/>
    </contour>
    <contour>
      <point x="311" y="208" type="curve"/>
      <point x="265" y="230"/>
      <point x="86" y="307"/>
      <point x="40" y="330" type="curve"/>
      <point x="40" y="239"/>
      <point x="40" y="328"/>
      <point x="40" y="237" type="curve"/>
      <point x="86" y="216"/>
      <point x="265" y="139"/>
      <point x="311" y="116" type="curve"/>
      <point x="311" y="207"/>
      <point x="311" y="117"/>
    </contour>
    <contour>
      <point x="604" y="452" type="curve"/>
      <point x="558" y="430"/>
      <point x="379" y="352"/>
      <point x="334" y="330" type="curve"/>
      <point x="334" y="239"/>
      <point x="334" y="328"/>
      <point x="334" y="237" type="curve"/>
      <point x="379" y="260"/>
      <point x="558" y="339"/>
      <point x="604" y="361" type="curve"/>
      <point x="604" y="452"/>
      <point x="604" y="362"/>
    </contour>
    <contour>
      <point x="604" y="208" type="curve"/>
      <point x="558" y="230"/>
      <point x="379" y="307"/>
      <point x="334" y="330" type="curve"/>
      <point x="334" y="239"/>
      <point x="334" y="328"/>
      <point x="334" y="237" type="curve"/>
      <point x="379" y="216"/>
      <point x="558" y="139"/>
      <point x="604" y="116" type="curve"/>
      <point x="604" y="207"/>
      <point x="604" y="117"/>
    </contour>
  </outline>
</glyph>
<glyph name="logicalnot" format="1">
  <advance width="752"/>
  <unicode hex="00AC"/>
  <outline>
    <contour>
      <point x="67" y="266" type="curve"/>
      <point x="682" y="266" type="line"/>
      <point x="682" y="357"/>
      <point x="682" y="266"/>
      <point x="682" y="357" type="curve"/>
      <point x="67" y="357" type="line"/>
      <point x="67" y="266"/>
      <point x="67" y="357"/>
    </contour>
    <contour>
      <point x="682" y="144" type="curve"/>
      <point x="682" y="357" type="line"/>
      <point x="571" y="357"/>
      <point x="688" y="357"/>
      <point x="577" y="357" type="curve"/>
      <point x="577" y="144" type="line"/>
      <point x="688" y="144"/>
      <point x="571" y="144"/>
    </contour>
  </outline>
</glyph>
<glyph name="registered" format="1">
  <advance width="943"/>
  <unicode hex="00AE"/>
  <outline>
    <contour>
      <point x="134" y="323" type="curve"/>
      <point x="134" y="503"/>
      <point x="283" y="584"/>
      <point x="476" y="584" type="curve"/>
      <point x="665" y="584"/>
      <point x="809" y="499"/>
      <point x="809" y="320" type="curve"/>
      <point x="809" y="147"/>
      <point x="669" y="63"/>
      <point x="485" y="63" type="curve"/>
      <point x="289" y="63"/>
      <point x="134" y="141"/>
      <point x="134" y="323" type="curve"/>
      <point x="98" y="323"/>
      <point x="87" y="323"/>
      <point x="51" y="323" type="curve"/>
      <point x="51" y="100"/>
      <point x="239" y="3"/>
      <point x="481" y="3" type="curve"/>
      <point x="715" y="3"/>
      <point x="892" y="105"/>
      <point x="892" y="324" type="curve"/>
      <point x="892" y="544"/>
      <point x="712" y="645"/>
      <point x="476" y="645" type="curve"/>
      <point x="236" y="645"/>
      <point x="51" y="546"/>
      <point x="51" y="323" type="curve"/>
      <point x="87" y="323"/>
      <point x="98" y="323"/>
    </contour>
    <contour>
      <point x="436" y="314" type="curve"/>
      <point x="464" y="279"/>
      <point x="533" y="179"/>
      <point x="561" y="143" type="curve"/>
      <point x="612" y="143"/>
      <point x="595" y="143"/>
      <point x="656" y="143" type="curve"/>
      <point x="628" y="181"/>
      <point x="562" y="274"/>
      <point x="534" y="311" type="curve"/>
      <point x="433" y="311"/>
      <point x="537" y="314"/>
    </contour>
    <contour>
      <point x="419" y="143" type="curve"/>
      <point x="419" y="259"/>
      <point x="419" y="387"/>
      <point x="419" y="503" type="curve"/>
      <point x="368" y="503"/>
      <point x="382" y="503"/>
      <point x="329" y="503" type="curve"/>
      <point x="329" y="388"/>
      <point x="329" y="259"/>
      <point x="329" y="143" type="curve"/>
      <point x="386" y="143"/>
      <point x="367" y="143"/>
    </contour>
    <contour>
      <point x="377" y="277" type="curve"/>
      <point x="402" y="277"/>
      <point x="427" y="277"/>
      <point x="452" y="277" type="curve"/>
      <point x="553" y="277"/>
      <point x="631" y="299"/>
      <point x="631" y="392" type="curve"/>
      <point x="631" y="472"/>
      <point x="561" y="503"/>
      <point x="472" y="503" type="curve"/>
      <point x="455" y="503"/>
      <point x="430" y="503"/>
      <point x="412" y="503" type="curve"/>
      <point x="329" y="439"/>
      <point x="420" y="503"/>
      <point x="329" y="436" type="curve"/>
      <point x="372" y="436"/>
      <point x="414" y="436"/>
      <point x="456" y="436" type="curve"/>
      <point x="503" y="436"/>
      <point x="542" y="429"/>
      <point x="542" y="388" type="curve"/>
      <point x="542" y="349"/>
      <point x="507" y="344"/>
      <point x="464" y="344" type="curve"/>
      <point x="435" y="344"/>
      <point x="406" y="344"/>
      <point x="377" y="344" type="curve"/>
      <point x="377" y="277"/>
      <point x="377" y="344"/>
    </contour>
  </outline>
</glyph>
<glyph name="macron" format="1">
  <advance width="395"/>
  <unicode hex="00AF"/>
  <outline>
    <contour>
      <point x="314" y="666" type="curve"/>
      <point x="219" y="666"/>
      <point x="124" y="666"/>
      <point x="30" y="666" type="curve"/>
      <point x="30" y="584"/>
      <point x="30" y="666"/>
      <point x="30" y="584" type="curve"/>
      <point x="124" y="584"/>
      <point x="219" y="584"/>
      <point x="314" y="584" type="curve"/>
      <point x="314" y="666"/>
      <point x="314" y="584"/>
    </contour>
    <contour>
      <point x="174" y="584" type="move" name="_top"/>
    </contour>
  </outline>
</glyph>
<glyph name="degree" format="1">
  <advance width="560"/>
  <unicode hex="00B0"/>
  <outline>
    <contour>
      <point x="515" y="474" type="curve"/>
      <point x="515" y="608"/>
      <point x="420" y="684"/>
      <point x="281" y="684" type="curve"/>
      <point x="141" y="684"/>
      <point x="46" y="610"/>
      <point x="46" y="476" type="curve"/>
      <point x="139" y="476"/>
      <point x="50" y="476"/>
      <point x="143" y="476" type="curve"/>
      <point x="143" y="555"/>
      <point x="195" y="604"/>
      <point x="279" y="604" type="curve"/>
      <point x="361" y="604"/>
      <point x="417" y="557"/>
      <point x="417" y="474" type="curve"/>
      <point x="417" y="391"/>
      <point x="364" y="338"/>
      <point x="281" y="338" type="curve"/>
      <point x="196" y="338"/>
      <point x="143" y="392"/>
      <point x="143" y="476" type="curve"/>
      <point x="50" y="476"/>
      <point x="139" y="476"/>
      <point x="46" y="476" type="curve"/>
      <point x="46" y="339"/>
      <point x="138" y="259"/>
      <point x="278" y="259" type="curve"/>
      <point x="419" y="259"/>
      <point x="515" y="337"/>
    </contour>
  </outline>
</glyph>
<glyph name="plusminus" format="1">
  <advance width="710"/>
  <unicode hex="00B1"/>
  <outline>
    <contour>
      <point x="54" y="20" type="line"/>
      <point x="656" y="20" type="line"/>
      <point x="656" y="111" type="line"/>
      <point x="54" y="111" type="line"/>
    </contour>
    <contour>
      <point x="54" y="266" type="curve"/>
      <point x="656" y="266" type="line"/>
      <point x="656" y="357"/>
      <point x="656" y="266"/>
      <point x="656" y="357" type="curve"/>
      <point x="54" y="357" type="line"/>
      <point x="54" y="266"/>
      <point x="54" y="357"/>
    </contour>
    <contour>
      <point x="408" y="21" type="curve"/>
      <point x="408" y="587" type="line"/>
      <point x="298" y="587"/>
      <point x="415" y="587"/>
      <point x="304" y="587" type="curve"/>
      <point x="304" y="21" type="line"/>
      <point x="415" y="21"/>
      <point x="298" y="21"/>
    </contour>
  </outline>
</glyph>
<glyph name="twosuperior" format="1">
  <advance width="551"/>
  <unicode hex="00B2"/>
  <outline>
    <contour>
      <point x="46" y="275" type="curve"/>
      <point x="227" y="275"/>
      <point x="363" y="275"/>
      <point x="498" y="275" type="curve"/>
      <point x="498" y="319"/>
      <point x="498" y="320"/>
      <point x="498" y="356" type="curve"/>
      <point x="350" y="356"/>
      <point x="194" y="356"/>
      <point x="46" y="356" type="curve"/>
      <point x="46" y="275"/>
      <point x="46" y="356"/>
    </contour>
    <contour>
      <point x="135" y="576" type="curve"/>
      <point x="172" y="615"/>
      <point x="209" y="633"/>
      <point x="260" y="633" type="curve"/>
      <point x="315" y="633"/>
      <point x="359" y="617"/>
      <point x="359" y="574" type="curve"/>
      <point x="359" y="531"/>
      <point x="322" y="514"/>
      <point x="286" y="489" type="curve"/>
      <point x="206" y="444"/>
      <point x="126" y="400"/>
      <point x="46" y="356" type="curve"/>
      <point x="50" y="277"/>
      <point x="49" y="356"/>
      <point x="53" y="277" type="curve"/>
      <point x="166" y="337"/>
      <point x="258" y="379"/>
      <point x="341" y="427" type="curve"/>
      <point x="409" y="471"/>
      <point x="468" y="502"/>
      <point x="468" y="577" type="curve"/>
      <point x="468" y="676"/>
      <point x="381" y="714"/>
      <point x="272" y="714" type="curve"/>
      <point x="181" y="714"/>
      <point x="111" y="689"/>
      <point x="62" y="624" type="curve"/>
      <point x="135" y="576"/>
      <point x="62" y="624"/>
    </contour>
    <contour>
      <point x="266" y="713" type="move" name="_top"/>
    </contour>
    <contour>
      <point x="274" y="275" type="move" name="_bottom"/>
    </contour>
  </outline>
</glyph>
<glyph name="threesuperior" format="1">
  <advance width="486"/>
  <unicode hex="00B3"/>
  <outline>
    <contour>
      <point x="95" y="595" type="curve"/>
      <point x="134" y="623"/>
      <point x="176" y="635"/>
      <point x="212" y="635" type="curve"/>
      <point x="267" y="635"/>
      <point x="312" y="626"/>
      <point x="312" y="583" type="curve"/>
      <point x="312" y="531"/>
      <point x="231" y="531"/>
      <point x="159" y="528" type="curve"/>
      <point x="159" y="461"/>
      <point x="159" y="528"/>
      <point x="159" y="461" type="curve"/>
      <point x="296" y="463"/>
      <point x="421" y="473"/>
      <point x="421" y="588" type="curve"/>
      <point x="421" y="686"/>
      <point x="333" y="712"/>
      <point x="223" y="712" type="curve"/>
      <point x="157" y="712"/>
      <point x="96" y="691"/>
      <point x="48" y="653" type="curve"/>
      <point x="95" y="595"/>
      <point x="48" y="653"/>
    </contour>
    <contour>
      <point x="44" y="306" type="curve"/>
      <point x="96" y="283"/>
      <point x="145" y="268"/>
      <point x="201" y="268" type="curve"/>
      <point x="334" y="265"/>
      <point x="443" y="290"/>
      <point x="440" y="403" type="curve"/>
      <point x="440" y="529"/>
      <point x="302" y="517"/>
      <point x="159" y="519" type="curve"/>
      <point x="159" y="459"/>
      <point x="159" y="519"/>
      <point x="159" y="459" type="curve"/>
      <point x="246" y="457"/>
      <point x="331" y="460"/>
      <point x="331" y="403" type="curve"/>
      <point x="331" y="352"/>
      <point x="276" y="342"/>
      <point x="212" y="344" type="curve"/>
      <point x="173" y="344"/>
      <point x="135" y="351"/>
      <point x="87" y="369" type="curve"/>
      <point x="44" y="306"/>
      <point x="87" y="369"/>
    </contour>
    <contour>
      <point x="237" y="713" type="move" name="_top"/>
    </contour>
    <contour>
      <point x="224" y="267" type="move" name="_bottom"/>
    </contour>
  </outline>
</glyph>
<glyph name="acute" format="1">
  <advance width="293"/>
  <unicode hex="00B4"/>
  <outline>
    <contour>
      <point x="84" y="588" type="line"/>
      <point x="271" y="754" type="line"/>
      <point x="125" y="754" type="line"/>
      <point x="-27" y="588" type="line"/>
    </contour>
    <contour>
      <point x="38" y="589" type="move" name="_top"/>
    </contour>
  </outline>
</glyph>
<glyph name="paragraph" format="1">
  <advance width="909"/>
  <unicode hex="00B6"/>
  <outline>
    <contour>
      <point x="545" y="639" type="curve"/>
      <point x="734" y="639"/>
      <point x="545" y="639"/>
      <point x="734" y="639" type="curve"/>
      <point x="734" y="722"/>
      <point x="734" y="639"/>
      <point x="734" y="722" type="curve"/>
      <point x="671" y="722"/>
      <point x="607" y="722"/>
      <point x="545" y="722" type="curve"/>
      <point x="545" y="639"/>
      <point x="545" y="722"/>
    </contour>
    <contour>
      <point x="525" y="375" type="curve"/>
      <point x="461" y="351"/>
      <point x="412" y="339"/>
      <point x="343" y="339" type="curve"/>
      <point x="233" y="339"/>
      <point x="144" y="380"/>
      <point x="144" y="480" type="curve"/>
      <point x="144" y="599"/>
      <point x="255" y="639"/>
      <point x="389" y="639" type="curve"/>
      <point x="439" y="639"/>
      <point x="490" y="639"/>
      <point x="541" y="639" type="curve"/>
      <point x="541" y="722"/>
      <point x="541" y="639"/>
      <point x="541" y="722" type="curve"/>
      <point x="485" y="722"/>
      <point x="429" y="722"/>
      <point x="374" y="722" type="curve"/>
      <point x="186" y="722"/>
      <point x="33" y="653"/>
      <point x="33" y="484" type="curve"/>
      <point x="33" y="324"/>
      <point x="175" y="259"/>
      <point x="353" y="256" type="curve"/>
      <point x="428" y="256"/>
      <point x="491" y="275"/>
      <point x="560" y="302" type="curve"/>
      <point x="525" y="375"/>
      <point x="560" y="302"/>
    </contour>
    <contour>
      <point x="601" y="0" type="curve"/>
      <point x="601" y="241"/>
      <point x="601" y="481"/>
      <point x="601" y="722" type="curve"/>
      <point x="490" y="722"/>
      <point x="601" y="722"/>
      <point x="490" y="722" type="curve"/>
      <point x="490" y="481"/>
      <point x="490" y="241"/>
      <point x="490" y="0" type="curve"/>
      <point x="601" y="0"/>
      <point x="490" y="0"/>
    </contour>
    <contour>
      <point x="835" y="0" type="curve"/>
      <point x="835" y="241"/>
      <point x="835" y="481"/>
      <point x="835" y="722" type="curve"/>
      <point x="725" y="722"/>
      <point x="835" y="722"/>
      <point x="725" y="722" type="curve"/>
      <point x="725" y="481"/>
      <point x="725" y="241"/>
      <point x="725" y="0" type="curve"/>
      <point x="835" y="0"/>
      <point x="725" y="0"/>
    </contour>
  </outline>
</glyph>
<glyph name="periodcentered" format="1">
  <advance width="240"/>
  <unicode hex="00B7"/>
  <outline>
    <contour>
      <point x="186" y="440" type="curve"/>
      <point x="186" y="477"/>
      <point x="157" y="495"/>
      <point x="119" y="495" type="curve"/>
      <point x="80" y="495"/>
      <point x="54" y="475"/>
      <point x="54" y="440" type="curve"/>
      <point x="178" y="440"/>
      <point x="61" y="440"/>
      <point x="186" y="440" type="curve"/>
      <point x="186" y="402"/>
      <point x="158" y="386"/>
      <point x="118" y="386" type="curve"/>
      <point x="79" y="386"/>
      <point x="54" y="404"/>
      <point x="54" y="440" type="curve"/>
      <point x="178" y="440"/>
      <point x="61" y="440"/>
    </contour>
  </outline>
</glyph>
<glyph name="cedilla" format="1">
  <advance width="365"/>
  <unicode hex="00B8"/>
  <outline>
    <contour>
      <point x="177" y="123" type="curve"/>
      <point x="159" y="100"/>
      <point x="101" y="22"/>
      <point x="84" y="-1" type="curve"/>
      <point x="159" y="-67"/>
      <point x="84" y="-1"/>
      <point x="159" y="-67" type="curve"/>
      <point x="179" y="-41"/>
      <point x="242" y="39"/>
      <point x="262" y="66" type="curve"/>
      <point x="177" y="123"/>
      <point x="262" y="66"/>
    </contour>
    <contour>
      <point x="159" y="-68" type="curve"/>
      <point x="169" y="-62"/>
      <point x="178" y="-59"/>
      <point x="190" y="-59" type="curve"/>
      <point x="209" y="-59"/>
      <point x="224" y="-67"/>
      <point x="224" y="-86" type="curve"/>
      <point x="224" y="-109"/>
      <point x="202" y="-115"/>
      <point x="175" y="-115" type="curve"/>
      <point x="146" y="-115"/>
      <point x="123" y="-109"/>
      <point x="88" y="-95" type="curve"/>
      <point x="57" y="-158"/>
      <point x="88" y="-95"/>
      <point x="57" y="-158" type="curve"/>
      <point x="96" y="-175"/>
      <point x="128" y="-184"/>
      <point x="171" y="-184" type="curve"/>
      <point x="257" y="-184"/>
      <point x="326" y="-160"/>
      <point x="326" y="-83" type="curve"/>
      <point x="326" y="-13"/>
      <point x="270" y="20"/>
      <point x="196" y="20" type="curve"/>
      <point x="154" y="20"/>
      <point x="124" y="13"/>
      <point x="84" y="-1" type="curve"/>
      <point x="159" y="-68"/>
      <point x="84" y="-1"/>
    </contour>
    <contour>
      <point x="244" y="66" type="move" name="_bottom"/>
    </contour>
  </outline>
</glyph>
<glyph name="onesuperior" format="1">
  <advance width="341"/>
  <unicode hex="00B9"/>
  <outline>
    <contour>
      <point x="63" y="537" type="line"/>
      <point x="272" y="702" type="line"/>
      <point x="164" y="705" type="line"/>
      <point x="16" y="597" type="line"/>
    </contour>
    <contour>
      <point x="272" y="275" type="curve"/>
      <point x="272" y="705" type="line"/>
      <point x="164" y="705" type="line"/>
      <point x="164" y="275" type="line"/>
      <point x="247" y="275"/>
      <point x="204" y="275"/>
    </contour>
    <contour>
      <point x="211" y="704" type="move" name="_top"/>
    </contour>
    <contour>
      <point x="220" y="275" type="move" name="_bottom"/>
    </contour>
  </outline>
</glyph>
<glyph name="ordmasculine" format="1">
  <advance width="514"/>
  <unicode hex="00BA"/>
  <outline>
    <contour>
      <point x="119" y="603" type="curve"/>
      <point x="119" y="680"/>
      <point x="173" y="724"/>
      <point x="254" y="724" type="curve"/>
      <point x="339" y="724"/>
      <point x="394" y="680"/>
      <point x="394" y="602" type="curve"/>
      <point x="394" y="522"/>
      <point x="340" y="478"/>
      <point x="261" y="478" type="curve"/>
      <point x="176" y="478"/>
      <point x="119" y="521"/>
      <point x="119" y="603" type="curve"/>
      <point x="52" y="603"/>
      <point x="109" y="603"/>
      <point x="41" y="603" type="curve"/>
      <point x="41" y="481"/>
      <point x="130" y="419"/>
      <point x="257" y="419" type="curve"/>
      <point x="384" y="419"/>
      <point x="473" y="480"/>
      <point x="473" y="602" type="curve"/>
      <point x="473" y="720"/>
      <point x="386" y="782"/>
      <point x="258" y="782" type="curve"/>
      <point x="129" y="782"/>
      <point x="41" y="720"/>
      <point x="41" y="603" type="curve"/>
      <point x="109" y="603"/>
      <point x="52" y="603"/>
    </contour>
  </outline>
</glyph>
<glyph name="guillemotright" format="1">
  <advance width="672"/>
  <unicode hex="00BB"/>
  <outline>
    <contour>
      <point x="360" y="452" type="curve"/>
      <point x="406" y="430"/>
      <point x="585" y="352"/>
      <point x="631" y="330" type="curve"/>
      <point x="631" y="239"/>
      <point x="631" y="328"/>
      <point x="631" y="237" type="curve"/>
      <point x="585" y="260"/>
      <point x="406" y="339"/>
      <point x="360" y="361" type="curve"/>
      <point x="360" y="452"/>
      <point x="360" y="362"/>
    </contour>
    <contour>
      <point x="360" y="208" type="curve"/>
      <point x="406" y="230"/>
      <point x="585" y="307"/>
      <point x="631" y="330" type="curve"/>
      <point x="631" y="239"/>
      <point x="631" y="328"/>
      <point x="631" y="237" type="curve"/>
      <point x="585" y="216"/>
      <point x="406" y="139"/>
      <point x="360" y="116" type="curve"/>
      <point x="360" y="207"/>
      <point x="360" y="117"/>
    </contour>
    <contour>
      <point x="67" y="452" type="curve"/>
      <point x="113" y="430"/>
      <point x="292" y="352"/>
      <point x="337" y="330" type="curve"/>
      <point x="337" y="239"/>
      <point x="337" y="328"/>
      <point x="337" y="237" type="curve"/>
      <point x="292" y="260"/>
      <point x="113" y="339"/>
      <point x="67" y="361" type="curve"/>
      <point x="67" y="452"/>
      <point x="67" y="362"/>
    </contour>
    <contour>
      <point x="67" y="208" type="curve"/>
      <point x="113" y="230"/>
      <point x="292" y="307"/>
      <point x="337" y="330" type="curve"/>
      <point x="337" y="239"/>
      <point x="337" y="328"/>
      <point x="337" y="237" type="curve"/>
      <point x="292" y="216"/>
      <point x="113" y="139"/>
      <point x="67" y="116" type="curve"/>
      <point x="67" y="207"/>
      <point x="67" y="117"/>
    </contour>
  </outline>
</glyph>
<glyph name="onequarter" format="1">
  <advance width="1169"/>
  <unicode hex="00BC"/>
  <outline>
    <contour>
      <point x="377" y="-53" type="line"/>
      <point x="914" y="722" type="line"/>
      <point x="811" y="722" type="line"/>
      <point x="274" y="-53" type="line"/>
    </contour>
    <contour>
      <point x="73" y="557" type="line"/>
      <point x="282" y="721" type="line"/>
      <point x="174" y="725" type="line"/>
      <point x="26" y="616" type="line"/>
    </contour>
    <contour>
      <point x="282" y="294" type="curve"/>
      <point x="282" y="725" type="line"/>
      <point x="174" y="725" type="line"/>
      <point x="174" y="294" type="line"/>
      <point x="257" y="294"/>
      <point x="214" y="294"/>
    </contour>
    <contour>
      <point x="1135" y="148" type="line"/>
      <point x="675" y="148" type="line"/>
      <point x="675" y="71" type="line"/>
      <point x="1135" y="71" type="line"/>
    </contour>
    <contour>
      <point x="701" y="81" type="line"/>
      <point x="1011" y="378" type="line"/>
      <point x="925" y="392" type="line"/>
      <point x="675" y="148" type="line"/>
    </contour>
    <contour>
      <point x="1034" y="-60" type="line"/>
      <point x="1034" y="392" type="line"/>
      <point x="925" y="392" type="line"/>
      <point x="925" y="-60" type="line"/>
    </contour>
  </outline>
</glyph>
<glyph name="onehalf" format="1">
  <advance width="1231"/>
  <unicode hex="00BD"/>
  <outline>
    <contour>
      <point x="380" y="-53" type="line"/>
      <point x="917" y="722" type="line"/>
      <point x="814" y="722" type="line"/>
      <point x="277" y="-53" type="line"/>
    </contour>
    <contour>
      <point x="73" y="557" type="line"/>
      <point x="282" y="721" type="line"/>
      <point x="174" y="725" type="line"/>
      <point x="26" y="616" type="line"/>
    </contour>
    <contour>
      <point x="282" y="294" type="curve"/>
      <point x="282" y="725" type="line"/>
      <point x="174" y="725" type="line"/>
      <point x="174" y="294" type="line"/>
      <point x="257" y="294"/>
      <point x="214" y="294"/>
    </contour>
    <contour>
      <point x="742" y="-59" type="curve"/>
      <point x="923" y="-59"/>
      <point x="1059" y="-59"/>
      <point x="1194" y="-59" type="curve"/>
      <point x="1194" y="-14"/>
      <point x="1194" y="-14"/>
      <point x="1194" y="22" type="curve"/>
      <point x="1046" y="22"/>
      <point x="890" y="22"/>
      <point x="742" y="22" type="curve"/>
      <point x="742" y="-58"/>
      <point x="742" y="22"/>
    </contour>
    <contour>
      <point x="831" y="243" type="curve"/>
      <point x="869" y="282"/>
      <point x="905" y="300"/>
      <point x="956" y="300" type="curve"/>
      <point x="1011" y="300"/>
      <point x="1055" y="284"/>
      <point x="1055" y="241" type="curve"/>
      <point x="1055" y="197"/>
      <point x="1018" y="181"/>
      <point x="982" y="156" type="curve"/>
      <point x="902" y="111"/>
      <point x="822" y="67"/>
      <point x="742" y="22" type="curve"/>
      <point x="746" y="-56"/>
      <point x="745" y="22"/>
      <point x="749" y="-56" type="curve"/>
      <point x="862" y="3"/>
      <point x="954" y="46"/>
      <point x="1038" y="94" type="curve"/>
      <point x="1105" y="138"/>
      <point x="1164" y="169"/>
      <point x="1164" y="244" type="curve"/>
      <point x="1164" y="343"/>
      <point x="1078" y="381"/>
      <point x="968" y="381" type="curve"/>
      <point x="877" y="381"/>
      <point x="807" y="355"/>
      <point x="758" y="290" type="curve"/>
      <point x="831" y="243"/>
      <point x="758" y="290"/>
    </contour>
  </outline>
</glyph>
<glyph name="threequarters" format="1">
  <advance width="1167"/>
  <unicode hex="00BE"/>
  <outline>
    <contour>
      <point x="390" y="-53" type="line"/>
      <point x="926" y="722" type="line"/>
      <point x="824" y="722" type="line"/>
      <point x="287" y="-53" type="line"/>
    </contour>
    <contour>
      <point x="90" y="605" type="curve"/>
      <point x="128" y="633"/>
      <point x="170" y="644"/>
      <point x="206" y="644" type="curve"/>
      <point x="261" y="644"/>
      <point x="306" y="636"/>
      <point x="306" y="593" type="curve"/>
      <point x="306" y="541"/>
      <point x="225" y="540"/>
      <point x="153" y="538" type="curve"/>
      <point x="153" y="471"/>
      <point x="153" y="538"/>
      <point x="153" y="471" type="curve"/>
      <point x="290" y="472"/>
      <point x="415" y="483"/>
      <point x="415" y="598" type="curve"/>
      <point x="415" y="696"/>
      <point x="327" y="722"/>
      <point x="217" y="722" type="curve"/>
      <point x="151" y="722"/>
      <point x="90" y="701"/>
      <point x="42" y="663" type="curve"/>
      <point x="90" y="605"/>
      <point x="42" y="663"/>
    </contour>
    <contour>
      <point x="38" y="316" type="curve"/>
      <point x="90" y="292"/>
      <point x="140" y="278"/>
      <point x="196" y="278" type="curve"/>
      <point x="328" y="275"/>
      <point x="438" y="300"/>
      <point x="434" y="413" type="curve"/>
      <point x="434" y="538"/>
      <point x="297" y="527"/>
      <point x="153" y="529" type="curve"/>
      <point x="153" y="469"/>
      <point x="153" y="529"/>
      <point x="153" y="469" type="curve"/>
      <point x="240" y="467"/>
      <point x="325" y="470"/>
      <point x="325" y="413" type="curve"/>
      <point x="325" y="362"/>
      <point x="271" y="352"/>
      <point x="206" y="354" type="curve"/>
      <point x="167" y="354"/>
      <point x="129" y="361"/>
      <point x="81" y="378" type="curve"/>
      <point x="38" y="316"/>
      <point x="81" y="378"/>
    </contour>
    <contour>
      <point x="1137" y="148" type="line"/>
      <point x="677" y="148" type="line"/>
      <point x="677" y="71" type="line"/>
      <point x="1137" y="71" type="line"/>
    </contour>
    <contour>
      <point x="703" y="81" type="line"/>
      <point x="1013" y="378" type="line"/>
      <point x="927" y="392" type="line"/>
      <point x="677" y="148" type="line"/>
    </contour>
    <contour>
      <point x="1036" y="-60" type="line"/>
      <point x="1036" y="392" type="line"/>
      <point x="927" y="392" type="line"/>
      <point x="927" y="-60" type="line"/>
    </contour>
  </outline>
</glyph>
<glyph name="questiondown" format="1">
  <advance width="602"/>
  <unicode hex="00BF"/>
  <outline>
    <contour>
      <point x="390" y="339" type="curve"/>
      <point x="390" y="376"/>
      <point x="390" y="447"/>
      <point x="390" y="484" type="curve"/>
      <point x="280" y="484"/>
      <point x="390" y="484"/>
      <point x="280" y="484" type="curve"/>
      <point x="280" y="447"/>
      <point x="280" y="376"/>
      <point x="280" y="339" type="curve"/>
      <point x="390" y="339"/>
      <point x="280" y="339"/>
    </contour>
    <contour>
      <point x="502" y="120" type="line"/>
      <point x="461" y="83"/>
      <point x="397" y="51"/>
      <point x="325" y="51" type="curve"/>
      <point x="225" y="51"/>
      <point x="145" y="92"/>
      <point x="145" y="186" type="curve"/>
      <point x="145" y="292"/>
      <point x="247" y="339"/>
      <point x="378" y="339" type="curve"/>
      <point x="378" y="370"/>
      <point x="378" y="391"/>
      <point x="378" y="422" type="curve"/>
      <point x="187" y="422"/>
      <point x="39" y="345"/>
      <point x="39" y="186" type="curve"/>
      <point x="39" y="38"/>
      <point x="161" y="-35"/>
      <point x="319" y="-35" type="curve"/>
      <point x="416" y="-35"/>
      <point x="493" y="-3"/>
      <point x="558" y="56" type="curve"/>
    </contour>
    <contour>
      <point x="268" y="687" type="curve"/>
      <point x="268" y="650"/>
      <point x="296" y="633"/>
      <point x="334" y="633" type="curve"/>
      <point x="372" y="633"/>
      <point x="398" y="653"/>
      <point x="398" y="687" type="curve"/>
      <point x="268" y="687"/>
      <point x="398" y="687"/>
      <point x="268" y="687" type="curve"/>
      <point x="268" y="724"/>
      <point x="296" y="740"/>
      <point x="335" y="740" type="curve"/>
      <point x="373" y="740"/>
      <point x="398" y="722"/>
      <point x="398" y="687" type="curve"/>
      <point x="268" y="687"/>
      <point x="398" y="687"/>
    </contour>
  </outline>
</glyph>
<glyph name="Atilde" format="1">
  <advance width="849"/>
  <unicode hex="00C3"/>
  <outline>
    <contour>
      <point x="636" y="301" type="curve"/>
      <point x="499" y="301"/>
      <point x="361" y="301"/>
      <point x="224" y="301" type="curve"/>
      <point x="179" y="214"/>
      <point x="224" y="301"/>
      <point x="179" y="214" type="curve"/>
      <point x="343" y="214"/>
      <point x="507" y="214"/>
      <point x="671" y="214" type="curve"/>
      <point x="636" y="301"/>
      <point x="671" y="214"/>
    </contour>
    <contour>
      <point x="835" y="0" type="curve"/>
      <point x="721" y="242"/>
      <point x="603" y="480"/>
      <point x="489" y="722" type="curve"/>
      <point x="388" y="722"/>
      <point x="489" y="722"/>
      <point x="388" y="722" type="curve"/>
      <point x="500" y="482"/>
      <point x="607" y="240"/>
      <point x="719" y="0" type="curve"/>
      <point x="835" y="0"/>
      <point x="719" y="0"/>
    </contour>
    <contour>
      <point x="119" y="0" type="curve"/>
      <point x="244" y="240"/>
      <point x="362" y="482"/>
      <point x="487" y="722" type="curve"/>
      <point x="386" y="722"/>
      <point x="487" y="722"/>
      <point x="386" y="722" type="curve"/>
      <point x="259" y="480"/>
      <point x="125" y="242"/>
      <point x="-2" y="0" type="curve"/>
      <point x="119" y="0"/>
      <point x="-2" y="0"/>
    </contour>
    <contour>
      <point x="621" y="956" type="curve"/>
      <point x="607" y="913"/>
      <point x="586" y="875"/>
      <point x="548" y="875" type="curve"/>
      <point x="508" y="875"/>
      <point x="484" y="887"/>
      <point x="453" y="912" type="curve"/>
      <point x="411" y="946"/>
      <point x="378" y="962"/>
      <point x="325" y="962" type="curve"/>
      <point x="243" y="962"/>
      <point x="194" y="914"/>
      <point x="164" y="830" type="curve"/>
      <point x="246" y="791"/>
      <point x="165" y="829"/>
      <point x="247" y="791" type="curve"/>
      <point x="265" y="842"/>
      <point x="289" y="874"/>
      <point x="329" y="874" type="curve"/>
      <point x="366" y="874"/>
      <point x="387" y="859"/>
      <point x="415" y="836" type="curve"/>
      <point x="461" y="801"/>
      <point x="495" y="787"/>
      <point x="550" y="787" type="curve"/>
      <point x="635" y="787"/>
      <point x="680" y="839"/>
      <point x="708" y="919" type="curve"/>
      <point x="622" y="955"/>
      <point x="708" y="919"/>
    </contour>
  </outline>
</glyph>
<glyph name="Adieresis" format="1">
  <advance width="849"/>
  <unicode hex="00C4"/>
  <outline>
    <contour>
      <point x="636" y="301" type="curve"/>
      <point x="499" y="301"/>
      <point x="361" y="301"/>
      <point x="224" y="301" type="curve"/>
      <point x="179" y="214"/>
      <point x="224" y="301"/>
      <point x="179" y="214" type="curve"/>
      <point x="343" y="214"/>
      <point x="507" y="214"/>
      <point x="671" y="214" type="curve"/>
      <point x="636" y="301"/>
      <point x="671" y="214"/>
    </contour>
    <contour>
      <point x="835" y="0" type="curve"/>
      <point x="721" y="242"/>
      <point x="603" y="480"/>
      <point x="489" y="722" type="curve"/>
      <point x="388" y="722"/>
      <point x="489" y="722"/>
      <point x="388" y="722" type="curve"/>
      <point x="500" y="482"/>
      <point x="607" y="240"/>
      <point x="719" y="0" type="curve"/>
      <point x="835" y="0"/>
      <point x="719" y="0"/>
    </contour>
    <contour>
      <point x="119" y="0" type="curve"/>
      <point x="244" y="240"/>
      <point x="362" y="482"/>
      <point x="487" y="722" type="curve"/>
      <point x="386" y="722"/>
      <point x="487" y="722"/>
      <point x="386" y="722" type="curve"/>
      <point x="259" y="480"/>
      <point x="125" y="242"/>
      <point x="-2" y="0" type="curve"/>
      <point x="119" y="0"/>
      <point x="-2" y="0"/>
    </contour>
    <contour>
      <point x="399" y="848" type="curve"/>
      <point x="399" y="885"/>
      <point x="371" y="903"/>
      <point x="332" y="903" type="curve"/>
      <point x="293" y="903"/>
      <point x="267" y="883"/>
      <point x="267" y="848" type="curve"/>
      <point x="392" y="848"/>
      <point x="275" y="848"/>
      <point x="399" y="848" type="curve"/>
      <point x="399" y="810"/>
      <point x="371" y="794"/>
      <point x="331" y="794" type="curve"/>
      <point x="293" y="794"/>
      <point x="267" y="812"/>
      <point x="267" y="848" type="curve"/>
      <point x="392" y="848"/>
      <point x="275" y="848"/>
    </contour>
    <contour>
      <point x="607" y="848" type="curve"/>
      <point x="607" y="885"/>
      <point x="578" y="903"/>
      <point x="539" y="903" type="curve"/>
      <point x="501" y="903"/>
      <point x="474" y="883"/>
      <point x="474" y="848" type="curve"/>
      <point x="599" y="848"/>
      <point x="482" y="848"/>
      <point x="607" y="848" type="curve"/>
      <point x="607" y="810"/>
      <point x="578" y="794"/>
      <point x="539" y="794" type="curve"/>
      <point x="500" y="794"/>
      <point x="474" y="812"/>
      <point x="474" y="848" type="curve"/>
      <point x="599" y="848"/>
      <point x="482" y="848"/>
    </contour>
  </outline>
</glyph>
<glyph name="Aring" format="1">
  <advance width="849"/>
  <unicode hex="00C5"/>
  <outline>
    <contour>
      <point x="636" y="301" type="curve"/>
      <point x="499" y="301"/>
      <point x="361" y="301"/>
      <point x="224" y="301" type="curve"/>
      <point x="179" y="214"/>
      <point x="224" y="301"/>
      <point x="179" y="214" type="curve"/>
      <point x="343" y="214"/>
      <point x="507" y="214"/>
      <point x="671" y="214" type="curve"/>
      <point x="636" y="301"/>
      <point x="671" y="214"/>
    </contour>
    <contour>
      <point x="835" y="0" type="curve"/>
      <point x="721" y="242"/>
      <point x="603" y="480"/>
      <point x="489" y="722" type="curve"/>
      <point x="388" y="722"/>
      <point x="489" y="722"/>
      <point x="388" y="722" type="curve"/>
      <point x="500" y="482"/>
      <point x="607" y="240"/>
      <point x="719" y="0" type="curve"/>
      <point x="835" y="0"/>
      <point x="719" y="0"/>
    </contour>
    <contour>
      <point x="119" y="0" type="curve"/>
      <point x="244" y="240"/>
      <point x="362" y="482"/>
      <point x="487" y="722" type="curve"/>
      <point x="386" y="722"/>
      <point x="487" y="722"/>
      <point x="386" y="722" type="curve"/>
      <point x="259" y="480"/>
      <point x="125" y="242"/>
      <point x="-2" y="0" type="curve"/>
      <point x="119" y="0"/>
      <point x="-2" y="0"/>
    </contour>
    <contour>
      <point x="257" y="931" type="curve"/>
      <point x="257" y="836"/>
      <point x="335" y="793"/>
      <point x="438" y="793" type="curve"/>
      <point x="543" y="793"/>
      <point x="623" y="835"/>
      <point x="623" y="931" type="curve"/>
      <point x="623" y="1028"/>
      <point x="542" y="1069"/>
      <point x="435" y="1069" type="curve"/>
      <point x="333" y="1069"/>
      <point x="257" y="1026"/>
      <point x="257" y="931" type="curve"/>
      <point x="350" y="931"/>
      <point x="256" y="931"/>
      <point x="349" y="931" type="curve"/>
      <point x="349" y="979"/>
      <point x="387" y="999"/>
      <point x="435" y="999" type="curve"/>
      <point x="488" y="999"/>
      <point x="529" y="983"/>
      <point x="529" y="931" type="curve"/>
      <point x="529" y="882"/>
      <point x="489" y="863"/>
      <point x="438" y="863" type="curve"/>
      <point x="388" y="863"/>
      <point x="349" y="882"/>
      <point x="349" y="931" type="curve"/>
      <point x="256" y="931"/>
      <point x="350" y="931"/>
    </contour>
  </outline>
</glyph>
<glyph name="AE" format="1">
  <advance width="1139"/>
  <unicode hex="00C6"/>
  <outline>
    <contour>
      <point x="536" y="276" type="curve"/>
      <point x="399" y="276"/>
      <point x="355" y="276"/>
      <point x="218" y="276" type="curve"/>
      <point x="172" y="189"/>
      <point x="218" y="276"/>
      <point x="172" y="189" type="curve"/>
      <point x="336" y="189"/>
      <point x="407" y="189"/>
      <point x="571" y="189" type="curve"/>
      <point x="536" y="276"/>
      <point x="571" y="189"/>
    </contour>
    <contour>
      <point x="111" y="0" type="curve"/>
      <point x="621" y="722" type="line"/>
      <point x="520" y="722"/>
      <point x="619" y="722"/>
      <point x="518" y="722" type="curve"/>
      <point x="-10" y="0" type="line"/>
      <point x="110" y="0"/>
      <point x="-9" y="0"/>
    </contour>
    <contour>
      <point x="581" y="332" type="curve"/>
      <point x="718" y="332"/>
      <point x="856" y="332"/>
      <point x="993" y="332" type="curve"/>
      <point x="993" y="414"/>
      <point x="993" y="332"/>
      <point x="993" y="414" type="curve"/>
      <point x="856" y="414"/>
      <point x="718" y="414"/>
      <point x="581" y="414" type="curve"/>
      <point x="581" y="332"/>
      <point x="581" y="414"/>
    </contour>
    <contour>
      <point x="561" y="639" type="curve"/>
      <point x="732" y="639"/>
      <point x="902" y="639"/>
      <point x="1073" y="639" type="curve"/>
      <point x="1073" y="722"/>
      <point x="1073" y="639"/>
      <point x="1073" y="722" type="curve"/>
      <point x="902" y="722"/>
      <point x="732" y="722"/>
      <point x="561" y="722" type="curve"/>
      <point x="561" y="639"/>
      <point x="561" y="722"/>
    </contour>
    <contour>
      <point x="629" y="0" type="curve"/>
      <point x="629" y="722" type="line"/>
      <point x="518" y="722"/>
      <point x="629" y="722"/>
      <point x="518" y="722" type="curve"/>
      <point x="518" y="481"/>
      <point x="518" y="241"/>
      <point x="518" y="0" type="curve"/>
      <point x="629" y="0"/>
      <point x="518" y="0"/>
    </contour>
    <contour>
      <point x="561" y="0" type="curve"/>
      <point x="746" y="0"/>
      <point x="930" y="0"/>
      <point x="1115" y="0" type="curve"/>
      <point x="1115" y="83"/>
      <point x="1115" y="0"/>
      <point x="1115" y="83" type="curve"/>
      <point x="930" y="83"/>
      <point x="746" y="83"/>
      <point x="561" y="83" type="curve"/>
      <point x="561" y="0"/>
      <point x="561" y="83"/>
    </contour>
  </outline>
</glyph>
<glyph name="Ccedilla" format="1">
  <advance width="827"/>
  <unicode hex="00C7"/>
  <outline>
    <contour>
      <point x="801" y="654" type="curve"/>
      <point x="707" y="696"/>
      <point x="608" y="727"/>
      <point x="497" y="727" type="curve"/>
      <point x="230" y="727"/>
      <point x="49" y="599"/>
      <point x="49" y="344" type="curve"/>
      <point x="49" y="108"/>
      <point x="218" y="-5"/>
      <point x="466" y="-5" type="curve"/>
      <point x="611" y="-5"/>
      <point x="702" y="24"/>
      <point x="810" y="91" type="curve"/>
      <point x="765" y="162"/>
      <point x="809" y="91"/>
      <point x="765" y="162" type="curve"/>
      <point x="662" y="103"/>
      <point x="584" y="83"/>
      <point x="471" y="83" type="curve"/>
      <point x="284" y="83"/>
      <point x="160" y="171"/>
      <point x="160" y="348" type="curve"/>
      <point x="160" y="540"/>
      <point x="292" y="641"/>
      <point x="491" y="641" type="curve"/>
      <point x="582" y="641"/>
      <point x="665" y="624"/>
      <point x="756" y="584" type="curve"/>
      <point x="801" y="654"/>
      <point x="756" y="584"/>
    </contour>
    <contour>
      <point x="424" y="61" type="curve"/>
      <point x="407" y="38"/>
      <point x="348" y="-40"/>
      <point x="331" y="-63" type="curve"/>
      <point x="406" y="-129"/>
      <point x="331" y="-63"/>
      <point x="406" y="-129" type="curve"/>
      <point x="427" y="-102"/>
      <point x="489" y="-23"/>
      <point x="509" y="4" type="curve"/>
      <point x="424" y="61"/>
      <point x="509" y="4"/>
    </contour>
    <contour>
      <point x="406" y="-129" type="curve"/>
      <point x="416" y="-124"/>
      <point x="425" y="-121"/>
      <point x="437" y="-121" type="curve"/>
      <point x="457" y="-121"/>
      <point x="471" y="-129"/>
      <point x="471" y="-148" type="curve"/>
      <point x="471" y="-171"/>
      <point x="449" y="-177"/>
      <point x="423" y="-177" type="curve"/>
      <point x="394" y="-177"/>
      <point x="370" y="-171"/>
      <point x="336" y="-157" type="curve"/>
      <point x="304" y="-220"/>
      <point x="336" y="-157"/>
      <point x="304" y="-220" type="curve"/>
      <point x="343" y="-237"/>
      <point x="375" y="-246"/>
      <point x="418" y="-246" type="curve"/>
      <point x="505" y="-246"/>
      <point x="573" y="-222"/>
      <point x="573" y="-145" type="curve"/>
      <point x="573" y="-75"/>
      <point x="517" y="-42"/>
      <point x="443" y="-42" type="curve"/>
      <point x="401" y="-42"/>
      <point x="371" y="-49"/>
      <point x="332" y="-63" type="curve"/>
      <point x="406" y="-129"/>
      <point x="332" y="-63"/>
    </contour>
  </outline>
</glyph>
<glyph name="Egrave" format="1">
  <advance width="709"/>
  <unicode hex="00C8"/>
  <outline>
    <contour>
      <point x="151" y="332" type="curve"/>
      <point x="288" y="332"/>
      <point x="426" y="332"/>
      <point x="564" y="332" type="curve"/>
      <point x="564" y="414"/>
      <point x="564" y="332"/>
      <point x="564" y="414" type="curve"/>
      <point x="426" y="414"/>
      <point x="288" y="414"/>
      <point x="151" y="414" type="curve"/>
      <point x="151" y="332"/>
      <point x="151" y="414"/>
    </contour>
    <contour>
      <point x="131" y="639" type="curve"/>
      <point x="302" y="639"/>
      <point x="472" y="639"/>
      <point x="643" y="639" type="curve"/>
      <point x="643" y="722"/>
      <point x="643" y="639"/>
      <point x="643" y="722" type="curve"/>
      <point x="472" y="722"/>
      <point x="302" y="722"/>
      <point x="131" y="722" type="curve"/>
      <point x="131" y="639"/>
      <point x="131" y="722"/>
    </contour>
    <contour>
      <point x="200" y="0" type="curve"/>
      <point x="200" y="722" type="line"/>
      <point x="88" y="722"/>
      <point x="200" y="722"/>
      <point x="88" y="722" type="curve"/>
      <point x="88" y="481"/>
      <point x="88" y="241"/>
      <point x="88" y="0" type="curve"/>
      <point x="200" y="0"/>
      <point x="88" y="0"/>
    </contour>
    <contour>
      <point x="131" y="0" type="curve"/>
      <point x="316" y="0"/>
      <point x="500" y="0"/>
      <point x="685" y="0" type="curve"/>
      <point x="685" y="83"/>
      <point x="685" y="0"/>
      <point x="685" y="83" type="curve"/>
      <point x="500" y="83"/>
      <point x="316" y="83"/>
      <point x="131" y="83" type="curve"/>
      <point x="131" y="0"/>
      <point x="131" y="83"/>
    </contour>
    <contour>
      <point x="400" y="796" type="line"/>
      <point x="247" y="962" type="line"/>
      <point x="100" y="962" type="line"/>
      <point x="287" y="796" type="line"/>
    </contour>
  </outline>
</glyph>
<glyph name="Eacute" format="1">
  <advance width="707"/>
  <unicode hex="00C9"/>
  <outline>
    <contour>
      <point x="149" y="332" type="curve"/>
      <point x="286" y="332"/>
      <point x="424" y="332"/>
      <point x="562" y="332" type="curve"/>
      <point x="562" y="414"/>
      <point x="562" y="332"/>
      <point x="562" y="414" type="curve"/>
      <point x="424" y="414"/>
      <point x="286" y="414"/>
      <point x="149" y="414" type="curve"/>
      <point x="149" y="332"/>
      <point x="149" y="414"/>
    </contour>
    <contour>
      <point x="130" y="639" type="curve"/>
      <point x="300" y="639"/>
      <point x="471" y="639"/>
      <point x="641" y="639" type="curve"/>
      <point x="641" y="722"/>
      <point x="641" y="639"/>
      <point x="641" y="722" type="curve"/>
      <point x="471" y="722"/>
      <point x="300" y="722"/>
      <point x="130" y="722" type="curve"/>
      <point x="130" y="639"/>
      <point x="130" y="722"/>
    </contour>
    <contour>
      <point x="198" y="0" type="curve"/>
      <point x="198" y="722" type="line"/>
      <point x="87" y="722"/>
      <point x="198" y="722"/>
      <point x="87" y="722" type="curve"/>
      <point x="87" y="481"/>
      <point x="87" y="241"/>
      <point x="87" y="0" type="curve"/>
      <point x="198" y="0"/>
      <point x="87" y="0"/>
    </contour>
    <contour>
      <point x="130" y="0" type="curve"/>
      <point x="314" y="0"/>
      <point x="499" y="0"/>
      <point x="684" y="0" type="curve"/>
      <point x="684" y="83"/>
      <point x="684" y="0"/>
      <point x="684" y="83" type="curve"/>
      <point x="499" y="83"/>
      <point x="314" y="83"/>
      <point x="130" y="83" type="curve"/>
      <point x="130" y="0"/>
      <point x="130" y="83"/>
    </contour>
    <contour>
      <point x="380" y="795" type="line"/>
      <point x="567" y="961" type="line"/>
      <point x="420" y="961" type="line"/>
      <point x="269" y="795" type="line"/>
    </contour>
  </outline>
</glyph>
<glyph name="Ecircumflex" format="1">
  <advance width="682"/>
  <unicode hex="00CA"/>
  <outline>
    <contour>
      <point x="132" y="332" type="curve"/>
      <point x="270" y="332"/>
      <point x="408" y="332"/>
      <point x="545" y="332" type="curve"/>
      <point x="545" y="414"/>
      <point x="545" y="332"/>
      <point x="545" y="414" type="curve"/>
      <point x="408" y="414"/>
      <point x="270" y="414"/>
      <point x="132" y="414" type="curve"/>
      <point x="132" y="332"/>
      <point x="132" y="414"/>
    </contour>
    <contour>
      <point x="113" y="639" type="curve"/>
      <point x="284" y="639"/>
      <point x="454" y="639"/>
      <point x="625" y="639" type="curve"/>
      <point x="625" y="722"/>
      <point x="625" y="639"/>
      <point x="625" y="722" type="curve"/>
      <point x="454" y="722"/>
      <point x="284" y="722"/>
      <point x="113" y="722" type="curve"/>
      <point x="113" y="639"/>
      <point x="113" y="722"/>
    </contour>
    <contour>
      <point x="181" y="0" type="curve"/>
      <point x="181" y="722" type="line"/>
      <point x="70" y="722"/>
      <point x="181" y="722"/>
      <point x="70" y="722" type="curve"/>
      <point x="70" y="481"/>
      <point x="70" y="241"/>
      <point x="70" y="0" type="curve"/>
      <point x="181" y="0"/>
      <point x="70" y="0"/>
    </contour>
    <contour>
      <point x="113" y="0" type="curve"/>
      <point x="298" y="0"/>
      <point x="482" y="0"/>
      <point x="667" y="0" type="curve"/>
      <point x="667" y="83"/>
      <point x="667" y="0"/>
      <point x="667" y="83" type="curve"/>
      <point x="482" y="83"/>
      <point x="298" y="83"/>
      <point x="113" y="83" type="curve"/>
      <point x="113" y="0"/>
      <point x="113" y="83"/>
    </contour>
    <contour>
      <point x="185" y="797" type="line"/>
      <point x="372" y="963" type="line"/>
      <point x="226" y="963" type="line"/>
      <point x="74" y="797" type="line"/>
    </contour>
    <contour>
      <point x="561" y="797" type="line"/>
      <point x="407" y="963" type="line"/>
      <point x="261" y="963" type="line"/>
      <point x="448" y="797" type="line"/>
    </contour>
  </outline>
</glyph>
<glyph name="Edieresis" format="1">
  <advance width="706"/>
  <unicode hex="00CB"/>
  <outline>
    <contour>
      <point x="148" y="332" type="curve"/>
      <point x="285" y="332"/>
      <point x="423" y="332"/>
      <point x="560" y="332" type="curve"/>
      <point x="560" y="414"/>
      <point x="560" y="332"/>
      <point x="560" y="414" type="curve"/>
      <point x="423" y="414"/>
      <point x="285" y="414"/>
      <point x="148" y="414" type="curve"/>
      <point x="148" y="332"/>
      <point x="148" y="414"/>
    </contour>
    <contour>
      <point x="128" y="639" type="curve"/>
      <point x="299" y="639"/>
      <point x="469" y="639"/>
      <point x="640" y="639" type="curve"/>
      <point x="640" y="722"/>
      <point x="640" y="639"/>
      <point x="640" y="722" type="curve"/>
      <point x="469" y="722"/>
      <point x="299" y="722"/>
      <point x="128" y="722" type="curve"/>
      <point x="128" y="639"/>
      <point x="128" y="722"/>
    </contour>
    <contour>
      <point x="196" y="0" type="curve"/>
      <point x="196" y="722" type="line"/>
      <point x="85" y="722"/>
      <point x="196" y="722"/>
      <point x="85" y="722" type="curve"/>
      <point x="85" y="481"/>
      <point x="85" y="241"/>
      <point x="85" y="0" type="curve"/>
      <point x="196" y="0"/>
      <point x="85" y="0"/>
    </contour>
    <contour>
      <point x="128" y="0" type="curve"/>
      <point x="313" y="0"/>
      <point x="497" y="0"/>
      <point x="682" y="0" type="curve"/>
      <point x="682" y="83"/>
      <point x="682" y="0"/>
      <point x="682" y="83" type="curve"/>
      <point x="497" y="83"/>
      <point x="313" y="83"/>
      <point x="128" y="83" type="curve"/>
      <point x="128" y="0"/>
      <point x="128" y="83"/>
    </contour>
    <contour>
      <point x="295" y="848" type="curve"/>
      <point x="295" y="885"/>
      <point x="266" y="903"/>
      <point x="228" y="903" type="curve"/>
      <point x="189" y="903"/>
      <point x="163" y="883"/>
      <point x="163" y="848" type="curve"/>
      <point x="287" y="848"/>
      <point x="170" y="848"/>
      <point x="295" y="848" type="curve"/>
      <point x="295" y="810"/>
      <point x="266" y="794"/>
      <point x="227" y="794" type="curve"/>
      <point x="188" y="794"/>
      <point x="163" y="812"/>
      <point x="163" y="848" type="curve"/>
      <point x="287" y="848"/>
      <point x="170" y="848"/>
    </contour>
    <contour>
      <point x="503" y="848" type="curve"/>
      <point x="503" y="885"/>
      <point x="474" y="903"/>
      <point x="435" y="903" type="curve"/>
      <point x="396" y="903"/>
      <point x="370" y="883"/>
      <point x="370" y="848" type="curve"/>
      <point x="495" y="848"/>
      <point x="378" y="848"/>
      <point x="503" y="848" type="curve"/>
      <point x="503" y="810"/>
      <point x="474" y="794"/>
      <point x="434" y="794" type="curve"/>
      <point x="396" y="794"/>
      <point x="370" y="812"/>
      <point x="370" y="848" type="curve"/>
      <point x="495" y="848"/>
      <point x="378" y="848"/>
    </contour>
  </outline>
</glyph>
<glyph name="Igrave" format="1">
  <advance width="310"/>
  <unicode hex="00CC"/>
  <outline>
    <contour>
      <point x="213" y="0" type="curve"/>
      <point x="213" y="241"/>
      <point x="213" y="481"/>
      <point x="213" y="722" type="curve"/>
      <point x="102" y="722"/>
      <point x="213" y="722"/>
      <point x="102" y="722" type="curve"/>
      <point x="102" y="481"/>
      <point x="102" y="241"/>
      <point x="102" y="0" type="curve"/>
      <point x="213" y="0"/>
      <point x="102" y="0"/>
    </contour>
    <contour>
      <point x="223" y="796" type="line"/>
      <point x="69" y="962" type="line"/>
      <point x="-77" y="962" type="line"/>
      <point x="109" y="796" type="line"/>
    </contour>
  </outline>
</glyph>
<glyph name="Iacute" format="1">
  <advance width="311"/>
  <unicode hex="00CD"/>
  <outline>
    <contour>
      <point x="207" y="0" type="curve"/>
      <point x="207" y="241"/>
      <point x="207" y="481"/>
      <point x="207" y="722" type="curve"/>
      <point x="96" y="722"/>
      <point x="207" y="722"/>
      <point x="96" y="722" type="curve"/>
      <point x="96" y="481"/>
      <point x="96" y="241"/>
      <point x="96" y="0" type="curve"/>
      <point x="207" y="0"/>
      <point x="96" y="0"/>
    </contour>
    <contour>
      <point x="199" y="795" type="line"/>
      <point x="385" y="961" type="line"/>
      <point x="239" y="961" type="line"/>
      <point x="87" y="795" type="line"/>
    </contour>
  </outline>
</glyph>
<glyph name="Icircumflex" format="1">
  <advance width="330"/>
  <unicode hex="00CE"/>
  <outline>
    <contour>
      <point x="226" y="0" type="curve"/>
      <point x="226" y="241"/>
      <point x="226" y="481"/>
      <point x="226" y="722" type="curve"/>
      <point x="114" y="722"/>
      <point x="226" y="722"/>
      <point x="114" y="722" type="curve"/>
      <point x="114" y="481"/>
      <point x="114" y="241"/>
      <point x="114" y="0" type="curve"/>
      <point x="226" y="0"/>
      <point x="114" y="0"/>
    </contour>
    <contour>
      <point x="39" y="797" type="line"/>
      <point x="225" y="963" type="line"/>
      <point x="79" y="963" type="line"/>
      <point x="-73" y="797" type="line"/>
    </contour>
    <contour>
      <point x="414" y="797" type="line"/>
      <point x="261" y="963" type="line"/>
      <point x="114" y="963" type="line"/>
      <point x="301" y="797" type="line"/>
    </contour>
  </outline>
</glyph>
<glyph name="Idieresis" format="1">
  <advance width="318"/>
  <unicode hex="00CF"/>
  <outline>
    <contour>
      <point x="217" y="0" type="curve"/>
      <point x="217" y="241"/>
      <point x="217" y="481"/>
      <point x="217" y="722" type="curve"/>
      <point x="106" y="722"/>
      <point x="217" y="722"/>
      <point x="106" y="722" type="curve"/>
      <point x="106" y="481"/>
      <point x="106" y="241"/>
      <point x="106" y="0" type="curve"/>
      <point x="217" y="0"/>
      <point x="106" y="0"/>
    </contour>
    <contour>
      <point x="125" y="848" type="curve"/>
      <point x="125" y="885"/>
      <point x="96" y="903"/>
      <point x="57" y="903" type="curve"/>
      <point x="19" y="903"/>
      <point x="-8" y="883"/>
      <point x="-8" y="848" type="curve"/>
      <point x="117" y="848"/>
      <point x="0" y="848"/>
      <point x="125" y="848" type="curve"/>
      <point x="125" y="810"/>
      <point x="96" y="794"/>
      <point x="57" y="794" type="curve"/>
      <point x="18" y="794"/>
      <point x="-8" y="812"/>
      <point x="-8" y="848" type="curve"/>
      <point x="117" y="848"/>
      <point x="0" y="848"/>
    </contour>
    <contour>
      <point x="332" y="848" type="curve"/>
      <point x="332" y="885"/>
      <point x="303" y="903"/>
      <point x="265" y="903" type="curve"/>
      <point x="226" y="903"/>
      <point x="200" y="883"/>
      <point x="200" y="848" type="curve"/>
      <point x="324" y="848"/>
      <point x="207" y="848"/>
      <point x="332" y="848" type="curve"/>
      <point x="332" y="810"/>
      <point x="304" y="794"/>
      <point x="264" y="794" type="curve"/>
      <point x="225" y="794"/>
      <point x="200" y="812"/>
      <point x="200" y="848" type="curve"/>
      <point x="324" y="848"/>
      <point x="207" y="848"/>
    </contour>
  </outline>
</glyph>
<glyph name="Eth" format="1">
  <advance width="905"/>
  <unicode hex="00D0"/>
  <outline>
    <contour>
      <point x="109" y="722" type="curve"/>
      <point x="109" y="481"/>
      <point x="109" y="241"/>
      <point x="109" y="0" type="curve"/>
      <point x="220" y="0"/>
      <point x="109" y="0"/>
      <point x="220" y="0" type="curve"/>
      <point x="220" y="241"/>
      <point x="220" y="481"/>
      <point x="220" y="722" type="curve"/>
      <point x="109" y="722"/>
      <point x="220" y="722"/>
    </contour>
    <contour>
      <point x="167" y="0" type="curve"/>
      <point x="249" y="0"/>
      <point x="331" y="0"/>
      <point x="414" y="0" type="curve"/>
      <point x="684" y="0"/>
      <point x="856" y="101"/>
      <point x="856" y="353" type="curve"/>
      <point x="856" y="614"/>
      <point x="682" y="722"/>
      <point x="404" y="722" type="curve"/>
      <point x="324" y="722"/>
      <point x="246" y="722"/>
      <point x="167" y="722" type="curve"/>
      <point x="167" y="640"/>
      <point x="167" y="722"/>
      <point x="167" y="639" type="curve"/>
      <point x="244" y="639"/>
      <point x="321" y="639"/>
      <point x="398" y="639" type="curve"/>
      <point x="613" y="639"/>
      <point x="746" y="552"/>
      <point x="746" y="350" type="curve"/>
      <point x="746" y="163"/>
      <point x="622" y="83"/>
      <point x="423" y="83" type="curve"/>
      <point x="337" y="83"/>
      <point x="253" y="83"/>
      <point x="167" y="83" type="curve"/>
      <point x="167" y="0"/>
      <point x="167" y="82"/>
    </contour>
    <contour>
      <point x="33" y="318" type="curve"/>
      <point x="172" y="318"/>
      <point x="310" y="318"/>
      <point x="449" y="318" type="curve"/>
      <point x="449" y="409"/>
      <point x="449" y="318"/>
      <point x="449" y="409" type="curve"/>
      <point x="310" y="409"/>
      <point x="172" y="409"/>
      <point x="33" y="409" type="curve"/>
      <point x="33" y="318"/>
      <point x="33" y="409"/>
    </contour>
  </outline>
</glyph>
<glyph name="Ntilde" format="1">
  <advance width="979"/>
  <unicode hex="00D1"/>
  <outline>
    <contour>
      <point x="890" y="0" type="curve"/>
      <point x="666" y="240"/>
      <point x="446" y="482"/>
      <point x="222" y="722" type="curve"/>
      <point x="88" y="722"/>
      <point x="221" y="722"/>
      <point x="87" y="722" type="curve"/>
      <point x="310" y="482"/>
      <point x="531" y="240"/>
      <point x="755" y="0" type="curve"/>
      <point x="889" y="0"/>
      <point x="756" y="0"/>
    </contour>
    <contour>
      <point x="782" y="722" type="curve"/>
      <point x="782" y="481"/>
      <point x="782" y="241"/>
      <point x="782" y="0" type="curve"/>
      <point x="893" y="0"/>
      <point x="782" y="0"/>
      <point x="893" y="0" type="curve"/>
      <point x="893" y="241"/>
      <point x="893" y="481"/>
      <point x="893" y="722" type="curve"/>
      <point x="782" y="722"/>
      <point x="893" y="722"/>
    </contour>
    <contour>
      <point x="198" y="0" type="curve"/>
      <point x="198" y="241"/>
      <point x="198" y="481"/>
      <point x="198" y="722" type="curve"/>
      <point x="87" y="722"/>
      <point x="198" y="722"/>
      <point x="87" y="722" type="curve"/>
      <point x="87" y="481"/>
      <point x="87" y="241"/>
      <point x="87" y="0" type="curve"/>
      <point x="198" y="0"/>
      <point x="87" y="0"/>
    </contour>
    <contour>
      <point x="677" y="956" type="curve"/>
      <point x="663" y="913"/>
      <point x="642" y="875"/>
      <point x="603" y="875" type="curve"/>
      <point x="564" y="875"/>
      <point x="539" y="887"/>
      <point x="509" y="912" type="curve"/>
      <point x="467" y="946"/>
      <point x="434" y="962"/>
      <point x="381" y="962" type="curve"/>
      <point x="298" y="962"/>
      <point x="250" y="914"/>
      <point x="220" y="830" type="curve"/>
      <point x="302" y="791"/>
      <point x="221" y="829"/>
      <point x="303" y="791" type="curve"/>
      <point x="320" y="842"/>
      <point x="345" y="874"/>
      <point x="385" y="874" type="curve"/>
      <point x="422" y="874"/>
      <point x="443" y="859"/>
      <point x="471" y="836" type="curve"/>
      <point x="517" y="801"/>
      <point x="550" y="787"/>
      <point x="606" y="787" type="curve"/>
      <point x="690" y="787"/>
      <point x="735" y="839"/>
      <point x="764" y="919" type="curve"/>
      <point x="678" y="955"/>
      <point x="763" y="919"/>
    </contour>
  </outline>
</glyph>
<glyph name="Otilde" format="1">
  <advance width="925"/>
  <unicode hex="00D5"/>
  <outline>
    <contour>
      <point x="160" y="360" type="curve" name="FullCurve"/>
      <point x="160" y="536"/>
      <point x="275" y="640"/>
      <point x="458" y="640" type="curve" name="FullCurve"/>
      <point x="643" y="640"/>
      <point x="765" y="540"/>
      <point x="765" y="363" type="curve" name="FullCurve"/>
      <point x="765" y="187"/>
      <point x="649" y="83"/>
      <point x="466" y="83" type="curve" name="FullCurve"/>
      <point x="280" y="83"/>
      <point x="160" y="183"/>
      <point x="160" y="360" type="curve" name="FullCurve"/>
      <point x="49" y="360"/>
      <point x="160" y="360"/>
      <point x="49" y="360" type="curve" name="FullCurve"/>
      <point x="49" y="125"/>
      <point x="215" y="-5"/>
      <point x="461" y="-5" type="curve" name="FullCurve"/>
      <point x="709" y="-5"/>
      <point x="876" y="126"/>
      <point x="876" y="363" type="curve" name="FullCurve"/>
      <point x="876" y="597"/>
      <point x="711" y="727"/>
      <point x="466" y="727" type="curve" name="FullCurve"/>
      <point x="217" y="727"/>
      <point x="49" y="597"/>
      <point x="49" y="360" type="curve" name="FullCurve"/>
      <point x="160" y="360"/>
      <point x="49" y="360"/>
    </contour>
    <contour>
      <point x="650" y="956" type="curve"/>
      <point x="636" y="913"/>
      <point x="615" y="875"/>
      <point x="576" y="875" type="curve"/>
      <point x="537" y="875"/>
      <point x="513" y="887"/>
      <point x="482" y="912" type="curve"/>
      <point x="440" y="946"/>
      <point x="407" y="962"/>
      <point x="354" y="962" type="curve"/>
      <point x="272" y="962"/>
      <point x="223" y="914"/>
      <point x="193" y="830" type="curve"/>
      <point x="275" y="791"/>
      <point x="194" y="829"/>
      <point x="276" y="791" type="curve"/>
      <point x="294" y="842"/>
      <point x="318" y="874"/>
      <point x="358" y="874" type="curve"/>
      <point x="395" y="874"/>
      <point x="416" y="859"/>
      <point x="444" y="836" type="curve"/>
      <point x="490" y="801"/>
      <point x="523" y="787"/>
      <point x="579" y="787" type="curve"/>
      <point x="663" y="787"/>
      <point x="708" y="839"/>
      <point x="737" y="919" type="curve"/>
      <point x="651" y="955"/>
      <point x="736" y="919"/>
    </contour>
  </outline>
</glyph>
<glyph name="multiply" format="1">
  <advance width="593"/>
  <unicode hex="00D7"/>
  <outline>
    <contour>
      <point x="113" y="64" type="line"/>
      <point x="542" y="494" type="line"/>
      <point x="478" y="558" type="line"/>
      <point x="49" y="128" type="line"/>
    </contour>
    <contour>
      <point x="544" y="126" type="line"/>
      <point x="113" y="559" type="line"/>
      <point x="49" y="495" type="line"/>
      <point x="480" y="62" type="line"/>
    </contour>
  </outline>
</glyph>
<glyph name="Uacute" format="1">
  <advance width="892"/>
  <unicode hex="00DA"/>
  <outline>
    <contour>
      <point x="79" y="722" type="curve"/>
      <point x="79" y="573"/>
      <point x="79" y="427"/>
      <point x="79" y="278" type="curve"/>
      <point x="79" y="70"/>
      <point x="218" y="-5"/>
      <point x="445" y="-5" type="curve"/>
      <point x="673" y="-5"/>
      <point x="813" y="73"/>
      <point x="813" y="284" type="curve"/>
      <point x="813" y="431"/>
      <point x="813" y="575"/>
      <point x="813" y="722" type="curve"/>
      <point x="716" y="722"/>
      <point x="808" y="722"/>
      <point x="712" y="722" type="curve"/>
      <point x="712" y="569"/>
      <point x="712" y="426"/>
      <point x="712" y="274" type="curve"/>
      <point x="712" y="135"/>
      <point x="610" y="86"/>
      <point x="455" y="86" type="curve"/>
      <point x="285" y="86"/>
      <point x="181" y="139"/>
      <point x="181" y="293" type="curve"/>
      <point x="181" y="436"/>
      <point x="181" y="578"/>
      <point x="181" y="722" type="curve"/>
      <point x="84" y="722"/>
      <point x="176" y="722"/>
    </contour>
    <contour>
      <point x="496" y="795" type="line"/>
      <point x="682" y="961" type="line"/>
      <point x="536" y="961" type="line"/>
      <point x="385" y="795" type="line"/>
    </contour>
  </outline>
</glyph>
<glyph name="Udieresis" format="1">
  <advance width="892"/>
  <unicode hex="00DC"/>
  <outline>
    <contour>
      <point x="79" y="722" type="curve"/>
      <point x="79" y="573"/>
      <point x="79" y="427"/>
      <point x="79" y="278" type="curve"/>
      <point x="79" y="70"/>
      <point x="218" y="-5"/>
      <point x="445" y="-5" type="curve"/>
      <point x="673" y="-5"/>
      <point x="813" y="73"/>
      <point x="813" y="284" type="curve"/>
      <point x="813" y="431"/>
      <point x="813" y="575"/>
      <point x="813" y="722" type="curve"/>
      <point x="716" y="722"/>
      <point x="808" y="722"/>
      <point x="712" y="722" type="curve"/>
      <point x="712" y="569"/>
      <point x="712" y="426"/>
      <point x="712" y="274" type="curve"/>
      <point x="712" y="135"/>
      <point x="610" y="86"/>
      <point x="455" y="86" type="curve"/>
      <point x="285" y="86"/>
      <point x="181" y="139"/>
      <point x="181" y="293" type="curve"/>
      <point x="181" y="436"/>
      <point x="181" y="578"/>
      <point x="181" y="722" type="curve"/>
      <point x="84" y="722"/>
      <point x="176" y="722"/>
    </contour>
    <contour>
      <point x="412" y="848" type="curve"/>
      <point x="412" y="885"/>
      <point x="384" y="903"/>
      <point x="345" y="903" type="curve"/>
      <point x="306" y="903"/>
      <point x="280" y="883"/>
      <point x="280" y="848" type="curve"/>
      <point x="405" y="848"/>
      <point x="288" y="848"/>
      <point x="412" y="848" type="curve"/>
      <point x="412" y="810"/>
      <point x="384" y="794"/>
      <point x="344" y="794" type="curve"/>
      <point x="306" y="794"/>
      <point x="280" y="812"/>
      <point x="280" y="848" type="curve"/>
      <point x="405" y="848"/>
      <point x="288" y="848"/>
    </contour>
    <contour>
      <point x="620" y="848" type="curve"/>
      <point x="620" y="885"/>
      <point x="591" y="903"/>
      <point x="552" y="903" type="curve"/>
      <point x="514" y="903"/>
      <point x="487" y="883"/>
      <point x="487" y="848" type="curve"/>
      <point x="612" y="848"/>
      <point x="495" y="848"/>
      <point x="620" y="848" type="curve"/>
      <point x="620" y="810"/>
      <point x="591" y="794"/>
      <point x="552" y="794" type="curve"/>
      <point x="513" y="794"/>
      <point x="487" y="812"/>
      <point x="487" y="848" type="curve"/>
      <point x="612" y="848"/>
      <point x="495" y="848"/>
    </contour>
  </outline>
</glyph>
<glyph name="Yacute" format="1">
  <advance width="753"/>
  <unicode hex="00DD"/>
  <outline>
    <contour>
      <point x="14" y="722" type="curve"/>
      <point x="107" y="602"/>
      <point x="228" y="457"/>
      <point x="321" y="337" type="curve"/>
      <point x="433" y="337"/>
      <point x="319" y="338"/>
      <point x="432" y="338" type="curve"/>
      <point x="334" y="466"/>
      <point x="237" y="594"/>
      <point x="139" y="722" type="curve"/>
      <point x="45" y="722"/>
      <point x="109" y="722"/>
    </contour>
    <contour>
      <point x="632" y="722" type="curve"/>
      <point x="528" y="594"/>
      <point x="425" y="466"/>
      <point x="322" y="338" type="curve"/>
      <point x="435" y="338"/>
      <point x="321" y="337"/>
      <point x="434" y="337" type="curve"/>
      <point x="532" y="458"/>
      <point x="650" y="602"/>
      <point x="748" y="722" type="curve"/>
      <point x="653" y="722"/>
      <point x="727" y="722"/>
    </contour>
    <contour>
      <point x="438" y="0" type="curve"/>
      <point x="438" y="115"/>
      <point x="438" y="230"/>
      <point x="438" y="345" type="curve"/>
      <point x="317" y="345"/>
      <point x="438" y="345"/>
      <point x="317" y="345" type="curve"/>
      <point x="317" y="230"/>
      <point x="317" y="115"/>
      <point x="317" y="0" type="curve"/>
      <point x="438" y="0"/>
      <point x="317" y="0"/>
    </contour>
    <contour>
      <point x="427" y="795" type="line"/>
      <point x="614" y="961" type="line"/>
      <point x="467" y="961" type="line"/>
      <point x="316" y="795" type="line"/>
    </contour>
  </outline>
</glyph>
